<svg width="168" height="49" viewBox="0 0 168 49" fill="none" xmlns="http://www.w3.org/2000/svg">
<path d="M166.254 42.7269C166.254 45.3006 164.125 47.3855 161.493 47.3855H5.69662C3.06543 47.3855 0.929688 45.3006 0.929688 42.7269V5.57584C0.929688 3.00326 3.06543 0.911133 5.69662 0.911133H161.492C164.125 0.911133 166.252 3.00326 166.252 5.57584L166.254 42.7269Z" fill="black"/>
<path d="M160.99 0.967451C163.856 0.967451 166.189 3.24193 166.189 6.03711V42.2598C166.189 45.0549 163.856 47.3294 160.99 47.3294H6.19191C3.32505 47.3294 0.992253 45.0549 0.992253 42.2598V6.03711C0.992253 3.24193 3.32505 0.967451 6.19191 0.967451H160.99ZM160.99 6.13249e-06H6.19191C2.78791 6.13249e-06 0 2.71821 0 6.03711V42.2598C0 45.5787 2.78791 48.2969 6.19191 48.2969H160.99C164.394 48.2969 167.181 45.5787 167.181 42.2598V6.03711C167.181 2.71821 164.394 6.13249e-06 160.99 6.13249e-06Z" fill="white"/>
<path d="M37.3105 23.8874C37.2746 19.9959 40.5786 18.1027 40.7297 18.0145C38.8585 15.3546 35.9582 14.9912 34.939 14.9622C32.5031 14.7122 30.1403 16.3833 28.8994 16.3833C27.6338 16.3833 25.723 14.9863 23.6635 15.0274C21.0134 15.0672 18.5342 16.5632 17.1744 18.8863C14.3682 23.623 16.4611 30.5838 19.1496 34.4125C20.4945 36.2877 22.066 38.3813 24.123 38.3077C26.1353 38.2268 26.887 37.0568 29.3155 37.0568C31.7217 37.0568 32.4276 38.3077 34.5254 38.2606C36.6851 38.2268 38.0449 36.377 39.3427 34.485C40.8968 32.3358 41.521 30.2192 41.5458 30.1105C41.495 30.0936 37.3514 28.5517 37.3105 23.8874Z" fill="white"/>
<path d="M33.3477 12.4435C34.43 11.1238 35.1706 9.32835 34.965 7.50635C33.3984 7.57396 31.4393 8.56284 30.3112 9.85358C29.313 10.991 28.4214 12.8552 28.6517 14.6084C30.4115 14.7364 32.2183 13.7427 33.3477 12.4435Z" fill="white"/>
<path d="M66.4327 38.0381H63.6204L62.0798 33.3183H56.7251L55.2576 38.0381H52.5195L57.8248 21.9697H61.1015L66.4327 38.0381ZM61.6154 31.3381L60.2223 27.1423C60.0749 26.7137 59.7987 25.7043 59.3913 24.1153H59.3418C59.1795 24.7987 58.9182 25.8081 58.5591 27.1423L57.1907 31.3381H61.6154V31.3381Z" fill="white"/>
<path d="M80.0767 32.1025C80.0767 34.073 79.5306 35.6305 78.4383 36.774C77.46 37.7918 76.2451 38.3002 74.795 38.3002C73.2297 38.3002 72.1052 37.752 71.4204 36.6556H71.3709V42.7592H68.7306V30.266C68.7306 29.0272 68.6972 27.7557 68.6328 26.4517H70.9548L71.1021 28.2882H71.1517C72.0322 26.9045 73.3684 26.2139 75.1616 26.2139C76.5634 26.2139 77.7337 26.7536 78.6699 27.8342C79.6086 28.9161 80.0767 30.3384 80.0767 32.1025ZM77.3869 32.1966C77.3869 31.0689 77.1269 30.1392 76.6043 29.4075C76.0334 28.6444 75.2668 28.2629 74.3058 28.2629C73.6544 28.2629 73.0625 28.4754 72.5337 28.8943C72.0037 29.3169 71.6569 29.8687 71.4947 30.5521C71.413 30.8709 71.3721 31.1317 71.3721 31.337V33.2688C71.3721 34.1116 71.6371 34.8228 72.1672 35.4036C72.6972 35.9843 73.3857 36.2741 74.2328 36.2741C75.2272 36.2741 76.0012 35.8998 76.5547 35.1536C77.1095 34.4062 77.3869 33.421 77.3869 32.1966Z" fill="white"/>
<path d="M93.7434 32.1025C93.7434 34.073 93.1973 35.6305 92.1038 36.774C91.1267 37.7918 89.9119 38.3002 88.4617 38.3002C86.8964 38.3002 85.772 37.752 85.0884 36.6556H85.0388V42.7592H82.3986V30.266C82.3986 29.0272 82.3652 27.7557 82.3008 26.4517H84.6227L84.7701 28.2882H84.8196C85.6989 26.9045 87.0351 26.2139 88.8295 26.2139C90.2301 26.2139 91.4004 26.7536 92.3391 27.8342C93.2741 28.9161 93.7434 30.3384 93.7434 32.1025ZM91.0537 32.1966C91.0537 31.0689 90.7924 30.1392 90.2698 29.4075C89.6989 28.6444 88.9348 28.2629 87.9726 28.2629C87.3199 28.2629 86.7292 28.4754 86.1992 28.8943C85.6692 29.3169 85.3237 29.8687 85.1614 30.5521C85.0809 30.8709 85.0388 31.1317 85.0388 31.337V33.2688C85.0388 34.1116 85.3039 34.8228 85.8314 35.4036C86.3614 35.9831 87.05 36.2741 87.8995 36.2741C88.8939 36.2741 89.6679 35.8998 90.2215 35.1536C90.7763 34.4062 91.0537 33.421 91.0537 32.1966Z" fill="white"/>
<path d="M109.025 33.5321C109.025 34.8989 108.538 36.0109 107.561 36.8694C106.487 37.8076 104.993 38.2761 103.072 38.2761C101.299 38.2761 99.8769 37.9428 98.8008 37.2751L99.4125 35.1295C100.572 35.8129 101.843 36.1558 103.229 36.1558C104.224 36.1558 104.998 35.9361 105.554 35.499C106.107 35.0619 106.383 34.4751 106.383 33.7434C106.383 33.0914 106.156 32.542 105.699 32.0965C105.244 31.6509 104.485 31.2368 103.425 30.854C100.539 29.8048 99.098 28.2677 99.098 26.2465C99.098 24.9256 99.6033 23.8425 100.615 22.9998C101.623 22.1558 102.968 21.7344 104.65 21.7344C106.149 21.7344 107.395 21.9891 108.39 22.4975L107.73 24.596C106.801 24.1033 105.751 23.857 104.575 23.857C103.647 23.857 102.921 24.0804 102.401 24.5247C101.961 24.922 101.741 25.4061 101.741 25.9797C101.741 26.6148 101.992 27.14 102.497 27.5529C102.937 27.9345 103.736 28.3474 104.895 28.793C106.313 29.3496 107.354 30.0004 108.024 30.7466C108.692 31.4903 109.025 32.4213 109.025 33.5321Z" fill="white"/>
<path d="M117.755 28.3833H114.844V34.0087C114.844 35.4394 115.357 36.1542 116.385 36.1542C116.857 36.1542 117.248 36.1144 117.558 36.0347L117.631 37.9895C117.111 38.1791 116.426 38.2745 115.578 38.2745C114.535 38.2745 113.72 37.9642 113.132 37.3448C112.546 36.7241 112.251 35.6833 112.251 34.2212V28.3809H110.518V26.449H112.251V24.3275L114.844 23.5645V26.449H117.755V28.3833Z" fill="white"/>
<path d="M130.886 32.1493C130.886 33.9303 130.363 35.3925 129.32 36.5359C128.227 37.7131 126.775 38.2999 124.966 38.2999C123.223 38.2999 121.834 37.7361 120.799 36.6083C119.764 35.4806 119.246 34.057 119.246 32.3413C119.246 30.5459 119.779 29.0752 120.847 27.9318C121.914 26.7872 123.353 26.2148 125.162 26.2148C126.905 26.2148 128.309 26.7787 129.367 27.9076C130.38 29.0028 130.886 30.4167 130.886 32.1493ZM128.146 32.2326C128.146 31.1641 127.912 30.2476 127.438 29.4833C126.884 28.5585 126.093 28.0972 125.068 28.0972C124.006 28.0972 123.2 28.5597 122.647 29.4833C122.172 30.2488 121.938 31.1798 121.938 32.2809C121.938 33.3495 122.172 34.2659 122.647 35.029C123.218 35.9539 124.015 36.4151 125.044 36.4151C126.052 36.4151 126.844 35.9442 127.414 35.0049C127.901 34.2261 128.146 33.3 128.146 32.2326Z" fill="white"/>
<path d="M139.467 28.7156C139.206 28.6686 138.927 28.6444 138.635 28.6444C137.706 28.6444 136.988 28.9861 136.483 29.6707C136.043 30.2744 135.823 31.0375 135.823 31.9588V38.0381H133.184L133.208 30.1006C133.208 28.7651 133.175 27.5493 133.109 26.4529H135.409L135.506 28.6698H135.579C135.857 27.9079 136.297 27.2945 136.899 26.8345C137.487 26.4203 138.122 26.2139 138.807 26.2139C139.051 26.2139 139.272 26.2308 139.467 26.261V28.7156Z" fill="white"/>
<path d="M151.276 31.6965C151.276 32.1578 151.245 32.5466 151.179 32.8641H143.258C143.289 34.0087 143.672 34.8841 144.408 35.4878C145.075 36.0276 145.938 36.298 146.998 36.298C148.171 36.298 149.241 36.1157 150.203 35.7498L150.617 37.5368C149.492 38.015 148.165 38.2528 146.633 38.2528C144.79 38.2528 143.344 37.724 142.291 36.6675C141.241 35.611 140.715 34.1923 140.715 32.4125C140.715 30.6654 141.204 29.2104 142.184 28.0501C143.209 26.8113 144.595 26.1919 146.338 26.1919C148.051 26.1919 149.348 26.8113 150.228 28.0501C150.925 29.0342 151.276 30.2512 151.276 31.6965ZM148.758 31.0288C148.775 30.2657 148.603 29.6065 148.245 29.0499C147.788 28.3339 147.086 27.9765 146.141 27.9765C145.278 27.9765 144.576 28.3254 144.04 29.0257C143.6 29.5823 143.339 30.25 143.258 31.0276H148.758V31.0288Z" fill="white"/>
<path d="M60.743 12.0852C60.743 13.5063 60.3058 14.5761 59.4328 15.2945C58.6241 15.9574 57.4749 16.2894 55.9863 16.2894C55.2483 16.2894 54.6167 16.258 54.0879 16.1953V8.43032C54.7777 8.32165 55.5207 8.26611 56.3232 8.26611C57.7411 8.26611 58.8098 8.56676 59.5306 9.16806C60.338 9.84784 60.743 10.8198 60.743 12.0852ZM59.3745 12.1202C59.3745 11.1989 59.1244 10.4926 58.6241 9.99997C58.1238 9.50855 57.3931 9.26224 56.4309 9.26224C56.0222 9.26224 55.6743 9.2888 55.3857 9.34434V15.2474C55.5455 15.2716 55.8377 15.2824 56.2625 15.2824C57.2557 15.2824 58.0222 15.0132 58.5622 14.4747C59.1021 13.9362 59.3745 13.1513 59.3745 12.1202Z" fill="white"/>
<path d="M67.9989 13.3263C67.9989 14.2017 67.7425 14.9189 67.2298 15.4816C66.6924 16.0599 65.9803 16.3485 65.0911 16.3485C64.2342 16.3485 63.5518 16.072 63.0429 15.5166C62.5351 14.9624 62.2812 14.2633 62.2812 13.4205C62.2812 12.5391 62.5425 11.8159 63.0676 11.2544C63.5927 10.693 64.2986 10.4116 65.1877 10.4116C66.0447 10.4116 66.7332 10.6881 67.2546 11.2423C67.7499 11.7808 67.9989 12.4763 67.9989 13.3263ZM66.6527 13.3674C66.6527 12.8422 66.5363 12.3918 66.3048 12.0163C66.0323 11.5623 65.6447 11.3353 65.1407 11.3353C64.6193 11.3353 64.223 11.5623 63.9506 12.0163C63.7178 12.3918 63.6026 12.8494 63.6026 13.3903C63.6026 13.9156 63.719 14.3659 63.9506 14.7414C64.2317 15.1954 64.623 15.4224 65.1283 15.4224C65.6236 15.4224 66.0125 15.1918 66.2924 14.7294C66.5326 14.3466 66.6527 13.8926 66.6527 13.3674Z" fill="white"/>
<path d="M77.7277 10.5278L75.9011 16.2196H74.7122L73.9556 13.748C73.7636 13.131 73.6076 12.5177 73.4862 11.9091H73.4627C73.35 12.5346 73.194 13.1467 72.9933 13.748L72.1896 16.2196H70.9872L69.2695 10.5278H70.6033L71.2633 13.2337C71.4231 13.8736 71.5543 14.4833 71.6596 15.0605H71.6831C71.7797 14.5848 71.9395 13.9786 72.1649 13.2457L72.9933 10.529H74.0509L74.8447 13.1878C75.0367 13.8362 75.1927 14.4604 75.3128 15.0617H75.3487C75.4367 14.4761 75.5692 13.8519 75.745 13.1878L76.4534 10.529H77.7277V10.5278Z" fill="white"/>
<path d="M84.4549 16.2195H83.157V12.9595C83.157 11.9549 82.7657 11.4526 81.9806 11.4526C81.5954 11.4526 81.2846 11.5903 81.0431 11.8668C80.8041 12.1433 80.6828 12.4693 80.6828 12.8424V16.2183H79.3849V12.1541C79.3849 11.6543 79.3689 11.1121 79.3379 10.5253H80.4784L80.5391 11.4152H80.575C80.7261 11.1387 80.9515 10.9105 81.2475 10.7282C81.5992 10.5157 81.993 10.4082 82.4239 10.4082C82.9688 10.4082 83.4221 10.5797 83.7824 10.9238C84.2307 11.3452 84.4549 11.9742 84.4549 12.8098V16.2195V16.2195Z" fill="white"/>
<path d="M88.0349 16.2195H86.7383V7.91602H88.0349V16.2195Z" fill="white"/>
<path d="M95.6746 13.3263C95.6746 14.2017 95.4183 14.9189 94.9056 15.4816C94.3681 16.0599 93.6548 16.3485 92.7669 16.3485C91.9087 16.3485 91.2264 16.072 90.7186 15.5166C90.2109 14.9624 89.957 14.2633 89.957 13.4205C89.957 12.5391 90.2183 11.8159 90.7434 11.2544C91.2685 10.693 91.9744 10.4116 92.8623 10.4116C93.7205 10.4116 94.4078 10.6881 94.9304 11.2423C95.4257 11.7808 95.6746 12.4763 95.6746 13.3263ZM94.3273 13.3674C94.3273 12.8422 94.2109 12.3918 93.9793 12.0163C93.7081 11.5623 93.3192 11.3353 92.8165 11.3353C92.2939 11.3353 91.8976 11.5623 91.6264 12.0163C91.3936 12.3918 91.2784 12.8494 91.2784 13.3903C91.2784 13.9156 91.3948 14.3659 91.6264 14.7414C91.9075 15.1954 92.2988 15.4224 92.8041 15.4224C93.2994 15.4224 93.687 15.1918 93.9669 14.7294C94.2084 14.3466 94.3273 13.8926 94.3273 13.3674Z" fill="white"/>
<path d="M101.957 16.2193H100.791L100.695 15.5637H100.659C100.26 16.0865 99.6916 16.3485 98.9535 16.3485C98.4024 16.3485 97.9566 16.1759 97.621 15.8329C97.3164 15.5214 97.1641 15.1338 97.1641 14.6738C97.1641 13.9783 97.4613 13.4483 98.0594 13.0812C98.6563 12.7142 99.4959 12.5343 100.577 12.5427V12.4365C100.577 11.6867 100.173 11.3124 99.3647 11.3124C98.7888 11.3124 98.2811 11.4536 97.8427 11.7337L97.5789 10.903C98.1213 10.5758 98.7913 10.4116 99.5814 10.4116C101.107 10.4116 101.872 11.1964 101.872 12.7661V14.8622C101.872 15.4309 101.901 15.8837 101.957 16.2193ZM100.609 14.2633V13.3855C99.1777 13.3614 98.4619 13.7441 98.4619 14.5326C98.4619 14.8296 98.5436 15.0517 98.7108 15.2003C98.878 15.3488 99.091 15.4224 99.3449 15.4224C99.6297 15.4224 99.8959 15.3343 100.139 15.1592C100.383 14.9829 100.532 14.7595 100.588 14.4855C100.602 14.4239 100.609 14.349 100.609 14.2633Z" fill="white"/>
<path d="M109.331 16.2195H108.179L108.118 15.3054H108.082C107.714 16.0009 107.088 16.3486 106.207 16.3486C105.504 16.3486 104.918 16.0794 104.454 15.5409C103.989 15.0024 103.758 14.3033 103.758 13.4448C103.758 12.5235 104.009 11.7773 104.514 11.2074C105.004 10.6762 105.603 10.4105 106.316 10.4105C107.1 10.4105 107.649 10.6677 107.961 11.1833H107.986V7.91602H109.285V14.686C109.285 15.2402 109.3 15.751 109.331 16.2195ZM107.986 13.8191V12.8701C107.986 12.7059 107.973 12.573 107.95 12.4716C107.877 12.1673 107.719 11.9114 107.48 11.7049C107.239 11.4984 106.948 11.3946 106.612 11.3946C106.128 11.3946 105.749 11.5817 105.47 11.9573C105.194 12.3328 105.054 12.8121 105.054 13.3977C105.054 13.9604 105.187 14.4168 105.453 14.7681C105.734 15.1424 106.113 15.3296 106.588 15.3296C107.014 15.3296 107.354 15.1738 107.613 14.8611C107.863 14.5725 107.986 14.2248 107.986 13.8191Z" fill="white"/>
<path d="M120.43 13.3263C120.43 14.2017 120.174 14.9189 119.661 15.4816C119.124 16.0599 118.413 16.3485 117.523 16.3485C116.667 16.3485 115.985 16.072 115.475 15.5166C114.967 14.9624 114.713 14.2633 114.713 13.4205C114.713 12.5391 114.974 11.8159 115.499 11.2544C116.024 10.693 116.73 10.4116 117.621 10.4116C118.476 10.4116 119.166 10.6881 119.686 11.2423C120.182 11.7808 120.43 12.4763 120.43 13.3263ZM119.086 13.3674C119.086 12.8422 118.969 12.3918 118.738 12.0163C118.464 11.5623 118.078 11.3353 117.572 11.3353C117.052 11.3353 116.656 11.5623 116.382 12.0163C116.149 12.3918 116.034 12.8494 116.034 13.3903C116.034 13.9156 116.151 14.3659 116.382 14.7414C116.663 15.1954 117.055 15.4224 117.56 15.4224C118.055 15.4224 118.445 15.1918 118.725 14.7294C118.964 14.3466 119.086 13.8926 119.086 13.3674Z" fill="white"/>
<path d="M127.409 16.2195H126.112V12.9595C126.112 11.9549 125.721 11.4526 124.934 11.4526C124.549 11.4526 124.238 11.5903 123.998 11.8668C123.758 12.1433 123.638 12.4693 123.638 12.8424V16.2183H122.339V12.1541C122.339 11.6543 122.324 11.1121 122.293 10.5253H123.432L123.493 11.4152H123.529C123.681 11.1387 123.907 10.9105 124.201 10.7282C124.554 10.5157 124.947 10.4082 125.379 10.4082C125.923 10.4082 126.376 10.5797 126.736 10.9238C127.186 11.3452 127.409 11.9742 127.409 12.8098V16.2195V16.2195Z" fill="white"/>
<path d="M136.143 11.4757H134.714V14.2407C134.714 14.9434 134.968 15.2948 135.471 15.2948C135.704 15.2948 135.897 15.2754 136.049 15.2356L136.083 16.1955C135.826 16.2897 135.489 16.3368 135.075 16.3368C134.562 16.3368 134.163 16.1846 133.875 15.8804C133.585 15.5761 133.441 15.0641 133.441 14.3457V11.4757H132.588V10.5279H133.441V9.48465L134.713 9.11035V10.5267H136.142V11.4757H136.143Z" fill="white"/>
<path d="M143.013 16.2195H141.714V12.9836C141.714 11.9633 141.323 11.4526 140.539 11.4526C139.937 11.4526 139.526 11.7484 139.301 12.34C139.262 12.4644 139.24 12.6165 139.24 12.7952V16.2182H137.943V7.91602H139.24V11.3463H139.265C139.673 10.7221 140.259 10.4105 141.018 10.4105C141.556 10.4105 142 10.582 142.353 10.9261C142.793 11.3548 143.013 11.9923 143.013 12.8351V16.2195V16.2195Z" fill="white"/>
<path d="M150.1 13.1043C150.1 13.3313 150.083 13.5221 150.052 13.6778H146.16C146.177 14.2405 146.363 14.6691 146.723 14.9661C147.053 15.2318 147.477 15.3646 147.997 15.3646C148.573 15.3646 149.098 15.2752 149.571 15.0953L149.775 15.9743C149.221 16.2086 148.57 16.3257 147.815 16.3257C146.911 16.3257 146.199 16.0661 145.684 15.5469C145.167 15.0277 144.91 14.331 144.91 13.4569C144.91 12.5984 145.149 11.8836 145.631 11.3137C146.134 10.7051 146.814 10.4009 147.672 10.4009C148.511 10.4009 149.149 10.7051 149.58 11.3137C149.928 11.7967 150.1 12.3943 150.1 13.1043ZM148.862 12.7771C148.872 12.4016 148.786 12.078 148.61 11.8051C148.385 11.4538 148.042 11.2775 147.578 11.2775C147.154 11.2775 146.809 11.4489 146.545 11.793C146.329 12.0671 146.202 12.3943 146.16 12.7771H148.862Z" fill="white"/>
</svg>
