<svg width="167" height="49" viewBox="0 0 167 49" fill="none" xmlns="http://www.w3.org/2000/svg">
<path d="M160.768 48.2969H6.1834C2.78407 48.2969 0 45.5787 0 42.2598V6.03711C0 2.71821 2.78407 6.13249e-06 6.1834 6.13249e-06H160.768C164.168 6.13249e-06 166.952 2.71821 166.952 6.03711V42.2598C166.952 45.5787 164.168 48.2969 160.768 48.2969Z" fill="black"/>
<path d="M160.768 0.967451C163.631 0.967451 165.961 3.24193 165.961 6.03711V42.2598C165.961 45.0549 163.631 47.3294 160.768 47.3294H6.1834C3.32048 47.3294 0.990889 45.0549 0.990889 42.2598V6.03711C0.990889 3.24193 3.32048 0.967451 6.1834 0.967451H160.768ZM160.768 6.13249e-06H6.1834C2.78407 6.13249e-06 0 2.71821 0 6.03711V42.2598C0 45.5787 2.78407 48.2969 6.1834 48.2969H160.768C164.168 48.2969 166.952 45.5787 166.952 42.2598V6.03711C166.952 2.71821 164.168 6.13249e-06 160.768 6.13249e-06Z" fill="white"/>
<path d="M58.6411 12.3686C58.6411 13.3768 58.3319 14.1843 57.7229 14.7865C57.0226 15.5004 56.1105 15.8596 54.9929 15.8596C53.9247 15.8596 53.0126 15.4944 52.2645 14.7744C51.5147 14.0439 51.1406 13.1474 51.1406 12.0743C51.1406 11.0012 51.5147 10.1047 52.2645 9.38027C53.0126 8.65431 53.9247 8.28906 54.9929 8.28906C55.5247 8.28906 56.0317 8.39622 56.5155 8.59545C56.9978 8.79618 57.3905 9.06785 57.6749 9.40291L57.0288 10.0398C56.5325 9.46781 55.857 9.18557 54.9929 9.18557C54.2138 9.18557 53.5382 9.45121 52.9647 9.987C52.3974 10.5243 52.113 11.2201 52.113 12.0743C52.113 12.9286 52.3974 13.6304 52.9647 14.1677C53.5382 14.6975 54.2138 14.9691 54.9929 14.9691C55.8199 14.9691 56.5155 14.6975 57.0643 14.1617C57.426 13.807 57.6316 13.318 57.6858 12.6931H54.9929V11.8208H58.5854C58.6287 12.0094 58.6411 12.1921 58.6411 12.3686V12.3686Z" fill="white" stroke="white" stroke-width="0.130975" stroke-miterlimit="10"/>
<path d="M64.3397 9.34404H60.9651V11.6381H64.0073V12.5105H60.9651V14.8046H64.3397V15.6936H60.0098V8.45508H64.3397V9.34404Z" fill="white" stroke="white" stroke-width="0.130975" stroke-miterlimit="10"/>
<path d="M68.3612 15.6936H67.4058V9.34404H65.3359V8.45508H70.4326V9.34404H68.3612V15.6936V15.6936Z" fill="white" stroke="white" stroke-width="0.130975" stroke-miterlimit="10"/>
<path d="M74.1211 15.6936V8.45508H75.0749V15.6936H74.1211Z" fill="white" stroke="white" stroke-width="0.130975" stroke-miterlimit="10"/>
<path d="M79.3045 15.6936H78.3569V9.34404H76.2793V8.45508H81.3821V9.34404H79.3045V15.6936Z" fill="white" stroke="white" stroke-width="0.130975" stroke-miterlimit="10"/>
<path d="M91.0304 14.7624C90.2992 15.4944 89.3933 15.8596 88.3128 15.8596C87.2261 15.8596 86.3202 15.4944 85.589 14.7624C84.8594 14.0319 84.4961 13.1354 84.4961 12.0743C84.4961 11.0133 84.8594 10.1168 85.589 9.38631C86.3202 8.65431 87.2261 8.28906 88.3128 8.28906C89.3872 8.28906 90.293 8.65431 91.0242 9.39234C91.76 10.1289 92.1233 11.0193 92.1233 12.0743C92.1233 13.1354 91.76 14.0319 91.0304 14.7624ZM86.2955 14.1556C86.8458 14.6975 87.5151 14.9691 88.3128 14.9691C89.1043 14.9691 89.7798 14.6975 90.3239 14.1556C90.8727 13.6138 91.151 12.918 91.151 12.0743C91.151 11.2306 90.8727 10.5349 90.3239 9.99304C89.7798 9.45121 89.1043 9.17954 88.3128 9.17954C87.5151 9.17954 86.8458 9.45121 86.2955 9.99304C85.7467 10.5349 85.4684 11.2306 85.4684 12.0743C85.4684 12.918 85.7467 13.6138 86.2955 14.1556V14.1556Z" fill="white" stroke="white" stroke-width="0.130975" stroke-miterlimit="10"/>
<path d="M93.4629 15.6936V8.45508H94.6223L98.2272 14.0847H98.2689L98.2272 12.6931V8.45508H99.181V15.6936H98.1855L94.4105 9.78626H94.3688L94.4105 11.1838V15.6936H93.4629V15.6936Z" fill="white" stroke="white" stroke-width="0.130975" stroke-miterlimit="10"/>
<path d="M84.2617 26.2645C81.3571 26.2645 78.9842 28.4228 78.9842 31.4006C78.9842 34.3543 81.3571 36.5352 84.2617 36.5352C87.1725 36.5352 89.5454 34.3543 89.5454 31.4006C89.5454 28.4228 87.1725 26.2645 84.2617 26.2645ZM84.2617 34.5127C82.6679 34.5127 81.2968 33.2283 81.2968 31.4006C81.2968 29.5487 82.6679 28.287 84.2617 28.287C85.8555 28.287 87.2328 29.5487 87.2328 31.4006C87.2328 33.2283 85.8555 34.5127 84.2617 34.5127V34.5127ZM72.7467 26.2645C69.8359 26.2645 67.4692 28.4228 67.4692 31.4006C67.4692 34.3543 69.8359 36.5352 72.7467 36.5352C75.656 36.5352 78.0242 34.3543 78.0242 31.4006C78.0242 28.4228 75.656 26.2645 72.7467 26.2645ZM72.7467 34.5127C71.1514 34.5127 69.7756 33.2283 69.7756 31.4006C69.7756 29.5487 71.1514 28.287 72.7467 28.287C74.3405 28.287 75.7116 29.5487 75.7116 31.4006C75.7116 33.2283 74.3405 34.5127 72.7467 34.5127ZM59.0443 27.8387V30.0211H64.3821C64.226 31.2406 63.8086 32.1371 63.1686 32.762C62.3895 33.5166 61.176 34.3542 59.0443 34.3542C55.7594 34.3542 53.1871 31.7658 53.1871 28.5586C53.1871 25.3514 55.7594 22.763 59.0443 22.763C60.8205 22.763 62.1128 23.4407 63.0666 24.3191L64.6418 22.7811C63.3077 21.5375 61.5331 20.5821 59.0443 20.5821C54.5397 20.5821 50.7539 24.1606 50.7539 28.5586C50.7539 32.9567 54.5397 36.5352 59.0443 36.5352C61.479 36.5352 63.3077 35.7564 64.7454 34.2954C66.2186 32.857 66.6777 30.8346 66.6777 29.2016C66.6777 28.6945 66.6344 28.2281 66.5571 27.8387H59.0443ZM115.075 29.5306C114.641 28.382 113.3 26.2645 110.571 26.2645C107.865 26.2645 105.613 28.3458 105.613 31.4006C105.613 34.2773 107.842 36.5352 110.83 36.5352C113.246 36.5352 114.641 35.0968 115.214 34.2592L113.421 33.0925C112.823 33.9467 112.008 34.5127 110.83 34.5127C109.66 34.5127 108.821 33.989 108.283 32.9567L115.318 30.1147L115.075 29.5306V29.5306ZM107.902 31.2406C107.842 29.2604 109.478 28.2462 110.649 28.2462C111.568 28.2462 112.347 28.6945 112.606 29.3359L107.902 31.2406V31.2406ZM102.184 36.2227H104.497V21.13H102.184V36.2227ZM98.397 27.4086H98.3197C97.8002 26.8079 96.8094 26.2645 95.5541 26.2645C92.92 26.2645 90.5116 28.5224 90.5116 31.4172C90.5116 34.2954 92.92 36.5352 95.5541 36.5352C96.8094 36.5352 97.8002 35.9873 98.3197 35.3685H98.397V36.105C98.397 38.0686 97.3226 39.1236 95.5897 39.1236C94.1768 39.1236 93.3003 38.1274 92.9386 37.2898L90.9274 38.1093C91.5071 39.4707 93.0421 41.146 95.5897 41.146C98.3011 41.146 100.589 39.5884 100.589 35.7986V26.5769H98.397V27.4086V27.4086ZM95.752 34.5127C94.1582 34.5127 92.8242 33.2102 92.8242 31.4172C92.8242 29.6076 94.1582 28.287 95.752 28.287C97.3226 28.287 98.5608 29.6076 98.5608 31.4172C98.5608 33.2102 97.3226 34.5127 95.752 34.5127V34.5127ZM125.902 21.13H120.371V36.2227H122.678V30.5041H125.902C128.464 30.5041 130.976 28.6945 130.976 25.8163C130.976 22.9396 128.458 21.13 125.902 21.13V21.13ZM125.963 28.4047H122.678V23.2294H125.963C127.685 23.2294 128.668 24.6255 128.668 25.8163C128.668 26.9845 127.685 28.4047 125.963 28.4047ZM140.22 26.2359C138.553 26.2359 136.821 26.9543 136.108 28.5466L138.155 29.3842C138.595 28.5466 139.405 28.2749 140.262 28.2749C141.458 28.2749 142.672 28.9767 142.69 30.2158V30.3743C142.273 30.1388 141.379 29.7902 140.28 29.7902C138.076 29.7902 135.83 30.975 135.83 33.1861C135.83 35.2085 137.635 36.511 139.665 36.511C141.217 36.511 142.073 35.8273 142.611 35.0319H142.69V36.1986H144.918V30.409C144.918 27.7331 142.871 26.2359 140.22 26.2359ZM139.942 34.5067C139.187 34.5067 138.136 34.1414 138.136 33.2283C138.136 32.0602 139.447 31.6119 140.582 31.6119C141.597 31.6119 142.073 31.8307 142.69 32.119C142.509 33.5166 141.277 34.5067 139.942 34.5067V34.5067ZM153.033 26.5664L150.382 33.1091H150.303L147.563 26.5664H145.075L149.194 35.7096L146.844 40.7974H149.254L155.6 26.5664H153.033V26.5664ZM132.243 36.2227H134.556V21.13H132.243V36.2227Z" fill="white"/>
<path d="M12.9055 9.10223C12.5423 9.47351 12.332 10.0516 12.332 10.8002V37.5023C12.332 38.2509 12.5423 38.829 12.9055 39.2002L12.9952 39.2817L28.3207 24.3248V23.9716L12.9952 9.01469L12.9055 9.10223Z" fill="url(#paint0_linear_8284_22028)"/>
<path d="M33.4232 29.313L28.3203 24.3248V23.9717L33.4293 18.9835L33.5437 19.0484L39.5942 22.4096C41.3209 23.3634 41.3209 24.9331 39.5942 25.893L33.5437 29.2481L33.4232 29.313V29.313Z" fill="url(#paint1_linear_8284_22028)"/>
<path d="M33.5429 29.248L28.3195 24.1482L12.9043 39.2002C13.4778 39.7888 14.413 39.8597 15.4766 39.2711L33.5429 29.248" fill="url(#paint2_linear_8284_22028)"/>
<path d="M33.5429 19.0486L15.4766 9.02548C14.413 8.4429 13.4778 8.51384 12.9043 9.10245L28.3195 24.1484L33.5429 19.0486Z" fill="url(#paint3_linear_8284_22028)"/>
<defs>
<linearGradient id="paint0_linear_8284_22028" x1="26.96" y1="37.7804" x2="6.70239" y2="17.0319" gradientUnits="userSpaceOnUse">
<stop stop-color="#00A0FF"/>
<stop offset="0.0066" stop-color="#00A1FF"/>
<stop offset="0.2601" stop-color="#00BEFF"/>
<stop offset="0.5122" stop-color="#00D2FF"/>
<stop offset="0.7604" stop-color="#00DFFF"/>
<stop offset="1" stop-color="#00E3FF"/>
</linearGradient>
<linearGradient id="paint1_linear_8284_22028" x1="41.8427" y1="24.1466" x2="11.9189" y2="24.1466" gradientUnits="userSpaceOnUse">
<stop stop-color="#FFE000"/>
<stop offset="0.4087" stop-color="#FFBD00"/>
<stop offset="0.7754" stop-color="#FFA500"/>
<stop offset="1" stop-color="#FF9C00"/>
</linearGradient>
<linearGradient id="paint2_linear_8284_22028" x1="30.7026" y1="21.3758" x2="3.23159" y2="-6.76085" gradientUnits="userSpaceOnUse">
<stop stop-color="#FF3A44"/>
<stop offset="1" stop-color="#C31162"/>
</linearGradient>
<linearGradient id="paint3_linear_8284_22028" x1="9.02397" y1="48.0841" x2="21.291" y2="35.52" gradientUnits="userSpaceOnUse">
<stop stop-color="#32A071"/>
<stop offset="0.0685" stop-color="#2DA771"/>
<stop offset="0.4762" stop-color="#15CF74"/>
<stop offset="0.8009" stop-color="#06E775"/>
<stop offset="1" stop-color="#00F076"/>
</linearGradient>
</defs>
</svg>
