<svg width="167" height="63" viewBox="0 0 167 63" fill="none" xmlns="http://www.w3.org/2000/svg">
<path d="M73.8437 9.60846C73.1727 9.72029 72.5096 9.77621 71.8546 9.77621C71.0717 9.77621 70.3847 9.68834 69.7936 9.5126C69.8255 9.35283 69.8415 9.24099 69.8415 9.17708C69.8415 8.80962 69.7057 8.50606 69.4341 8.2664C69.1625 8.02675 68.8589 7.90693 68.5234 7.90693C68.2838 7.90693 68.0681 7.98681 67.8764 8.14658C67.7006 8.29037 67.5968 8.51405 67.5648 8.8176C67.5169 8.9614 67.4929 9.08921 67.4929 9.20105L67.5169 9.41674C67.5169 9.44869 67.5169 9.46467 67.5169 9.46467C67.6287 9.80018 67.7885 10.0318 67.9962 10.1597C68.2199 10.2875 68.4835 10.3753 68.787 10.4233C69.5859 10.5351 70.3927 10.8307 71.2075 11.31C72.0224 11.7893 72.6774 12.3485 73.1727 12.9876C73.4762 13.4029 73.7159 13.8663 73.8916 14.3775C74.0674 14.8728 74.1553 15.3601 74.1553 15.8394C74.1553 16.6702 73.9715 17.477 73.6041 18.2599C73.1887 19.1546 72.5496 19.8496 71.6868 20.3449C70.8241 20.8402 69.8815 21.0878 68.8589 21.0878C67.8205 21.0878 66.8059 20.8881 65.8154 20.4887C64.8408 20.0733 64.0499 19.4821 63.4428 18.7152C62.8357 17.9484 62.5641 17.0616 62.628 16.0551V15.8394C63.0913 15.7595 63.6026 15.7196 64.1618 15.7196C64.6411 15.7196 65.0485 15.7276 65.384 15.7436C65.6875 15.7595 66.2308 15.7675 67.0136 15.7675C67.0296 16.2468 67.1734 16.6223 67.445 16.8939C67.7326 17.1655 68.0601 17.3013 68.4276 17.3013C68.7471 17.3013 69.0107 17.1974 69.2184 16.9897C69.4421 16.782 69.5539 16.4865 69.5539 16.103C69.5539 15.9592 69.5459 15.8474 69.53 15.7675C69.4501 15.1764 69.1705 14.761 68.6912 14.5213C68.2119 14.2817 67.5648 14.082 66.75 13.9222L66.3905 13.8503C65.7035 13.7225 65.1044 13.4429 64.5931 13.0115C64.018 12.4523 63.5866 11.8532 63.299 11.2141C63.0114 10.5751 62.8676 9.93598 62.8676 9.29691C62.8676 8.25842 63.1792 7.28383 63.8023 6.37315C64.4414 5.4465 65.2642 4.77547 66.2707 4.36007C66.8938 4.10444 67.6687 3.97663 68.5953 3.97663C69.7936 3.97663 70.888 4.20031 71.8786 4.64766C72.6135 5.0311 73.1966 5.53437 73.628 6.15747C74.0594 6.78056 74.2751 7.51549 74.2751 8.36227C74.2751 8.6818 74.2272 9.0972 74.1313 9.60846H73.8437ZM79.1964 8.12261C79.1644 8.18652 79.1245 8.68979 79.0766 9.63242C79.0286 10.5751 79.0047 11.5337 79.0047 12.5082C79.0047 13.4988 79.0286 14.3296 79.0766 15.0006C79.1245 15.432 79.2523 15.8554 79.46 16.2708C79.6677 16.6702 79.9153 16.9418 80.2029 17.0856C80.7621 17.1176 81.1855 16.8619 81.4731 16.3187H81.4491C81.5929 16.0152 81.6648 15.5598 81.6648 14.9527C81.6648 14.4734 81.6967 14.0979 81.7607 13.8263C82.1601 13.8902 82.5435 13.9222 82.911 13.9222L84.0134 13.8982C84.5886 13.8982 85.1318 13.9621 85.643 14.09C85.8347 14.6491 85.9306 15.2323 85.9306 15.8394C85.9306 16.7501 85.6989 17.6128 85.2356 18.4277C84.7883 19.2425 84.1652 19.9055 83.3663 20.4168C82.5675 20.928 81.6808 21.1996 80.7062 21.2316C80.4186 21.2795 80.0831 21.3035 79.6996 21.3035C78.4535 21.3035 77.359 21.0239 76.4164 20.4647C75.4738 19.9055 74.9465 19.0667 74.8347 17.9484C74.7548 16.3507 74.7149 14.6332 74.7149 12.7958C74.7149 11.278 74.7229 10.0318 74.7388 9.05726L74.7628 7.97882C74.7468 7.73917 74.7628 7.46756 74.8107 7.164C74.8746 6.84447 74.9545 6.56487 75.0504 6.32522C75.1942 5.95776 75.3779 5.59029 75.6016 5.22282C75.8412 4.85536 76.0889 4.5518 76.3445 4.31214C76.68 4.04054 77.1753 3.80887 77.8304 3.61715C78.4535 3.42543 79.1005 3.32957 79.7715 3.32957C80.858 3.32957 81.8805 3.5852 82.8391 4.09646C83.7977 4.59174 84.5646 5.27874 85.1398 6.15747C85.7149 7.02021 86.0025 7.96285 86.0025 8.98536C86.0025 9.59248 85.8907 10.1996 85.667 10.8067C84.996 10.9505 84.4368 11.0224 83.9894 11.0224C83.3823 11.0224 82.5435 10.9186 81.4731 10.7109L81.4012 9.80018C81.3692 9.06525 81.2734 8.51405 81.1136 8.14658C80.9698 7.76314 80.6503 7.5794 80.155 7.59538C80.139 7.59538 80.115 7.60337 80.0831 7.61934C80.0671 7.61934 80.0352 7.61934 79.9872 7.61934H80.0112C79.5159 7.69923 79.2443 7.86698 79.1964 8.12261ZM91.713 4.09646C91.713 5.96574 91.689 7.85101 91.6411 9.75225C91.5772 12.2766 91.5452 14.2657 91.5452 15.7196C91.5452 17.3972 91.5931 19.0667 91.689 20.7283C91.4493 20.968 90.8262 21.0878 89.8197 21.0878C89.2445 21.0878 88.8212 21.0798 88.5496 21.0638L88.262 21.0399L87.8306 21.0159C87.5111 21.0159 87.1036 21.0798 86.6084 21.2076C86.7042 19.8176 86.7522 18.3398 86.7522 16.7741C86.7522 16.151 86.7362 15.2323 86.7042 14.0181L86.6803 12.6281C86.6164 10.9345 86.5844 9.56053 86.5844 8.50606C86.5844 6.92435 86.6563 5.36661 86.8001 3.83284C87.0078 3.80089 87.2315 3.78491 87.4711 3.78491C87.5989 3.78491 87.7747 3.80089 87.9984 3.83284C88.222 3.84882 88.4856 3.84882 88.7892 3.83284C89.62 3.88077 90.283 3.89675 90.7783 3.88077H91.713V4.09646ZM103.762 18.7152C103.762 19.5301 103.674 20.257 103.498 20.8961C102.795 20.8961 101.757 20.9121 100.383 20.944L97.2433 20.968C95.8214 20.968 94.3994 20.92 92.9775 20.8242C92.9935 20.3129 92.9695 18.3238 92.9056 14.8568C92.8577 12.8917 92.8337 11.3819 92.8337 10.3274C92.8337 8.13859 92.8896 6.10155 93.0015 4.21628L95.1104 4.14439C97.475 4.04853 99.2804 4.0006 100.527 4.0006C101.597 4.0006 102.635 4.04054 103.642 4.12042C103.706 4.45593 103.738 4.84737 103.738 5.29472C103.738 5.53437 103.722 5.9258 103.69 6.46901C103.658 6.98027 103.642 7.37969 103.642 7.66727C102.683 7.87497 101.613 7.97882 100.431 7.97882L97.3152 8.00279C97.2353 8.7537 97.1954 9.37679 97.1954 9.87207C97.1954 10.2555 97.2433 10.591 97.3392 10.8786L98.9209 10.6869C99.1446 10.6869 99.4801 10.7029 99.9274 10.7348L100.239 10.7588C100.319 11.2381 100.359 11.7573 100.359 12.3165L100.311 14.2337C99.7996 14.3775 99.1126 14.4494 98.2498 14.4494L97.6268 14.4255C97.5149 14.4255 97.443 14.4414 97.4111 14.4734L97.3152 15.7196C97.3152 16.3746 97.3472 16.9178 97.4111 17.3492C98.2419 17.3492 99.0487 17.3732 99.8316 17.4211C100.103 17.4371 100.439 17.4531 100.838 17.469C101.238 17.485 101.709 17.493 102.252 17.493L103.714 17.4451C103.746 18.18 103.762 18.6034 103.762 18.7152ZM110.483 18.8351C109.476 16.6303 108.813 15.1045 108.494 14.2577V18.859C108.494 19.8496 108.502 20.5286 108.518 20.8961C108.086 21.0239 107.615 21.0878 107.104 21.0878C106.944 21.0878 106.704 21.0718 106.385 21.0399C106.033 21.0079 105.778 20.9919 105.618 20.9919L104.444 20.944V19.1466C104.444 18.1241 104.428 16.6702 104.396 14.7849C104.38 13.8423 104.372 12.4124 104.372 10.4952C104.372 7.9229 104.444 5.76603 104.587 4.02456C105.019 3.91272 105.498 3.8568 106.025 3.8568C106.377 3.8568 106.8 3.88876 107.295 3.95267C107.807 4.01657 108.158 4.11243 108.35 4.24025C108.574 4.65564 108.845 5.2388 109.165 5.98971C109.5 6.72464 109.82 7.45958 110.123 8.19451L111.082 10.3993C111.05 9.28093 111.034 7.96285 111.034 6.44505C111.034 5.21483 111.042 4.36806 111.058 3.90474C111.713 3.77692 112.408 3.71301 113.143 3.71301C113.766 3.71301 114.413 3.78491 115.084 3.9287V20.92C115.036 20.92 114.94 20.944 114.797 20.9919C114.637 21.0558 114.357 21.0878 113.958 21.0878C113.878 21.1038 113.454 21.0798 112.688 21.0159C112.496 20.9999 112.248 20.9839 111.945 20.968C111.657 20.952 111.489 20.952 111.441 20.968L110.483 18.8351ZM120.597 8.12261C120.565 8.18652 120.525 8.68979 120.477 9.63242C120.429 10.5751 120.406 11.5337 120.406 12.5082C120.406 13.4988 120.429 14.3296 120.477 15.0006C120.525 15.432 120.653 15.8554 120.861 16.2708C121.069 16.6702 121.316 16.9418 121.604 17.0856C122.163 17.1176 122.586 16.8619 122.874 16.3187H122.85C122.994 16.0152 123.066 15.5598 123.066 14.9527C123.066 14.4734 123.098 14.0979 123.162 13.8263C123.561 13.8902 123.944 13.9222 124.312 13.9222L125.414 13.8982C125.989 13.8982 126.533 13.9621 127.044 14.09C127.236 14.6491 127.331 15.2323 127.331 15.8394C127.331 16.7501 127.1 17.6128 126.636 18.4277C126.189 19.2425 125.566 19.9055 124.767 20.4168C123.968 20.928 123.082 21.1996 122.107 21.2316C121.819 21.2795 121.484 21.3035 121.1 21.3035C119.854 21.3035 118.76 21.0239 117.817 20.4647C116.875 19.9055 116.347 19.0667 116.236 17.9484C116.156 16.3507 116.116 14.6332 116.116 12.7958C116.116 11.278 116.124 10.0318 116.14 9.05726L116.164 7.97882C116.148 7.73917 116.164 7.46756 116.212 7.164C116.275 6.84447 116.355 6.56487 116.451 6.32522C116.595 5.95776 116.779 5.59029 117.002 5.22282C117.242 4.85536 117.49 4.5518 117.745 4.31214C118.081 4.04054 118.576 3.80887 119.231 3.61715C119.854 3.42543 120.501 3.32957 121.172 3.32957C122.259 3.32957 123.281 3.5852 124.24 4.09646C125.199 4.59174 125.965 5.27874 126.541 6.15747C127.116 7.02021 127.403 7.96285 127.403 8.98536C127.403 9.59248 127.292 10.1996 127.068 10.8067C126.397 10.9505 125.838 11.0224 125.39 11.0224C124.783 11.0224 123.944 10.9186 122.874 10.7109L122.802 9.80018C122.77 9.06525 122.674 8.51405 122.514 8.14658C122.371 7.76314 122.051 7.5794 121.556 7.59538C121.54 7.59538 121.516 7.60337 121.484 7.61934C121.468 7.61934 121.436 7.61934 121.388 7.61934H121.412C120.917 7.69923 120.645 7.86698 120.597 8.12261ZM138.937 18.7152C138.937 19.5301 138.849 20.257 138.674 20.8961C137.971 20.8961 136.932 20.9121 135.558 20.944L132.419 20.968C130.997 20.968 129.575 20.92 128.153 20.8242C128.169 20.3129 128.145 18.3238 128.081 14.8568C128.033 12.8917 128.009 11.3819 128.009 10.3274C128.009 8.13859 128.065 6.10155 128.177 4.21628L130.286 4.14439C132.65 4.04853 134.456 4.0006 135.702 4.0006C136.772 4.0006 137.811 4.04054 138.818 4.12042C138.881 4.45593 138.913 4.84737 138.913 5.29472C138.913 5.53437 138.897 5.9258 138.865 6.46901C138.834 6.98027 138.818 7.37969 138.818 7.66727C137.859 7.87497 136.788 7.97882 135.606 7.97882L132.491 8.00279C132.411 8.7537 132.371 9.37679 132.371 9.87207C132.371 10.2555 132.419 10.591 132.515 10.8786L134.096 10.6869C134.32 10.6869 134.656 10.7029 135.103 10.7348L135.414 10.7588C135.494 11.2381 135.534 11.7573 135.534 12.3165L135.486 14.2337C134.975 14.3775 134.288 14.4494 133.425 14.4494L132.802 14.4255C132.69 14.4255 132.619 14.4414 132.587 14.4734L132.491 15.7196C132.491 16.3746 132.523 16.9178 132.587 17.3492C133.417 17.3492 134.224 17.3732 135.007 17.4211C135.279 17.4371 135.614 17.4531 136.014 17.469C136.413 17.485 136.884 17.493 137.428 17.493L138.889 17.4451C138.921 18.18 138.937 18.6034 138.937 18.7152Z" fill="white"/>
<path d="M71.7393 25.1069C75.3103 24.9771 78.2629 25.6613 80.5957 27.1587C82.9588 28.6233 84.2051 31.1414 84.335 34.7124C84.4188 37.0193 83.7042 39.5611 82.1914 42.3374L82.1904 42.2896C82.1318 42.4183 82.1032 42.5144 82.1055 42.5776C82.109 42.6724 82.209 42.8111 82.4053 42.9937L82.4072 43.0415C83.6632 44.5147 84.5946 45.7462 85.2002 46.7368C85.8047 47.6958 86.1304 48.8392 86.1787 50.1665C86.1982 50.7037 86.1724 51.2899 86.1006 51.9253C85.6972 54.7563 84.4554 56.7322 82.376 57.8521C80.2955 58.9402 77.5963 59.5448 74.2783 59.6655C73.2986 59.7012 70.2256 59.6231 65.0605 59.4312C64.8795 57.0644 64.6945 53.2735 64.5049 48.0591C64.2992 42.4023 64.129 37.2975 63.9951 32.7456L63.7715 26.5835C66.5236 25.6923 69.1796 25.2001 71.7393 25.1069ZM96.3105 25.2104C96.445 28.9079 96.5332 32.6387 96.5752 36.4028C96.6304 41.4006 96.7099 45.3375 96.8145 48.2134C96.9351 51.5316 97.1498 54.8311 97.459 58.1108C97.0019 58.6019 95.7776 58.8832 93.7871 58.9556C92.6497 58.9969 91.8118 59.0116 91.2734 58.9995L90.7031 58.9731L89.8477 58.9565C89.2157 58.9796 88.4147 59.1359 87.4443 59.4243C87.534 56.668 87.5218 53.741 87.4092 50.644C87.3644 49.4115 87.2668 47.5953 87.1162 45.1958L86.9688 42.4478C86.7205 39.1027 86.5592 36.3869 86.4834 34.3013C86.3696 31.1728 86.3992 28.0865 86.5732 25.0425C86.9818 24.9643 87.4234 24.9162 87.8975 24.8989C88.1502 24.8897 88.4988 24.9095 88.9434 24.9565C89.3869 24.9721 89.9086 24.9523 90.5078 24.8989C92.1546 24.934 93.4678 24.9183 94.4463 24.8511L96.2949 24.7837L96.3105 25.2104ZM106.423 24.2729C111.132 24.1017 114.978 24.1359 117.961 24.3755L118.577 24.353C118.679 25.4251 118.748 26.4353 118.782 27.3833C118.849 29.2162 118.798 30.8639 118.63 32.3257C117.58 32.174 116.755 32.1095 116.154 32.1313L113.925 32.1646C113.104 32.1944 112.695 32.2565 112.697 32.3511C112.65 32.7958 112.652 33.7297 112.704 35.1519C112.805 37.9329 113.189 45.4186 113.854 57.6089C112.943 57.8002 111.871 57.9186 110.639 57.9634L109.264 58.0132C107.684 58.0706 106.234 58.234 104.915 58.5034C104.815 58.3488 104.724 58.0356 104.644 57.564C104.594 57.0597 104.576 56.6017 104.593 56.1899L104.509 53.8667L104.401 49.5991C104.192 43.8476 103.862 38.2426 103.41 32.7847C103.057 32.6393 102.564 32.5781 101.932 32.6011L100.037 32.7173C98.9628 32.7563 98.1858 32.7047 97.7061 32.564C97.6044 32.3776 97.5063 31.8589 97.4121 31.0083C97.3179 30.1574 97.251 29.1949 97.2119 28.1206C97.1545 26.5405 97.1284 25.402 97.1348 24.7056L99.1738 24.6313L101.021 24.5171L103.675 24.4204L106.423 24.2729ZM134.754 23.6226C136.871 23.5456 138.928 23.5496 140.925 23.6353C141.075 24.2943 141.167 25.0668 141.199 25.9517C141.216 26.4257 141.213 27.2013 141.188 28.2778C141.162 29.2911 141.159 30.0821 141.18 30.6509C139.299 31.1306 137.189 31.4135 134.851 31.4985L128.689 31.77C128.585 33.2611 128.551 34.4964 128.587 35.4761C128.614 36.2344 128.733 36.8947 128.943 37.4565L132.059 36.9634C132.501 36.9473 133.166 36.9548 134.053 36.9858L134.671 37.0112C134.863 37.9535 134.98 38.9775 135.021 40.0835L135.063 43.8794C134.063 44.2006 132.708 44.3925 131.002 44.4546L129.768 44.4517C129.547 44.4597 129.406 44.4966 129.345 44.562L129.245 47.0337C129.292 48.3294 129.394 49.4018 129.552 50.2505C131.195 50.1907 132.793 50.1798 134.345 50.2183C134.883 50.2303 135.548 50.2379 136.339 50.2407C137.13 50.2436 138.063 50.2261 139.138 50.187L142.025 49.9868C142.141 51.4379 142.204 52.2742 142.212 52.4956C142.271 54.1073 142.149 55.5519 141.848 56.8286C140.457 56.8792 138.404 56.9849 135.688 57.147L129.479 57.4204C126.667 57.5227 123.851 57.5302 121.032 57.4429C121.027 56.4302 120.836 52.4976 120.46 45.645C120.224 41.7616 120.068 38.7767 119.992 36.6909C119.835 32.3614 119.799 28.3275 119.885 24.5903L124.051 24.2964C128.721 23.9367 132.289 23.7122 134.754 23.6226ZM152.882 22.9155C153.462 22.8944 154.031 22.9003 154.588 22.9331C154.486 23.2877 154.431 23.662 154.431 24.0493C154.431 26.2806 156.24 27.2972 158.471 27.2974C159.658 29.1376 161.334 27.6489 162.1 25.8481C162.424 26.1656 162.722 26.5051 162.993 26.8677C163.891 28.0691 164.371 29.5073 164.432 31.1821C164.455 31.8142 164.39 32.6395 164.237 33.6577L163.668 33.6782C162.349 33.9477 161.041 34.1057 159.745 34.1528C158.197 34.2091 156.831 34.0849 155.649 33.7798C155.701 33.4615 155.725 33.2392 155.721 33.1128C155.694 32.386 155.404 31.7948 154.85 31.3403C154.295 30.8858 153.685 30.6707 153.021 30.6948C152.548 30.7121 152.127 30.8859 151.76 31.2153C151.422 31.5124 151.233 31.9632 151.191 32.5659C151.107 32.8537 151.069 33.1085 151.077 33.3296L151.14 33.7544C151.142 33.8174 151.143 33.8491 151.143 33.8491C151.388 34.5045 151.721 34.951 152.141 35.189C152.592 35.4257 153.121 35.5808 153.725 35.6538C155.313 35.8176 156.93 36.3445 158.576 37.2339C160.222 38.1233 161.558 39.1822 162.584 40.4106C163.214 41.2103 163.721 42.1095 164.105 43.1079C164.247 43.4639 164.364 43.8189 164.458 44.1724C164.22 44.1406 163.977 44.1226 163.73 44.1226C160.72 44.1226 162.383 48.6769 159.689 49.5747C159.69 51.5588 160.138 53.2941 161.305 54.2476C160.954 54.5436 160.578 54.8181 160.174 55.0698C158.503 56.1116 156.656 56.6701 154.634 56.7437C154.516 56.748 154.397 56.7498 154.279 56.7515C154.294 56.6271 154.303 56.5008 154.303 56.3726C154.303 54.5662 151.994 54.512 151.032 53.1011C149.531 53.1011 148.267 54.1126 147.882 55.4907C146.233 54.7531 144.855 53.7365 143.75 52.4399C142.494 50.9667 141.892 49.2323 141.946 47.2368L141.932 46.8101C142.842 46.6188 143.85 46.5026 144.956 46.4624C145.904 46.4279 146.711 46.4149 147.376 46.4224C147.978 46.4321 149.052 46.4083 150.601 46.3521C150.667 47.299 150.978 48.0316 151.535 48.5493C152.123 49.0658 152.781 49.311 153.508 49.2847C154.14 49.2617 154.654 49.0366 155.05 48.6108C155.477 48.184 155.677 47.5918 155.649 46.8335C155.639 46.5491 155.615 46.3282 155.578 46.1714C155.378 45.0078 154.794 44.2067 153.829 43.7671C152.864 43.3276 151.569 42.9786 149.946 42.7212L149.23 42.605C147.862 42.4016 146.658 41.8912 145.615 41.0747C144.437 40.01 143.541 38.8562 142.926 37.6128C142.311 36.3694 141.981 35.1152 141.935 33.8511C141.86 31.7972 142.406 29.8474 143.573 28.0015C144.771 26.1226 146.35 24.7354 148.311 23.8413C149.525 23.2908 151.049 22.9822 152.882 22.9155ZM73.2197 46.2231C73.125 46.2266 73.0148 46.2466 72.8896 46.2827C72.7948 46.2862 72.6832 46.2746 72.5557 46.2476C72.2879 47.5863 72.1724 48.7455 72.208 49.7251C72.2494 50.8626 72.4547 51.7414 72.8252 52.3608C73.9639 52.3511 74.848 52.2872 75.4766 52.1694C76.1356 52.0189 76.6767 51.667 77.0996 51.1138C77.3093 50.7897 77.4014 50.2643 77.375 49.5376C77.3555 49.0004 77.239 48.4186 77.0264 47.7935L77.0283 47.8413C76.8577 47.4995 76.6248 47.1915 76.3301 46.9175C76.0354 46.6435 75.7447 46.4802 75.458 46.4272C74.9478 46.3192 74.2016 46.2507 73.2197 46.2231ZM71.9395 33.2163C72.0538 33.7501 72.1316 34.5703 72.1719 35.6763L72.2334 37.3833C72.2621 38.1732 72.3009 38.7888 72.3486 39.23L73.7227 39.1802C75.1131 39.1296 76.0444 38.6212 76.5156 37.6548C76.8988 36.8816 77.0816 36.2577 77.0645 35.7837C77.0541 35.4993 76.9813 35.2321 76.8457 34.9839C76.3395 34.1164 75.719 33.6012 74.9854 33.438C74.4775 33.3932 74.0813 33.3759 73.7969 33.3862C72.973 33.3529 72.3537 33.2962 71.9395 33.2163Z" fill="white"/>
<g style="mix-blend-mode:multiply">
<ellipse cx="39.3207" cy="59.958" rx="14.6586" ry="2.74848" fill="#586E5D" fill-opacity="0.15"/>
</g>
<rect x="47.5332" y="46.8579" width="9.9191" height="26.8359" rx="4.95955" transform="rotate(-136.984 47.5332 46.8579)" fill="#7839C9"/>
<path d="M56.0611 37.718C54.1925 39.7207 51.0542 39.8294 49.0515 37.9608C47.0488 36.0922 46.9401 32.9539 48.8087 30.9512L55.0657 24.2451L62.3181 31.0119L56.0611 37.718Z" fill="#89C6FF"/>
<path d="M34.6262 12.6702C36.6698 11.4419 37.3635 8.74587 35.7932 6.95161V6.95161C34.881 5.90928 33.9352 5.03248 33.0099 4.37126C32.0846 3.71003 31.1978 3.27734 30.4003 3.09788C29.6027 2.91843 28.9099 2.99572 28.3615 3.32535C27.8131 3.65498 27.4198 4.2305 27.2041 5.01903C26.9884 5.80756 26.9544 6.79368 27.1042 7.92107C27.254 9.04846 27.5845 10.295 28.077 11.5897V11.5897C28.9248 13.8182 31.6311 14.4705 33.6747 13.2421L34.1504 12.9562L34.6262 12.6702Z" fill="#7839C9"/>
<path d="M29.2326 16.6596C30.9989 15.058 31.1563 12.2786 29.2677 10.8232V10.8232C28.1705 9.97773 27.0726 9.30114 26.0365 8.83207C25.0005 8.36299 24.0466 8.11062 23.2293 8.08936C22.4121 8.0681 21.7475 8.27837 21.2735 8.70816C20.7995 9.13795 20.5254 9.77884 20.4668 10.5943C20.4082 11.4097 20.5663 12.3836 20.932 13.4605C21.2977 14.5374 21.8639 15.6961 22.5983 16.8706V16.8706C23.8624 18.8922 26.6439 19.0069 28.4102 17.4053L28.8214 17.0325L29.2326 16.6596Z" fill="#7839C9"/>
<path d="M29.9518 21.3355C30.5987 19.0406 29.2568 16.6015 26.8837 16.3705V16.3705C25.5051 16.2363 24.2154 16.2457 23.0884 16.3981C21.9613 16.5504 21.019 16.8429 20.3151 17.2586C19.6112 17.6744 19.1595 18.2053 18.9859 18.8212C18.8123 19.437 18.9202 20.1257 19.3033 20.8479C19.6865 21.57 20.3374 22.3116 21.219 23.0301C22.1005 23.7487 23.1954 24.4302 24.4412 25.0357V25.0357C26.5856 26.0781 29.0038 24.6989 29.6507 22.404L29.8012 21.8698L29.9518 21.3355Z" fill="#7839C9"/>
<path d="M29.486 49.9693H17.5117C11.3676 49.9693 6.38672 44.9884 6.38672 38.8443V35.6002C6.38672 31.2476 9.91513 27.7192 14.2676 27.7192H15.0829C18.9852 27.7192 22.1486 30.8826 22.1486 34.7849V37.995C22.1486 40.1244 20.4224 41.8506 18.293 41.8506C16.1637 41.8506 14.4375 40.1244 14.4375 37.995V36.6532" stroke="#6627B7" stroke-width="4.26874" stroke-linecap="round"/>
<path d="M21.4688 21.8855C21.4688 13.3929 28.3533 6.5083 36.8459 6.5083H39.9252C48.4178 6.5083 55.3024 13.3929 55.3024 21.8855V44.7029C55.3024 49.1234 51.7189 52.7068 47.2985 52.7068H29.4727C25.0522 52.7068 21.4688 49.1234 21.4688 44.7029V21.8855Z" fill="#7839C9"/>
<rect x="39.6426" y="39.2007" width="9.85116" height="20.3138" rx="4.92558" fill="#7839C9"/>
<rect x="28.8066" y="39.2007" width="9.85116" height="20.3138" rx="4.92558" fill="#7839C9"/>
<path d="M21.4688 35.2607H41.7275C42.2153 35.2607 42.7014 35.3197 43.175 35.4363L43.2899 35.4646C44.1955 35.6875 45.1425 35.6803 46.0446 35.4437C46.5077 35.3222 46.9844 35.2607 47.4631 35.2607H55.3024V44.7172C55.3024 49.1376 51.7189 52.7211 47.2985 52.7211H29.4727C25.0522 52.7211 21.4688 49.1376 21.4688 44.7172V35.2607Z" fill="#97CDFF"/>
<path d="M21.4688 44.6362H55.3024V44.7171C55.3024 49.1375 51.7189 52.721 47.2985 52.721H29.4727C25.0522 52.721 21.4688 49.1375 21.4688 44.7171V44.6362Z" fill="#5A4FDC"/>
<path d="M32.9512 35.2607H36.3481V48.2371H32.9512V35.2607Z" fill="#5A4FDC"/>
<path d="M50.6816 35.2607H54.0786V48.2371H50.6816V35.2607Z" fill="#5A4FDC"/>
<rect x="24.2539" y="32.2583" width="4.51129" height="3.20156" rx="0.63061" fill="#FFCE00"/>
<rect x="24.7383" y="32.2583" width="4.0262" height="2.2799" rx="0.508556" fill="#FFD93A"/>
<rect x="21.4688" y="35.2603" width="9.9191" height="19.2947" rx="4.95955" fill="#7839C9"/>
<path d="M21.4688 40.2198C21.4688 37.4807 23.6892 35.2603 26.4283 35.2603C29.1674 35.2603 31.3878 37.4807 31.3878 40.2198V49.3916H21.4688V40.2198Z" fill="#97CDFF"/>
<path d="M41.0667 12.5348C43.451 12.5348 45.427 10.5895 45.0541 8.23446C45.0277 8.06775 44.9997 7.90219 44.9702 7.73791C44.6971 6.21712 44.2967 4.8353 43.792 3.67134C43.2873 2.50738 42.6881 1.58408 42.0287 0.954151C41.3693 0.324221 40.6625 -7.19527e-08 39.9488 0C39.235 7.19528e-08 38.5283 0.324221 37.8689 0.954151C37.2094 1.58408 36.6103 2.50738 36.1056 3.67134C35.6009 4.8353 35.2005 6.21712 34.9274 7.73791C34.8979 7.90219 34.8699 8.06775 34.8435 8.23446C34.4706 10.5895 36.4466 12.5348 38.8309 12.5348L39.9488 12.5348H41.0667Z" fill="#A25FF8"/>
<path d="M40.2812 29.6746C40.4526 29.1739 40.9617 28.8713 41.4834 28.96L42.4623 29.1265C43.9335 29.3767 45.4363 29.3783 46.908 29.1313L48.0277 28.9433C48.5133 28.8618 48.9951 29.107 49.215 29.5476C49.4364 29.9913 49.4402 30.5125 49.2251 30.9593L49.1558 31.1032C48.9565 31.5171 48.6028 31.8364 48.1707 31.9924L47.8677 32.1018C45.8115 32.8441 43.5597 32.8394 41.5067 32.0885L41.3601 32.0349C40.8664 31.8543 40.4824 31.4579 40.3176 30.9587L40.2749 30.8295C40.151 30.4541 40.1533 30.0486 40.2812 29.6746Z" fill="#242424"/>
<mask id="mask0_8284_22026" style="mask-type:alpha" maskUnits="userSpaceOnUse" x="40" y="28" width="10" height="5">
<path d="M40.2812 29.6746C40.4526 29.1739 40.9617 28.8713 41.4834 28.96L42.4623 29.1265C43.9335 29.3767 45.4363 29.3783 46.908 29.1313L48.0277 28.9433C48.5133 28.8618 48.9951 29.107 49.215 29.5476C49.4364 29.9913 49.4402 30.5125 49.2251 30.9593L49.1558 31.1032C48.9565 31.5171 48.6028 31.8364 48.1707 31.9924L47.8677 32.1018C45.8115 32.8441 43.5597 32.8394 41.5067 32.0885L41.3601 32.0349C40.8664 31.8543 40.4824 31.4579 40.3176 30.9587L40.2749 30.8295C40.151 30.4541 40.1533 30.0486 40.2812 29.6746Z" fill="#E8E8E8"/>
</mask>
<g mask="url(#mask0_8284_22026)">
<circle cx="44.7983" cy="34.4575" r="3.66161" fill="#FF8761"/>
<rect x="42.3633" y="28.0864" width="1.73556" height="2.2012" rx="0.867781" fill="white"/>
<rect x="45.2422" y="27.8325" width="1.86255" height="2.41285" rx="0.931277" fill="white"/>
</g>
<circle cx="36.9253" cy="20.4839" r="6.55612" fill="#F3F7FE"/>
<ellipse cx="34.2414" cy="27.5497" rx="3.60077" ry="2.07214" fill="#FF8A8A"/>
<circle cx="38.1133" cy="20.9253" r="3.46489" fill="#442005"/>
<circle cx="39.4055" cy="19.7703" r="0.747329" fill="#F3F7FE"/>
<circle cx="51.1245" cy="20.4839" r="6.55612" fill="#F3F7FE"/>
<circle cx="51.8379" cy="20.9253" r="3.46489" fill="#442005"/>
<circle cx="53.1282" cy="19.7703" r="0.747329" fill="#F3F7FE"/>
<ellipse cx="54.759" cy="27.5497" rx="3.60077" ry="2.07214" fill="#FF8A8A"/>
<ellipse cx="165.973" cy="45.9188" rx="0.641321" ry="0.513057" fill="#2C2C2C"/>
<ellipse cx="165.077" cy="47.3295" rx="0.641321" ry="0.513057" fill="#2C2C2C"/>
<ellipse cx="163.151" cy="55.0253" rx="0.641321" ry="0.513057" fill="#2C2C2C"/>
<ellipse cx="166.358" cy="54.2557" rx="0.641321" ry="0.513057" fill="#2C2C2C"/>
</svg>
