<svg width="526" height="526" viewBox="0 0 526 526" fill="none" xmlns="http://www.w3.org/2000/svg">
<rect width="526" height="525.933" rx="45" fill="#813BBA"/>
<g style="mix-blend-mode:soft-light" opacity="0.2" clip-path="url(#clip0_8284_23055)">
<path d="M269.084 227.42H260.055L244.547 0H284.592L269.084 227.42Z" fill="url(#paint0_radial_8284_23055)"/>
<path d="M278.059 230.193L269.338 227.857L313.157 4.16162L351.843 14.5161L278.059 230.193Z" fill="url(#paint1_radial_8284_23055)"/>
<path d="M286.015 235.192L278.191 230.681L378.364 25.9224L413.056 45.9284L286.015 235.192Z" fill="url(#paint2_radial_8284_23055)"/>
<path d="M292.405 242.078L286.016 235.699L435.725 63.8022L464.064 92.0975L292.405 242.078Z" fill="url(#paint3_radial_8284_23055)"/>
<path d="M296.799 250.382L292.275 242.566L481.34 115.226L501.4 149.887L296.799 250.382Z" fill="url(#paint4_radial_8284_23055)"/>
<path d="M298.898 259.541L296.549 250.82L512.107 176.697L522.524 215.365L298.898 259.541Z" fill="url(#paint5_radial_8284_23055)"/>
<path d="M298.554 268.929L298.541 259.898L525.935 244.03L525.999 284.078L298.554 268.929Z" fill="url(#paint6_radial_8284_23055)"/>
<path d="M295.797 277.91L298.118 269.182L521.883 312.649L511.59 351.351L295.797 277.91Z" fill="url(#paint7_radial_8284_23055)"/>
<path d="M290.811 285.872L295.308 278.042L500.225 377.889L480.276 412.613L290.811 285.872Z" fill="url(#paint8_radial_8284_23055)"/>
<path d="M283.936 292.273L290.304 285.874L462.436 435.308L434.187 463.694L283.936 292.273Z" fill="url(#paint9_radial_8284_23055)"/>
<path d="M275.639 296.681L283.447 292.145L411.085 481.008L376.457 501.122L275.639 296.681Z" fill="url(#paint10_radial_8284_23055)"/>
<path d="M266.484 298.793L275.2 296.43L349.667 511.872L311.015 522.348L266.484 298.793Z" fill="url(#paint11_radial_8284_23055)"/>
<path d="M257.092 298.464L266.123 298.436L282.353 525.807L242.305 525.933L257.092 298.464Z" fill="url(#paint12_radial_8284_23055)"/>
<path d="M248.109 295.722L256.84 298.028L213.727 521.862L175.01 511.629L248.109 295.722Z" fill="url(#paint13_radial_8284_23055)"/>
<path d="M240.138 290.746L247.975 295.233L148.454 500.308L113.699 480.413L240.138 290.746Z" fill="url(#paint14_radial_8284_23055)"/>
<path d="M233.723 283.881L240.134 290.242L90.9727 462.609L62.543 434.404L233.723 283.881Z" fill="url(#paint15_radial_8284_23055)"/>
<path d="M229.304 275.591L233.853 283.392L45.1949 411.33L25.0234 376.733L229.304 275.591Z" fill="url(#paint16_radial_8284_23055)"/>
<path d="M227.179 266.439L229.554 275.153L14.2314 349.961L3.69336 311.324L227.179 266.439Z" fill="url(#paint17_radial_8284_23055)"/>
<path d="M227.492 257.051L227.533 266.08L0.191272 282.669L0 242.623L227.492 257.051Z" fill="url(#paint18_radial_8284_23055)"/>
<path d="M230.22 248.062L227.928 256.796L4.02344 214.036L14.1944 175.304L230.22 248.062Z" fill="url(#paint19_radial_8284_23055)"/>
<path d="M235.181 240.083L230.707 247.927L25.4746 148.73L45.3152 113.941L235.181 240.083Z" fill="url(#paint20_radial_8284_23055)"/>
<path d="M242.035 233.66L235.687 240.08L63.082 91.1906L91.2429 62.7144L242.035 233.66Z" fill="url(#paint21_radial_8284_23055)"/>
<path d="M250.321 229.227L242.528 233.786L114.291 45.3291L148.854 25.106L250.321 229.227Z" fill="url(#paint22_radial_8284_23055)"/>
<path d="M259.47 227.084L250.762 229.475L175.613 14.2705L214.235 3.67041L259.47 227.084Z" fill="url(#paint23_radial_8284_23055)"/>
</g>
<g style="mix-blend-mode:multiply">
<ellipse cx="142.52" cy="19.9213" rx="142.52" ry="19.9213" transform="matrix(-1 0 0 1 404.041 291.166)" fill="#E4DEEE"/>
</g>
<path d="M383.028 309.005L383.019 309.196C382.179 317.309 328.158 323.854 261.641 323.854C195.124 323.853 141.103 317.309 140.264 309.196L140.254 309.005V283.02H383.028V309.005Z" fill="#5D29A2"/>
<ellipse cx="261.641" cy="283.019" rx="121.387" ry="14.8486" fill="#A662FF"/>
<g style="mix-blend-mode:multiply" opacity="0.5">
<ellipse cx="97.2433" cy="13.7735" rx="97.2433" ry="13.7735" transform="matrix(-1 0 0 1 358.766 263.716)" fill="#A561FF"/>
</g>
<path d="M356.304 274.854L356.296 275.045C355.644 283.157 313.683 289.702 262.016 289.702C210.348 289.702 168.386 283.157 167.734 275.045L167.727 274.854V248.868H356.304V274.854Z" fill="#5D29A2"/>
<ellipse cx="262.015" cy="248.868" rx="94.2884" ry="14.8486" fill="#A662FF"/>
<g style="mix-blend-mode:multiply" opacity="0.5">
<ellipse cx="261.643" cy="244.933" rx="75.981" ry="5.03741" fill="#A5D68D"/>
</g>
<path d="M227.501 149.932C226.606 148.59 225.1 147.785 223.49 147.785C221.881 147.785 220.374 148.59 219.479 149.932L207.586 167.286L223.49 190.222L238.018 165.708L227.501 149.932Z" fill="#FF641A"/>
<path d="M304.638 149.932C302.849 147.248 298.405 147.248 296.616 149.932L286.098 165.708L300.627 190.222L316.531 167.286L304.638 149.932Z" fill="#F03800"/>
<path d="M334.699 162.249L319.658 243.681H204.469L189.428 162.249L204.469 155.981L223.11 169.015L252.228 119.239H271.899L301.017 169.015L319.658 155.981L334.699 162.249Z" fill="#FCCC11"/>
<path d="M262.299 230.34C265.244 230.34 267.632 227.592 267.632 224.204C267.632 220.815 265.244 218.067 262.299 218.067C259.354 218.067 256.967 220.815 256.967 224.204C256.967 227.592 259.354 230.34 262.299 230.34Z" fill="#F7B818"/>
<path d="M249.06 224.204C249.057 225.015 248.846 225.808 248.452 226.481C248.058 227.154 247.5 227.678 246.847 227.986C246.195 228.295 245.477 228.374 244.786 228.213C244.095 228.053 243.46 227.661 242.962 227.086C242.465 226.511 242.126 225.779 241.989 224.982C241.853 224.186 241.924 223.361 242.195 222.612C242.465 221.862 242.923 221.222 243.51 220.771C244.096 220.321 244.786 220.08 245.491 220.08C245.961 220.08 246.426 220.187 246.86 220.394C247.294 220.602 247.688 220.906 248.02 221.289C248.351 221.672 248.614 222.127 248.793 222.627C248.971 223.127 249.062 223.663 249.06 224.204Z" fill="#F7B818"/>
<path d="M237.558 224.204C237.561 225.017 237.354 225.814 236.963 226.492C236.572 227.169 236.014 227.698 235.362 228.011C234.709 228.324 233.99 228.407 233.296 228.249C232.603 228.091 231.965 227.699 231.465 227.124C230.965 226.549 230.625 225.815 230.488 225.017C230.351 224.219 230.422 223.392 230.694 222.641C230.966 221.89 231.426 221.248 232.015 220.798C232.604 220.348 233.296 220.11 234.003 220.113C234.946 220.113 235.85 220.544 236.517 221.311C237.184 222.078 237.558 223.119 237.558 224.204Z" fill="#F7B818"/>
<path d="M226.068 224.204C226.071 225.017 225.864 225.814 225.472 226.492C225.081 227.169 224.524 227.698 223.871 228.011C223.219 228.324 222.5 228.407 221.806 228.249C221.112 228.091 220.475 227.699 219.975 227.124C219.475 226.549 219.135 225.815 218.998 225.017C218.86 224.219 218.932 223.392 219.204 222.641C219.476 221.89 219.936 221.248 220.525 220.798C221.114 220.348 221.806 220.11 222.513 220.113C223.456 220.113 224.36 220.544 225.027 221.311C225.693 222.078 226.068 223.119 226.068 224.204Z" fill="#F7B818"/>
<path d="M214.576 224.204C214.573 225.015 214.361 225.808 213.967 226.481C213.574 227.154 213.015 227.678 212.363 227.986C211.71 228.295 210.993 228.374 210.302 228.213C209.61 228.053 208.976 227.661 208.478 227.086C207.98 226.511 207.642 225.779 207.505 224.982C207.368 224.186 207.44 223.361 207.711 222.612C207.981 221.862 208.439 221.222 209.025 220.771C209.612 220.321 210.301 220.08 211.007 220.08C211.477 220.08 211.942 220.187 212.376 220.394C212.81 220.602 213.204 220.906 213.535 221.289C213.867 221.672 214.13 222.127 214.308 222.627C214.487 223.127 214.578 223.663 214.576 224.204V224.204Z" fill="#F7B818"/>
<path d="M317.129 224.204C317.131 225.017 316.924 225.814 316.533 226.492C316.142 227.169 315.585 227.698 314.932 228.011C314.279 228.324 313.56 228.407 312.867 228.249C312.173 228.091 311.536 227.699 311.036 227.124C310.536 226.549 310.195 225.815 310.058 225.017C309.921 224.219 309.993 223.392 310.265 222.641C310.537 221.89 310.996 221.248 311.585 220.798C312.174 220.348 312.866 220.11 313.574 220.113C314.516 220.113 315.421 220.544 316.087 221.311C316.754 222.078 317.129 223.119 317.129 224.204Z" fill="#F7B818"/>
<path d="M305.64 224.204C305.637 225.016 305.425 225.809 305.031 226.483C304.636 227.156 304.077 227.68 303.424 227.988C302.771 228.296 302.053 228.374 301.361 228.212C300.669 228.051 300.034 227.656 299.537 227.08C299.04 226.503 298.703 225.77 298.568 224.972C298.433 224.175 298.506 223.35 298.779 222.6C299.052 221.851 299.512 221.212 300.1 220.763C300.689 220.315 301.379 220.077 302.085 220.08C302.555 220.08 303.019 220.187 303.452 220.395C303.886 220.602 304.279 220.906 304.609 221.29C304.94 221.673 305.201 222.128 305.378 222.628C305.555 223.128 305.644 223.664 305.64 224.204V224.204Z" fill="#F7B818"/>
<path d="M294.15 224.204C294.147 225.015 293.936 225.808 293.542 226.481C293.148 227.154 292.589 227.678 291.937 227.986C291.284 228.295 290.567 228.374 289.876 228.213C289.184 228.053 288.55 227.661 288.052 227.086C287.554 226.511 287.216 225.779 287.079 224.982C286.943 224.186 287.014 223.361 287.285 222.612C287.555 221.862 288.013 221.222 288.599 220.771C289.186 220.321 289.876 220.08 290.581 220.08C291.051 220.08 291.516 220.187 291.95 220.394C292.384 220.602 292.778 220.906 293.11 221.289C293.441 221.672 293.704 222.127 293.882 222.627C294.061 223.127 294.152 223.663 294.15 224.204V224.204Z" fill="#F7B818"/>
<path d="M282.66 224.204C282.657 225.015 282.445 225.808 282.051 226.481C281.658 227.154 281.099 227.678 280.447 227.986C279.794 228.295 279.077 228.374 278.386 228.213C277.694 228.053 277.06 227.661 276.562 227.086C276.064 226.511 275.726 225.779 275.589 224.982C275.452 224.186 275.524 223.361 275.795 222.612C276.065 221.862 276.523 221.222 277.109 220.771C277.696 220.321 278.385 220.08 279.091 220.08C279.561 220.08 280.026 220.187 280.46 220.394C280.894 220.602 281.288 220.906 281.619 221.289C281.951 221.672 282.214 222.127 282.392 222.627C282.571 223.127 282.662 223.663 282.66 224.204Z" fill="#F7B818"/>
<path d="M194.248 167.069C186.273 167.069 179.785 160.581 179.785 152.606C179.785 144.631 186.273 138.143 194.248 138.143C202.223 138.143 208.711 144.631 208.711 152.606C208.711 160.581 202.223 167.069 194.248 167.069Z" fill="#FDBF00"/>
<path d="M329.877 167.069C321.902 167.069 315.414 160.581 315.414 152.606C315.414 144.631 321.902 138.143 329.877 138.143C337.852 138.143 344.34 144.631 344.34 152.606C344.34 160.581 337.852 167.069 329.877 167.069Z" fill="#FDBF00"/>
<path d="M262.064 99.2852C254.061 99.2852 247.602 105.744 247.602 113.748C247.602 121.75 254.061 128.211 262.064 128.211C270.068 128.211 276.527 121.75 276.527 113.748C276.527 105.744 270.068 99.2852 262.064 99.2852Z" fill="#FDBF00"/>
<path d="M324.381 242.204C324.381 243.958 322.775 245.337 320.73 245.337H203.396C201.35 245.337 199.744 243.958 199.744 242.204C199.744 240.45 201.35 239.072 203.396 239.072H320.73C322.775 239.072 324.381 240.45 324.381 242.204Z" fill="#F7B818"/>
<path d="M334.7 202.504C334.7 204.258 332.828 205.636 330.444 205.636H193.684C191.3 205.636 189.428 204.258 189.428 202.504C189.428 200.749 191.3 199.371 193.684 199.371H330.444C332.828 199.371 334.7 200.749 334.7 202.504Z" fill="#F7B818"/>
<path d="M285.397 188.282L265.921 162.828C264.957 161.67 263.606 160.996 262.064 160.996C260.521 160.996 259.172 161.67 258.206 162.924L238.922 188.282C237.669 189.921 237.669 192.139 238.73 193.874L258.014 222.8C258.978 224.149 260.424 224.922 262.063 224.922C263.703 224.922 265.149 224.149 266.016 222.8L285.59 193.874C286.748 192.139 286.651 189.922 285.397 188.282Z" fill="#F03800"/>
<path d="M266.884 191.174C266.884 193.873 264.764 195.994 262.063 195.994C259.363 195.994 257.242 193.873 257.242 191.174C257.242 188.473 259.363 186.353 262.063 186.353C264.764 186.353 266.884 188.473 266.884 191.174Z" fill="#F03800"/>
<path fill-rule="evenodd" clip-rule="evenodd" d="M262.173 197.78C259.472 197.78 257.352 195.658 257.352 192.959C257.352 190.258 259.472 188.138 262.173 188.138C264.873 188.138 266.993 190.258 266.993 192.959C266.993 195.658 264.873 197.78 262.173 197.78Z" fill="#CD0000"/>
<path d="M201.183 137.44L199.758 136.66C199.68 136.618 199.617 136.554 199.574 136.477L198.795 135.051C198.62 134.732 198.161 134.732 197.986 135.051L197.206 136.477C197.164 136.554 197.1 136.618 197.023 136.66L195.597 137.44C195.278 137.615 195.278 138.074 195.597 138.249L197.023 139.028C197.1 139.071 197.164 139.134 197.206 139.212L197.986 140.637C198.161 140.957 198.62 140.957 198.795 140.637L199.574 139.212C199.617 139.134 199.68 139.071 199.758 139.028L201.183 138.249C201.503 138.074 201.503 137.615 201.183 137.44Z" fill="white"/>
<path d="M265.183 98.1715L261.507 96.1609C261.308 96.052 261.144 95.8881 261.035 95.6885L259.024 92.0125C258.573 91.1885 257.39 91.1885 256.939 92.0125L254.929 95.6885C254.82 95.8878 254.656 96.0518 254.456 96.1609L250.78 98.1715C249.956 98.6223 249.956 99.8058 250.78 100.257L254.456 102.267C254.655 102.376 254.819 102.54 254.929 102.74L256.939 106.416C257.39 107.24 258.573 107.24 259.024 106.416L261.035 102.74C261.144 102.54 261.308 102.376 261.507 102.267L265.183 100.257C266.007 99.8058 266.007 98.6221 265.183 98.1715Z" fill="white"/>
<path d="M344.141 196.1L339.404 193.509C339.147 193.369 338.936 193.158 338.796 192.901L336.205 188.164C335.624 187.103 334.1 187.103 333.519 188.164L330.928 192.901C330.788 193.157 330.577 193.369 330.32 193.509L325.583 196.1C324.522 196.681 324.522 198.205 325.583 198.786L330.32 201.377C330.576 201.517 330.788 201.728 330.928 201.985L333.519 206.722C334.1 207.783 335.624 207.783 336.205 206.722L338.796 201.985C338.936 201.729 339.147 201.517 339.404 201.377L344.141 198.786C345.202 198.205 345.202 196.68 344.141 196.1Z" fill="white"/>
<path d="M279.644 176.39L277.54 175.239C277.426 175.177 277.332 175.083 277.27 174.969L276.119 172.866C275.862 172.394 275.184 172.394 274.926 172.866L273.776 174.969C273.714 175.083 273.62 175.177 273.506 175.239L271.402 176.39C270.931 176.648 270.931 177.325 271.402 177.583L273.506 178.733C273.62 178.796 273.714 178.889 273.776 179.004L274.926 181.107C275.184 181.578 275.862 181.578 276.119 181.107L277.27 179.004C277.332 178.89 277.426 178.796 277.54 178.733L279.644 177.583C280.115 177.325 280.115 176.648 279.644 176.39Z" fill="white"/>
<path d="M326.279 138.279L324.853 137.5C324.776 137.457 324.712 137.394 324.67 137.316L323.89 135.891C323.715 135.571 323.256 135.571 323.082 135.891L322.302 137.316C322.26 137.394 322.196 137.457 322.119 137.5L320.693 138.279C320.373 138.454 320.373 138.913 320.693 139.088L322.119 139.868C322.196 139.91 322.259 139.974 322.302 140.051L323.082 141.477C323.256 141.796 323.715 141.796 323.89 141.477L324.67 140.051C324.712 139.974 324.776 139.91 324.853 139.868L326.279 139.088C326.599 138.913 326.599 138.454 326.279 138.279Z" fill="white"/>
<path d="M184.769 187.001L183.344 186.221C183.266 186.179 183.203 186.115 183.16 186.038L182.38 184.612C182.206 184.293 181.747 184.293 181.572 184.612L180.792 186.038C180.75 186.115 180.686 186.179 180.609 186.221L179.183 187.001C178.863 187.176 178.863 187.635 179.183 187.81L180.609 188.589C180.686 188.632 180.75 188.695 180.792 188.773L181.572 190.198C181.747 190.518 182.206 190.518 182.38 190.198L183.16 188.773C183.203 188.695 183.266 188.632 183.344 188.589L184.769 187.81C185.089 187.635 185.089 187.176 184.769 187.001Z" fill="white"/>
<path d="M229.269 241.876L227.165 240.726C227.051 240.663 226.957 240.57 226.895 240.455L225.744 238.352C225.487 237.881 224.809 237.881 224.551 238.352L223.401 240.455C223.339 240.57 223.245 240.663 223.131 240.726L221.027 241.876C220.556 242.134 220.556 242.811 221.027 243.069L223.131 244.22C223.245 244.282 223.339 244.376 223.401 244.49L224.551 246.593C224.809 247.065 225.487 247.065 225.744 246.593L226.895 244.49C226.957 244.376 227.051 244.282 227.165 244.22L229.269 243.069C229.74 242.811 229.74 242.134 229.269 241.876Z" fill="white"/>
<path d="M393.249 137.313C393.171 137.444 393.067 137.557 392.943 137.645L392.054 138.278C391.898 138.388 391.717 138.457 391.527 138.476C391.337 138.495 391.145 138.465 390.971 138.387L377.41 132.395C377.268 132.332 377.113 132.3 376.957 132.301C376.802 132.302 376.648 132.336 376.506 132.402C372.69 134.173 371.188 131.035 370.769 129.837C370.719 129.696 370.641 129.566 370.539 129.456C370.437 129.346 370.314 129.259 370.177 129.198L354.807 122.406C354.571 122.302 354.379 122.118 354.264 121.887C354.15 121.655 354.121 121.391 354.181 121.14L359.751 98.2033C359.814 97.9461 359.967 97.72 360.183 97.5662L361.109 96.9069C361.256 96.8021 361.427 96.7353 361.606 96.7124L361.606 96.7115C361.826 96.6837 362.049 96.7224 362.247 96.8227L395.138 113.564C395.336 113.665 395.499 113.824 395.606 114.019C395.712 114.215 395.757 114.438 395.734 114.659L393.399 136.863C393.383 137.023 393.332 137.176 393.249 137.313V137.313Z" fill="#FFE262"/>
<path d="M393.249 137.313C393.171 137.444 393.067 137.557 392.944 137.645L392.054 138.278C391.898 138.388 391.717 138.457 391.527 138.476C391.337 138.495 391.145 138.464 390.971 138.387L377.41 132.395C377.268 132.332 377.113 132.3 376.958 132.301C376.802 132.302 376.648 132.336 376.506 132.401C372.69 134.173 371.188 131.035 370.769 129.837C370.719 129.695 370.641 129.566 370.539 129.456C370.437 129.346 370.314 129.258 370.177 129.198L354.807 122.406C354.571 122.302 354.379 122.118 354.265 121.886C354.15 121.655 354.121 121.391 354.182 121.14L359.751 98.2031C359.814 97.9459 359.967 97.7198 360.183 97.566L361.109 96.9067C361.256 96.8019 361.427 96.7351 361.606 96.7122L355.986 119.855C355.925 120.106 355.954 120.371 356.068 120.602C356.182 120.834 356.374 121.018 356.61 121.122L371.253 127.593C371.39 127.653 371.513 127.741 371.615 127.851C371.717 127.961 371.796 128.09 371.845 128.232C372.265 129.429 373.767 132.567 377.582 130.796C377.724 130.731 377.878 130.696 378.034 130.695C378.19 130.694 378.344 130.726 378.486 130.79L393.249 137.313Z" fill="#F6D14F"/>
<path d="M392.01 134.654L378.658 128.754C378.503 128.686 378.337 128.65 378.168 128.649C378 128.648 377.833 128.681 377.678 128.747C376.631 129.186 374.1 129.877 373.164 126.796C373.113 126.626 373.025 126.469 372.908 126.336C372.79 126.203 372.645 126.097 372.483 126.025L359.207 120.158L363.65 99.0925C363.65 99.0925 375.217 94.6158 379.318 106.617C379.318 106.617 389.488 101.887 394.675 112.8L392.01 134.654Z" fill="#EEECFF"/>
<path d="M379.318 106.617L378.887 101.737L371.528 123.215L375.785 126.607L379.318 106.617Z" fill="#D3D3FF"/>
<path d="M392.01 134.654L378.657 128.753C378.503 128.686 378.336 128.65 378.168 128.649C377.999 128.648 377.832 128.681 377.677 128.746C376.631 129.186 374.1 129.877 373.164 126.796C373.112 126.626 373.025 126.469 372.907 126.336C372.79 126.203 372.645 126.097 372.483 126.025L359.206 120.158C359.206 120.158 370.352 115.594 375.784 126.607C375.784 126.607 388.019 122.678 392.01 134.654V134.654Z" fill="#D3D3FF"/>
<path d="M134.302 169.938C133.386 169.793 128.771 168.953 127.808 166.721C127.577 166.187 127.445 165.34 128.124 164.342C128.911 163.187 129.813 163.017 130.429 163.077C132.86 163.316 134.888 167.801 135.271 168.698C135.547 169.347 134.999 170.05 134.302 169.938V169.938ZM129.611 165.355C129.345 165.745 129.425 165.93 129.459 166.008C129.758 166.703 131.294 167.349 132.811 167.77C131.951 166.235 130.915 164.932 130.253 164.867C129.998 164.843 129.755 165.143 129.611 165.355V165.355Z" fill="#D0E8FE"/>
<path d="M124.197 176.439C124.197 180.378 121.004 183.571 117.065 183.571C113.126 183.571 109.934 180.378 109.934 176.439C109.934 172.501 113.126 169.308 117.065 169.308C121.004 169.308 124.197 172.501 124.197 176.439V176.439Z" fill="#F2BA00"/>
<path d="M123.67 173.749C122.798 171.609 120.917 169.99 118.617 169.479C118.618 169.48 120.757 171.297 118.787 173.267L123.67 173.749Z" fill="#F0AE00"/>
<path d="M121.705 181.853C126.419 179.626 136.125 175.799 148.41 175.044C148.88 175.016 149.286 174.711 149.456 174.272C150.73 170.989 149.934 167.113 147.151 164.604C146.774 164.264 146.225 164.199 145.777 164.437C141.237 166.854 132.456 170.087 118.617 169.479C121.809 170.188 124.197 173.034 124.197 176.439C124.197 178.606 123.229 180.545 121.705 181.853V181.853Z" fill="#F9DF5F"/>
<path d="M123.423 173.212C121.036 173.353 118.383 173.328 115.466 173.056C114.851 172.999 114.266 173.322 113.981 173.87C113.526 174.746 113.296 175.757 113.369 176.828C113.556 179.58 115.77 181.809 118.52 182.012C120.411 182.151 122.119 181.348 123.227 180.026C123.842 178.972 124.196 177.747 124.196 176.439C124.196 175.277 123.916 174.181 123.423 173.212V173.212Z" fill="#EEA200"/>
<path d="M118.005 176.481C117.933 175.41 118.163 174.399 118.618 173.523C118.665 173.431 118.722 173.345 118.786 173.267C117.72 173.231 116.614 173.163 115.466 173.056C114.851 172.999 114.266 173.322 113.981 173.87C113.526 174.746 113.296 175.757 113.369 176.828C113.556 179.579 115.77 181.809 118.52 182.012C119.657 182.095 120.727 181.838 121.641 181.333C119.63 180.585 118.156 178.703 118.005 176.481Z" fill="#ED8700"/>
<path d="M133.561 169.231C133.374 168.323 132.53 163.708 134.279 162.02C134.697 161.615 135.443 161.192 136.616 161.476C137.974 161.804 138.452 162.587 138.613 163.185C139.248 165.544 135.768 169.026 135.064 169.7C134.555 170.187 133.704 169.925 133.561 169.231V169.231ZM135.528 163.313C134.984 163.838 134.922 165.504 135.063 167.07C136.196 165.724 137.05 164.295 136.876 163.653C136.826 163.465 136.596 163.321 136.193 163.224C135.958 163.167 135.702 163.145 135.528 163.313V163.313Z" fill="#A9D8FC"/>
<path d="M136.441 177.74C135.996 177.519 135.815 176.98 136.035 176.535C137.673 173.236 135.561 169.311 134.218 168.965C133.737 168.841 133.448 168.351 133.571 167.87C133.695 167.389 134.186 167.099 134.667 167.223C137.167 167.867 139.793 173.012 137.646 177.334C137.426 177.778 136.888 177.961 136.441 177.74V177.74Z" fill="#A9D8FC"/>
<path d="M134.689 178.273C134.252 178.036 134.091 177.49 134.328 177.053C136.157 173.691 133.825 169.634 132.207 169.253C131.724 169.14 131.424 168.655 131.538 168.172C131.652 167.688 132.136 167.389 132.619 167.503C135.425 168.162 138.297 173.52 135.908 177.913C135.671 178.35 135.124 178.51 134.689 178.273V178.273Z" fill="#D0E8FE"/>
<path d="M116.562 95.1717L121.263 87.6308C121.48 87.2826 121.938 87.1744 122.288 87.3886L157.041 108.648L151.315 115.845L116.562 95.1717Z" fill="#F3F0F3"/>
<path d="M152.594 105.925L146.827 113.173L151.319 115.845L157.045 108.648L152.594 105.925Z" fill="#E2DEE2"/>
<path d="M198.522 118.632L198.523 109.746C198.523 109.335 198.192 109.002 197.782 108.998L157.043 108.648L158.094 117.785L198.522 118.632Z" fill="#F3F0F3"/>
<path d="M193.259 118.522L198.519 118.632L198.52 109.746C198.52 109.335 198.19 109.001 197.779 108.998L193.14 108.958L193.259 118.522Z" fill="#E2DEE2"/>
<path d="M202.237 119.183C202.277 117.642 201.053 116.356 199.504 116.311L159.319 115.158C158.038 115.121 156.898 115.951 156.548 117.176C156.265 118.162 155.229 118.734 154.236 118.45C153.244 118.165 152.667 117.132 152.949 116.146C153.299 114.921 152.771 113.614 151.665 112.967L116.957 92.6825C115.618 91.9008 113.9 92.3435 113.118 93.6726C112.336 95.0015 112.787 96.7126 114.125 97.4949L147.268 116.864C147.366 120.018 149.491 122.896 152.7 123.815C155.91 124.734 159.236 123.416 160.989 120.791L199.36 121.893C200.909 121.938 202.198 120.724 202.237 119.183V119.183Z" fill="#FE646F"/>
<path d="M202.236 119.183C202.276 117.642 201.052 116.356 199.503 116.312L194.498 116.168C195.847 116.461 196.994 117.754 196.958 119.13C196.925 120.42 196.016 121.477 194.812 121.763L199.359 121.893C200.908 121.938 202.196 120.724 202.236 119.183V119.183Z" fill="#FD4755"/>
<path d="M156.689 109.876C156.411 109.797 156.158 109.629 155.975 109.385L134.783 81.1597C134.332 80.5589 134.453 79.706 135.054 79.255C135.655 78.8039 136.508 78.925 136.959 79.5261L157.533 106.928L189.49 94.5628C190.191 94.2915 190.979 94.6397 191.25 95.3407C191.521 96.0413 191.172 96.8292 190.472 97.1003L157.554 109.837C157.27 109.947 156.967 109.956 156.689 109.876V109.876Z" fill="#F3F0F3"/>
<path d="M156.668 109.956C156.472 109.9 156.289 109.8 156.134 109.66L126.757 83.2818C126.198 82.7799 126.152 81.9195 126.654 81.3605C127.156 80.8016 128.016 80.7559 128.575 81.2572L157.459 107.194L195.692 100.469C196.432 100.339 197.137 100.834 197.267 101.574C197.397 102.314 196.903 103.019 196.163 103.149L157.278 109.988C157.072 110.024 156.864 110.012 156.668 109.956V109.956Z" fill="#E2DEE2"/>
<rect x="73.959" y="323.115" width="378.08" height="73.6086" rx="16.7292" fill="white"/>
<rect x="73.959" y="323.115" width="378.08" height="73.6086" rx="16.7292" stroke="#FF8B2D" stroke-width="2.23056"/>
<path d="M101.352 366.08C100.937 366.08 100.616 365.966 100.388 365.739C100.174 365.498 100.067 365.163 100.067 364.735V358.632L100.609 360.178L95.7708 353.373C95.5968 353.132 95.5165 352.877 95.5299 352.61C95.5566 352.329 95.6704 352.094 95.8711 351.907C96.0719 351.706 96.3529 351.606 96.7143 351.606C96.982 351.606 97.2229 351.673 97.437 351.807C97.6645 351.94 97.8786 352.148 98.0794 352.429L101.673 357.528H101.111L104.724 352.429C104.938 352.135 105.146 351.927 105.347 351.807C105.547 351.673 105.795 351.606 106.089 351.606C106.437 351.606 106.705 351.7 106.892 351.887C107.093 352.061 107.193 352.282 107.193 352.549C107.207 352.817 107.113 353.098 106.912 353.393L102.114 360.178L102.636 358.632V364.735C102.636 365.632 102.208 366.08 101.352 366.08ZM112.035 366.12C110.924 366.12 109.967 365.913 109.164 365.498C108.361 365.083 107.739 364.494 107.297 363.731C106.869 362.968 106.655 362.065 106.655 361.021C106.655 360.004 106.862 359.114 107.277 358.351C107.705 357.588 108.287 356.993 109.023 356.564C109.773 356.123 110.623 355.902 111.573 355.902C112.269 355.902 112.891 356.016 113.44 356.243C114.002 356.471 114.477 356.799 114.865 357.227C115.267 357.655 115.568 358.177 115.769 358.793C115.983 359.395 116.09 360.078 116.09 360.84C116.09 361.081 116.003 361.269 115.829 361.403C115.668 361.523 115.434 361.583 115.126 361.583H108.682V360.138H114.323L114.002 360.439C114.002 359.823 113.908 359.308 113.721 358.893C113.547 358.478 113.286 358.164 112.938 357.95C112.603 357.722 112.182 357.608 111.673 357.608C111.111 357.608 110.629 357.742 110.228 358.01C109.84 358.264 109.539 358.632 109.325 359.114C109.124 359.582 109.023 360.145 109.023 360.8V360.941C109.023 362.038 109.278 362.861 109.786 363.41C110.308 363.945 111.071 364.213 112.075 364.213C112.423 364.213 112.811 364.173 113.239 364.093C113.681 363.999 114.096 363.845 114.484 363.631C114.765 363.47 115.013 363.403 115.227 363.43C115.441 363.444 115.608 363.517 115.729 363.651C115.862 363.785 115.943 363.952 115.969 364.153C115.996 364.34 115.956 364.534 115.849 364.735C115.755 364.936 115.588 365.11 115.347 365.257C114.879 365.551 114.337 365.772 113.721 365.919C113.119 366.053 112.557 366.12 112.035 366.12ZM121.309 366.12C120.6 366.12 119.964 365.986 119.402 365.719C118.853 365.438 118.418 365.063 118.097 364.594C117.789 364.126 117.635 363.597 117.635 363.009C117.635 362.286 117.823 361.717 118.198 361.302C118.572 360.874 119.181 360.566 120.024 360.379C120.868 360.191 121.998 360.098 123.417 360.098H124.421V361.543H123.437C122.607 361.543 121.945 361.583 121.45 361.664C120.955 361.744 120.6 361.884 120.386 362.085C120.185 362.272 120.085 362.54 120.085 362.888C120.085 363.33 120.239 363.691 120.546 363.972C120.854 364.253 121.282 364.394 121.831 364.394C122.273 364.394 122.661 364.293 122.996 364.093C123.344 363.878 123.618 363.591 123.819 363.229C124.019 362.868 124.12 362.453 124.12 361.985V359.676C124.12 359.007 123.973 358.525 123.678 358.231C123.384 357.936 122.888 357.789 122.193 357.789C121.804 357.789 121.383 357.836 120.928 357.93C120.486 358.023 120.018 358.184 119.523 358.411C119.268 358.532 119.041 358.565 118.84 358.512C118.653 358.458 118.505 358.351 118.398 358.191C118.291 358.017 118.238 357.829 118.238 357.628C118.238 357.428 118.291 357.234 118.398 357.046C118.505 356.846 118.686 356.698 118.94 356.605C119.556 356.35 120.145 356.17 120.707 356.063C121.282 355.956 121.804 355.902 122.273 355.902C123.236 355.902 124.026 356.049 124.642 356.344C125.271 356.638 125.739 357.086 126.047 357.689C126.355 358.278 126.509 359.04 126.509 359.977V364.795C126.509 365.21 126.408 365.531 126.208 365.759C126.007 365.973 125.719 366.08 125.344 366.08C124.97 366.08 124.675 365.973 124.461 365.759C124.26 365.531 124.16 365.21 124.16 364.795V363.832H124.32C124.227 364.3 124.039 364.708 123.758 365.056C123.491 365.391 123.149 365.652 122.735 365.839C122.32 366.027 121.845 366.12 121.309 366.12ZM130.34 366.08C129.926 366.08 129.604 365.973 129.377 365.759C129.163 365.531 129.056 365.21 129.056 364.795V357.207C129.056 356.792 129.163 356.477 129.377 356.263C129.591 356.049 129.892 355.942 130.28 355.942C130.668 355.942 130.97 356.049 131.184 356.263C131.398 356.477 131.505 356.792 131.505 357.207V358.472H131.304C131.491 357.669 131.86 357.06 132.408 356.645C132.957 356.23 133.686 355.982 134.596 355.902C134.877 355.875 135.098 355.949 135.259 356.123C135.433 356.283 135.533 356.538 135.56 356.886C135.587 357.22 135.506 357.495 135.319 357.709C135.145 357.909 134.877 358.03 134.516 358.07L134.074 358.11C133.258 358.191 132.642 358.445 132.228 358.873C131.813 359.288 131.605 359.877 131.605 360.64V364.795C131.605 365.21 131.498 365.531 131.284 365.759C131.07 365.973 130.755 366.08 130.34 366.08ZM140.27 366.12C139.159 366.12 138.322 365.806 137.76 365.177C137.198 364.534 136.917 363.597 136.917 362.366V352.871C136.917 352.456 137.024 352.141 137.238 351.927C137.452 351.713 137.76 351.606 138.162 351.606C138.563 351.606 138.871 351.713 139.085 351.927C139.313 352.141 139.427 352.456 139.427 352.871V362.246C139.427 362.861 139.554 363.316 139.808 363.611C140.076 363.905 140.45 364.052 140.932 364.052C141.039 364.052 141.14 364.052 141.233 364.052C141.327 364.039 141.421 364.026 141.514 364.012C141.702 363.986 141.829 364.039 141.896 364.173C141.963 364.293 141.996 364.548 141.996 364.936C141.996 365.27 141.929 365.531 141.795 365.719C141.662 365.906 141.441 366.02 141.133 366.06C140.999 366.073 140.859 366.087 140.711 366.1C140.564 366.113 140.417 366.12 140.27 366.12ZM145.562 369.694C145.268 369.694 145.027 369.613 144.84 369.453C144.652 369.305 144.538 369.105 144.498 368.85C144.472 368.596 144.518 368.328 144.639 368.047L146.004 365.016V366.06L142.35 357.608C142.23 357.314 142.19 357.04 142.23 356.785C142.27 356.531 142.39 356.33 142.591 356.183C142.805 356.022 143.093 355.942 143.454 355.942C143.762 355.942 144.01 356.016 144.197 356.163C144.385 356.297 144.552 356.558 144.699 356.946L147.409 363.711H146.807L149.577 356.926C149.724 356.551 149.898 356.297 150.099 356.163C150.3 356.016 150.568 355.942 150.902 355.942C151.197 355.942 151.431 356.022 151.605 356.183C151.779 356.33 151.886 356.531 151.926 356.785C151.966 357.026 151.919 357.294 151.786 357.588L146.907 368.73C146.733 369.105 146.546 369.359 146.345 369.493C146.144 369.627 145.883 369.694 145.562 369.694Z" fill="#273430"/>
<path d="M322.381 367.614C322.12 367.614 321.906 367.525 321.739 367.347C321.572 367.18 321.489 366.972 321.489 366.722V365.134L321.9 365.527C321.079 365.503 320.347 365.396 319.705 365.205C319.074 365.015 318.539 364.795 318.099 364.545C317.885 364.414 317.736 364.254 317.653 364.063C317.569 363.861 317.54 363.659 317.563 363.457C317.587 363.254 317.659 363.082 317.778 362.939C317.908 362.784 318.069 362.689 318.259 362.654C318.45 362.606 318.67 362.654 318.92 362.796C319.253 362.987 319.687 363.171 320.222 363.349C320.769 363.516 321.424 363.599 322.185 363.599C322.78 363.599 323.262 363.528 323.631 363.385C323.999 363.242 324.267 363.046 324.434 362.796C324.612 362.546 324.701 362.261 324.701 361.94C324.701 361.678 324.642 361.452 324.523 361.262C324.404 361.059 324.207 360.887 323.934 360.744C323.66 360.59 323.291 360.465 322.828 360.369L320.936 359.959C319.853 359.721 319.044 359.323 318.509 358.763C317.974 358.204 317.706 357.473 317.706 356.569C317.706 355.867 317.879 355.242 318.224 354.695C318.569 354.136 319.05 353.69 319.669 353.357C320.288 353.023 321.013 352.827 321.846 352.768L321.489 353.035V351.536C321.489 351.287 321.572 351.078 321.739 350.912C321.906 350.733 322.12 350.644 322.381 350.644C322.631 350.644 322.839 350.733 323.006 350.912C323.184 351.078 323.274 351.287 323.274 351.536V353.035L322.899 352.75C323.41 352.762 323.97 352.863 324.576 353.053C325.195 353.244 325.724 353.511 326.164 353.856C326.343 353.999 326.462 354.165 326.521 354.356C326.581 354.534 326.587 354.713 326.539 354.891C326.492 355.058 326.402 355.2 326.272 355.319C326.141 355.438 325.974 355.51 325.772 355.534C325.582 355.545 325.361 355.48 325.112 355.337C324.767 355.135 324.38 354.974 323.952 354.855C323.523 354.725 323.012 354.659 322.417 354.659C321.656 354.659 321.055 354.832 320.615 355.177C320.187 355.51 319.972 355.95 319.972 356.497C319.972 356.902 320.103 357.229 320.365 357.479C320.627 357.717 321.073 357.907 321.703 358.05L323.648 358.478C324.79 358.728 325.629 359.126 326.164 359.674C326.7 360.209 326.967 360.917 326.967 361.797C326.967 362.487 326.795 363.1 326.45 363.635C326.105 364.158 325.629 364.581 325.022 364.902C324.428 365.211 323.732 365.408 322.935 365.491L323.274 365.116V366.722C323.274 366.972 323.19 367.18 323.024 367.347C322.857 367.525 322.643 367.614 322.381 367.614ZM331.921 365.598C331.41 365.598 330.88 365.521 330.333 365.366C329.786 365.199 329.274 364.955 328.798 364.634C328.608 364.515 328.483 364.361 328.424 364.17C328.364 363.98 328.352 363.796 328.388 363.617C328.436 363.427 328.519 363.266 328.638 363.135C328.769 362.993 328.929 362.909 329.12 362.886C329.31 362.85 329.518 362.897 329.744 363.028C330.149 363.266 330.529 363.433 330.886 363.528C331.243 363.623 331.6 363.671 331.957 363.671C332.647 363.671 333.23 363.51 333.706 363.189C334.182 362.868 334.538 362.386 334.776 361.743C335.026 361.089 335.151 360.286 335.151 359.334V357.996H335.365C335.282 358.591 335.086 359.108 334.776 359.549C334.467 359.989 334.074 360.328 333.599 360.566C333.123 360.792 332.593 360.905 332.01 360.905C331.297 360.905 330.654 360.732 330.083 360.387C329.524 360.042 329.084 359.566 328.763 358.96C328.442 358.341 328.281 357.645 328.281 356.872C328.281 356.051 328.453 355.325 328.798 354.695C329.155 354.064 329.649 353.571 330.28 353.214C330.91 352.845 331.63 352.661 332.439 352.661C333.486 352.661 334.372 352.904 335.098 353.392C335.823 353.88 336.376 354.594 336.757 355.534C337.138 356.461 337.328 357.586 337.328 358.906C337.328 359.977 337.203 360.929 336.953 361.761C336.715 362.582 336.365 363.278 335.901 363.849C335.437 364.42 334.866 364.854 334.187 365.152C333.521 365.449 332.766 365.598 331.921 365.598ZM332.581 359.085C333.01 359.085 333.384 358.989 333.706 358.799C334.039 358.597 334.295 358.323 334.473 357.978C334.651 357.621 334.741 357.217 334.741 356.765C334.741 356.301 334.651 355.896 334.473 355.551C334.295 355.206 334.039 354.939 333.706 354.748C333.384 354.558 333.01 354.463 332.581 354.463C332.153 354.463 331.778 354.558 331.457 354.748C331.136 354.939 330.88 355.206 330.69 355.551C330.512 355.896 330.422 356.301 330.422 356.765C330.422 357.217 330.512 357.621 330.69 357.978C330.88 358.323 331.136 358.597 331.457 358.799C331.778 358.989 332.153 359.085 332.581 359.085ZM340.48 365.509C340.075 365.509 339.748 365.384 339.498 365.134C339.26 364.884 339.141 364.563 339.141 364.17C339.141 363.79 339.26 363.48 339.498 363.242C339.748 362.993 340.075 362.868 340.48 362.868C340.896 362.868 341.217 362.993 341.443 363.242C341.681 363.48 341.8 363.79 341.8 364.17C341.8 364.563 341.681 364.884 341.443 365.134C341.217 365.384 340.896 365.509 340.48 365.509ZM347.047 365.598C346.536 365.598 346.006 365.521 345.459 365.366C344.912 365.199 344.4 364.955 343.924 364.634C343.734 364.515 343.609 364.361 343.55 364.17C343.49 363.98 343.478 363.796 343.514 363.617C343.562 363.427 343.645 363.266 343.764 363.135C343.895 362.993 344.055 362.909 344.246 362.886C344.436 362.85 344.644 362.897 344.87 363.028C345.275 363.266 345.655 363.433 346.012 363.528C346.369 363.623 346.726 363.671 347.083 363.671C347.773 363.671 348.356 363.51 348.832 363.189C349.308 362.868 349.664 362.386 349.902 361.743C350.152 361.089 350.277 360.286 350.277 359.334V357.996H350.491C350.408 358.591 350.212 359.108 349.902 359.549C349.593 359.989 349.2 360.328 348.725 360.566C348.249 360.792 347.719 360.905 347.136 360.905C346.423 360.905 345.78 360.732 345.209 360.387C344.65 360.042 344.21 359.566 343.889 358.96C343.568 358.341 343.407 357.645 343.407 356.872C343.407 356.051 343.579 355.325 343.924 354.695C344.281 354.064 344.775 353.571 345.406 353.214C346.036 352.845 346.756 352.661 347.565 352.661C348.612 352.661 349.498 352.904 350.224 353.392C350.949 353.88 351.502 354.594 351.883 355.534C352.264 356.461 352.454 357.586 352.454 358.906C352.454 359.977 352.329 360.929 352.079 361.761C351.841 362.582 351.491 363.278 351.027 363.849C350.563 364.42 349.992 364.854 349.314 365.152C348.647 365.449 347.892 365.598 347.047 365.598ZM347.707 359.085C348.136 359.085 348.51 358.989 348.832 358.799C349.165 358.597 349.421 358.323 349.599 357.978C349.777 357.621 349.867 357.217 349.867 356.765C349.867 356.301 349.777 355.896 349.599 355.551C349.421 355.206 349.165 354.939 348.832 354.748C348.51 354.558 348.136 354.463 347.707 354.463C347.279 354.463 346.904 354.558 346.583 354.748C346.262 354.939 346.006 355.206 345.816 355.551C345.638 355.896 345.548 356.301 345.548 356.765C345.548 357.217 345.638 357.621 345.816 357.978C346.006 358.323 346.262 358.597 346.583 358.799C346.904 358.989 347.279 359.085 347.707 359.085ZM357.747 365.598C357.235 365.598 356.706 365.521 356.159 365.366C355.612 365.199 355.1 364.955 354.624 364.634C354.434 364.515 354.309 364.361 354.249 364.17C354.19 363.98 354.178 363.796 354.214 363.617C354.261 363.427 354.345 363.266 354.464 363.135C354.594 362.993 354.755 362.909 354.945 362.886C355.136 362.85 355.344 362.897 355.57 363.028C355.974 363.266 356.355 363.433 356.712 363.528C357.069 363.623 357.426 363.671 357.783 363.671C358.473 363.671 359.056 363.51 359.531 363.189C360.007 362.868 360.364 362.386 360.602 361.743C360.852 361.089 360.977 360.286 360.977 359.334V357.996H361.191C361.108 358.591 360.911 359.108 360.602 359.549C360.293 359.989 359.9 360.328 359.424 360.566C358.949 360.792 358.419 360.905 357.836 360.905C357.122 360.905 356.48 360.732 355.909 360.387C355.35 360.042 354.91 359.566 354.589 358.96C354.267 358.341 354.107 357.645 354.107 356.872C354.107 356.051 354.279 355.325 354.624 354.695C354.981 354.064 355.475 353.571 356.105 353.214C356.736 352.845 357.456 352.661 358.264 352.661C359.311 352.661 360.198 352.904 360.923 353.392C361.649 353.88 362.202 354.594 362.583 355.534C362.964 356.461 363.154 357.586 363.154 358.906C363.154 359.977 363.029 360.929 362.779 361.761C362.541 362.582 362.19 363.278 361.726 363.849C361.262 364.42 360.691 364.854 360.013 365.152C359.347 365.449 358.592 365.598 357.747 365.598ZM358.407 359.085C358.835 359.085 359.21 358.989 359.531 358.799C359.865 358.597 360.12 358.323 360.299 357.978C360.477 357.621 360.566 357.217 360.566 356.765C360.566 356.301 360.477 355.896 360.299 355.551C360.12 355.206 359.865 354.939 359.531 354.748C359.21 354.558 358.835 354.463 358.407 354.463C357.979 354.463 357.604 354.558 357.283 354.748C356.962 354.939 356.706 355.206 356.516 355.551C356.337 355.896 356.248 356.301 356.248 356.765C356.248 357.217 356.337 357.621 356.516 357.978C356.706 358.323 356.962 358.597 357.283 358.799C357.604 358.989 357.979 359.085 358.407 359.085ZM370.49 365.937C370.418 366.163 370.305 366.324 370.151 366.419C369.996 366.526 369.823 366.579 369.633 366.579C369.455 366.579 369.288 366.532 369.133 366.437C368.979 366.341 368.872 366.205 368.812 366.026C368.741 365.86 368.741 365.657 368.812 365.419L372.934 352.625C373.006 352.399 373.119 352.232 373.273 352.125C373.44 352.018 373.612 351.971 373.791 351.983C373.969 351.983 374.136 352.03 374.291 352.125C374.445 352.22 374.552 352.351 374.612 352.518C374.683 352.684 374.683 352.887 374.612 353.125L370.49 365.937ZM384.872 365.562C384.503 365.562 384.217 365.461 384.015 365.259C383.825 365.045 383.73 364.747 383.73 364.367V358.942L384.211 360.316L379.911 354.267C379.756 354.052 379.685 353.826 379.697 353.589C379.72 353.339 379.822 353.131 380 352.964C380.178 352.786 380.428 352.696 380.75 352.696C380.987 352.696 381.202 352.756 381.392 352.875C381.594 352.994 381.785 353.178 381.963 353.428L385.157 357.96H384.657L387.869 353.428C388.06 353.166 388.244 352.982 388.423 352.875C388.601 352.756 388.821 352.696 389.083 352.696C389.392 352.696 389.63 352.78 389.797 352.946C389.975 353.101 390.064 353.297 390.064 353.535C390.076 353.773 389.993 354.023 389.815 354.284L385.55 360.316L386.014 358.942V364.367C386.014 365.164 385.633 365.562 384.872 365.562ZM394.368 365.598C393.38 365.598 392.53 365.413 391.816 365.045C391.102 364.676 390.549 364.152 390.156 363.474C389.776 362.796 389.585 361.993 389.585 361.065C389.585 360.161 389.77 359.37 390.139 358.692C390.519 358.014 391.037 357.485 391.691 357.104C392.357 356.711 393.113 356.515 393.957 356.515C394.576 356.515 395.129 356.616 395.617 356.818C396.116 357.021 396.539 357.312 396.884 357.693C397.241 358.073 397.508 358.537 397.687 359.085C397.877 359.62 397.972 360.227 397.972 360.905C397.972 361.119 397.895 361.285 397.74 361.404C397.598 361.511 397.389 361.565 397.116 361.565H391.388V360.28H396.402L396.116 360.548C396.116 360.001 396.033 359.543 395.867 359.174C395.712 358.805 395.48 358.526 395.171 358.335C394.873 358.133 394.499 358.032 394.046 358.032C393.547 358.032 393.119 358.151 392.762 358.389C392.417 358.615 392.149 358.942 391.959 359.37C391.78 359.787 391.691 360.286 391.691 360.869V360.994C391.691 361.969 391.917 362.701 392.369 363.189C392.833 363.665 393.511 363.903 394.403 363.903C394.713 363.903 395.058 363.867 395.438 363.796C395.831 363.712 396.2 363.576 396.545 363.385C396.795 363.242 397.015 363.183 397.205 363.207C397.395 363.219 397.544 363.284 397.651 363.403C397.77 363.522 397.841 363.671 397.865 363.849C397.889 364.016 397.853 364.188 397.758 364.367C397.675 364.545 397.526 364.7 397.312 364.831C396.896 365.092 396.414 365.289 395.867 365.419C395.331 365.538 394.832 365.598 394.368 365.598ZM402.612 365.598C401.981 365.598 401.416 365.479 400.916 365.241C400.429 364.991 400.042 364.658 399.757 364.242C399.483 363.825 399.346 363.355 399.346 362.832C399.346 362.19 399.513 361.684 399.846 361.315C400.179 360.935 400.72 360.661 401.47 360.494C402.219 360.328 403.224 360.245 404.485 360.245H405.378V361.529H404.503C403.766 361.529 403.177 361.565 402.737 361.636C402.296 361.708 401.981 361.833 401.791 362.011C401.612 362.178 401.523 362.416 401.523 362.725C401.523 363.117 401.66 363.439 401.934 363.689C402.207 363.938 402.588 364.063 403.076 364.063C403.468 364.063 403.813 363.974 404.111 363.796C404.42 363.605 404.664 363.349 404.842 363.028C405.021 362.707 405.11 362.338 405.11 361.922V359.87C405.11 359.275 404.979 358.847 404.717 358.585C404.456 358.323 404.015 358.192 403.397 358.192C403.052 358.192 402.677 358.234 402.273 358.317C401.88 358.401 401.464 358.543 401.024 358.746C400.797 358.853 400.595 358.882 400.417 358.835C400.25 358.787 400.119 358.692 400.024 358.549C399.929 358.395 399.881 358.228 399.881 358.05C399.881 357.871 399.929 357.699 400.024 357.532C400.119 357.354 400.28 357.223 400.506 357.14C401.053 356.914 401.577 356.753 402.076 356.658C402.588 356.563 403.052 356.515 403.468 356.515C404.325 356.515 405.027 356.646 405.574 356.908C406.133 357.169 406.549 357.568 406.823 358.103C407.097 358.627 407.233 359.305 407.233 360.137V364.42C407.233 364.789 407.144 365.074 406.966 365.277C406.787 365.467 406.532 365.562 406.198 365.562C405.865 365.562 405.604 365.467 405.413 365.277C405.235 365.074 405.146 364.789 405.146 364.42V363.564H405.288C405.205 363.98 405.039 364.343 404.789 364.652C404.551 364.95 404.247 365.182 403.879 365.348C403.51 365.515 403.088 365.598 402.612 365.598ZM410.639 365.562C410.271 365.562 409.985 365.467 409.783 365.277C409.593 365.074 409.497 364.789 409.497 364.42V357.675C409.497 357.306 409.593 357.027 409.783 356.836C409.973 356.646 410.241 356.551 410.586 356.551C410.931 356.551 411.199 356.646 411.389 356.836C411.579 357.027 411.674 357.306 411.674 357.675V358.799H411.496C411.663 358.085 411.99 357.544 412.477 357.175C412.965 356.806 413.614 356.586 414.423 356.515C414.672 356.491 414.869 356.557 415.011 356.711C415.166 356.854 415.255 357.08 415.279 357.389C415.303 357.687 415.231 357.931 415.065 358.121C414.91 358.299 414.672 358.407 414.351 358.442L413.959 358.478C413.233 358.549 412.686 358.775 412.317 359.156C411.948 359.525 411.764 360.048 411.764 360.726V364.42C411.764 364.789 411.669 365.074 411.478 365.277C411.288 365.467 411.008 365.562 410.639 365.562ZM419.465 365.598C418.478 365.598 417.734 365.318 417.235 364.759C416.735 364.188 416.485 363.355 416.485 362.261V353.821C416.485 353.452 416.581 353.172 416.771 352.982C416.961 352.791 417.235 352.696 417.592 352.696C417.949 352.696 418.222 352.791 418.413 352.982C418.615 353.172 418.716 353.452 418.716 353.821V362.154C418.716 362.701 418.829 363.106 419.055 363.367C419.293 363.629 419.626 363.76 420.054 363.76C420.149 363.76 420.239 363.76 420.322 363.76C420.405 363.748 420.488 363.736 420.572 363.724C420.738 363.7 420.851 363.748 420.911 363.867C420.97 363.974 421 364.2 421 364.545C421 364.842 420.941 365.074 420.822 365.241C420.703 365.408 420.506 365.509 420.233 365.544C420.114 365.556 419.989 365.568 419.858 365.58C419.727 365.592 419.596 365.598 419.465 365.598ZM424.17 368.774C423.908 368.774 423.694 368.703 423.528 368.56C423.361 368.429 423.26 368.251 423.224 368.025C423.2 367.799 423.242 367.561 423.349 367.311L424.563 364.616V365.544L421.315 358.032C421.208 357.77 421.172 357.526 421.208 357.3C421.243 357.074 421.351 356.896 421.529 356.765C421.719 356.622 421.975 356.551 422.296 356.551C422.57 356.551 422.79 356.616 422.957 356.747C423.123 356.866 423.272 357.098 423.403 357.443L425.812 363.457H425.276L427.739 357.425C427.87 357.092 428.024 356.866 428.203 356.747C428.381 356.616 428.619 356.551 428.917 356.551C429.178 356.551 429.386 356.622 429.541 356.765C429.696 356.896 429.791 357.074 429.827 357.3C429.862 357.514 429.821 357.752 429.702 358.014L425.366 367.918C425.211 368.251 425.044 368.477 424.866 368.596C424.687 368.715 424.455 368.774 424.17 368.774Z" fill="black"/>
<path d="M348.336 322.44C348.336 316.037 353.526 310.847 359.929 310.847H422.95C429.152 310.847 434.18 315.875 434.18 322.078C434.18 328.28 429.152 333.308 422.95 333.308H359.204C353.202 333.308 348.336 328.442 348.336 322.44Z" fill="#19C472"/>
<path d="M363.508 320.02C363.463 319.605 363.276 319.282 362.947 319.05C362.62 318.819 362.196 318.704 361.673 318.704C361.305 318.704 360.99 318.759 360.727 318.87C360.464 318.981 360.263 319.131 360.124 319.321C359.984 319.511 359.913 319.729 359.91 319.972C359.91 320.175 359.956 320.351 360.048 320.5C360.143 320.649 360.271 320.776 360.433 320.88C360.594 320.982 360.773 321.067 360.97 321.137C361.166 321.207 361.364 321.265 361.564 321.313L362.476 321.541C362.844 321.626 363.197 321.742 363.536 321.888C363.878 322.034 364.184 322.217 364.453 322.439C364.726 322.661 364.941 322.929 365.1 323.242C365.258 323.556 365.337 323.923 365.337 324.345C365.337 324.915 365.192 325.417 364.9 325.851C364.609 326.282 364.187 326.62 363.636 326.864C363.088 327.105 362.424 327.225 361.644 327.225C360.887 327.225 360.23 327.108 359.672 326.873C359.118 326.639 358.684 326.297 358.37 325.847C358.059 325.397 357.891 324.849 357.866 324.202H359.601C359.626 324.541 359.731 324.823 359.915 325.048C360.098 325.273 360.338 325.441 360.632 325.552C360.93 325.663 361.263 325.718 361.63 325.718C362.014 325.718 362.349 325.661 362.638 325.547C362.929 325.43 363.157 325.268 363.322 325.063C363.487 324.853 363.571 324.609 363.574 324.331C363.571 324.077 363.496 323.868 363.351 323.703C363.205 323.535 363.001 323.396 362.738 323.285C362.478 323.171 362.174 323.07 361.825 322.981L360.718 322.696C359.916 322.49 359.282 322.178 358.817 321.759C358.354 321.338 358.123 320.779 358.123 320.082C358.123 319.508 358.278 319.006 358.589 318.575C358.902 318.144 359.328 317.81 359.867 317.572C360.406 317.332 361.016 317.211 361.697 317.211C362.387 317.211 362.993 317.332 363.512 317.572C364.035 317.81 364.445 318.141 364.743 318.566C365.041 318.987 365.195 319.472 365.204 320.02H363.508ZM368.002 327.078H366.12L369.547 317.344H371.724L375.155 327.078H373.273L370.673 319.34H370.597L368.002 327.078ZM368.064 323.261H373.197V324.678H368.064V323.261ZM376.628 317.344L379.161 325.005H379.261L381.79 317.344H383.729L380.297 327.078H378.121L374.694 317.344H376.628ZM385.011 327.078V317.344H391.341V318.822H386.774V321.465H391.013V322.943H386.774V325.6H391.379V327.078H385.011ZM401.569 325.253V324.739C401.569 324.362 401.648 324.015 401.806 323.699C401.968 323.382 402.203 323.127 402.51 322.933C402.817 322.74 403.19 322.643 403.627 322.643C404.077 322.643 404.454 322.74 404.758 322.933C405.062 323.123 405.292 323.377 405.447 323.694C405.605 324.011 405.685 324.359 405.685 324.739V325.253C405.685 325.63 405.605 325.977 405.447 326.293C405.289 326.61 405.056 326.865 404.748 327.059C404.444 327.252 404.07 327.349 403.627 327.349C403.183 327.349 402.808 327.252 402.5 327.059C402.193 326.865 401.96 326.61 401.802 326.293C401.646 325.977 401.569 325.63 401.569 325.253ZM402.809 324.739V325.253C402.809 325.503 402.869 325.733 402.99 325.942C403.11 326.151 403.323 326.255 403.627 326.255C403.934 326.255 404.145 326.152 404.259 325.947C404.376 325.737 404.435 325.506 404.435 325.253V324.739C404.435 324.486 404.379 324.255 404.268 324.045C404.157 323.833 403.944 323.727 403.627 323.727C403.329 323.727 403.118 323.833 402.995 324.045C402.871 324.255 402.809 324.486 402.809 324.739ZM396.621 319.683V319.169C396.621 318.789 396.702 318.441 396.864 318.124C397.025 317.807 397.26 317.553 397.567 317.363C397.874 317.17 398.247 317.073 398.684 317.073C399.131 317.073 399.506 317.17 399.81 317.363C400.118 317.553 400.349 317.807 400.504 318.124C400.66 318.441 400.737 318.789 400.737 319.169V319.683C400.737 320.063 400.658 320.411 400.5 320.728C400.344 321.042 400.113 321.294 399.806 321.484C399.498 321.674 399.124 321.769 398.684 321.769C398.237 321.769 397.86 321.674 397.553 321.484C397.249 321.294 397.017 321.04 396.859 320.723C396.701 320.407 396.621 320.06 396.621 319.683ZM397.871 319.169V319.683C397.871 319.936 397.93 320.167 398.047 320.376C398.168 320.582 398.38 320.685 398.684 320.685C398.988 320.685 399.197 320.582 399.311 320.376C399.429 320.167 399.487 319.936 399.487 319.683V319.169C399.487 318.916 399.432 318.685 399.321 318.475C399.21 318.263 398.998 318.157 398.684 318.157C398.383 318.157 398.172 318.263 398.052 318.475C397.932 318.688 397.871 318.919 397.871 319.169ZM397.163 327.078L403.855 317.344H405.043L398.351 327.078H397.163ZM411.15 327.211C410.466 327.211 409.857 327.093 409.325 326.859C408.796 326.625 408.378 326.298 408.07 325.88C407.763 325.462 407.6 324.979 407.581 324.43H409.368C409.384 324.693 409.471 324.923 409.629 325.12C409.788 325.313 409.998 325.463 410.261 325.571C410.524 325.679 410.819 325.733 411.145 325.733C411.494 325.733 411.803 325.672 412.072 325.552C412.341 325.428 412.552 325.257 412.704 325.039C412.856 324.82 412.931 324.568 412.928 324.283C412.931 323.988 412.855 323.729 412.699 323.504C412.544 323.279 412.319 323.103 412.025 322.976C411.733 322.849 411.381 322.786 410.97 322.786H410.109V321.427H410.97C411.309 321.427 411.605 321.368 411.858 321.251C412.115 321.134 412.316 320.969 412.462 320.757C412.608 320.541 412.679 320.292 412.676 320.01C412.679 319.735 412.617 319.496 412.49 319.293C412.367 319.087 412.191 318.927 411.963 318.813C411.738 318.699 411.473 318.642 411.169 318.642C410.871 318.642 410.596 318.696 410.342 318.803C410.089 318.911 409.884 319.065 409.729 319.264C409.574 319.461 409.491 319.695 409.482 319.968H407.785C407.798 319.423 407.955 318.944 408.256 318.532C408.56 318.117 408.966 317.794 409.472 317.563C409.979 317.328 410.548 317.211 411.179 317.211C411.828 317.211 412.392 317.333 412.871 317.577C413.352 317.818 413.724 318.143 413.987 318.551C414.25 318.96 414.382 319.412 414.382 319.906C414.385 320.454 414.224 320.913 413.897 321.284C413.574 321.655 413.149 321.897 412.623 322.011V322.087C413.308 322.182 413.832 322.436 414.197 322.848C414.564 323.257 414.746 323.765 414.743 324.373C414.743 324.918 414.588 325.406 414.277 325.837C413.97 326.265 413.545 326.601 413.004 326.845C412.465 327.089 411.847 327.211 411.15 327.211ZM419.972 327.263C419.19 327.263 418.518 327.065 417.957 326.669C417.399 326.27 416.97 325.695 416.669 324.944C416.371 324.19 416.222 323.282 416.222 322.22C416.226 321.159 416.376 320.256 416.674 319.511C416.975 318.764 417.404 318.193 417.962 317.801C418.523 317.408 419.193 317.211 419.972 317.211C420.752 317.211 421.422 317.408 421.983 317.801C422.543 318.193 422.973 318.764 423.271 319.511C423.572 320.259 423.722 321.162 423.722 322.22C423.722 323.285 423.572 324.194 423.271 324.948C422.973 325.699 422.543 326.273 421.983 326.669C421.425 327.065 420.755 327.263 419.972 327.263ZM419.972 325.775C420.581 325.775 421.061 325.476 421.412 324.877C421.767 324.275 421.945 323.39 421.945 322.22C421.945 321.447 421.864 320.798 421.702 320.272C421.541 319.746 421.312 319.35 421.018 319.084C420.723 318.814 420.375 318.68 419.972 318.68C419.367 318.68 418.889 318.981 418.537 319.583C418.185 320.182 418.008 321.061 418.005 322.22C418.001 322.997 418.079 323.649 418.237 324.179C418.399 324.708 418.627 325.107 418.922 325.376C419.217 325.642 419.567 325.775 419.972 325.775Z" fill="white"/>
<rect x="72.8438" y="411.223" width="380.311" height="75.8391" rx="17.8445" fill="white"/>
<path d="M98.2801 455.142C97.9322 455.142 97.6578 455.048 97.4571 454.861C97.2697 454.66 97.176 454.393 97.176 454.058C97.176 453.71 97.2697 453.449 97.4571 453.275C97.6578 453.101 97.9322 453.014 98.2801 453.014H100.529V443.157H101.773L98.8222 444.944C98.5679 445.091 98.327 445.151 98.0995 445.125C97.8853 445.084 97.698 444.991 97.5374 444.844C97.3902 444.683 97.2898 444.496 97.2362 444.281C97.1827 444.067 97.1961 443.853 97.2764 443.639C97.3701 443.412 97.5441 443.224 97.7983 443.077L100.569 441.411C100.836 441.25 101.104 441.116 101.372 441.009C101.639 440.889 101.887 440.829 102.114 440.829C102.396 440.829 102.63 440.909 102.817 441.069C103.004 441.217 103.098 441.464 103.098 441.812V453.014H105.146C105.494 453.014 105.761 453.101 105.949 453.275C106.15 453.449 106.25 453.71 106.25 454.058C106.25 454.406 106.15 454.674 105.949 454.861C105.761 455.048 105.494 455.142 105.146 455.142H98.2801ZM115.386 455.303C115.011 455.303 114.724 455.196 114.523 454.981C114.322 454.767 114.222 454.473 114.222 454.098V442.033C114.222 441.645 114.329 441.351 114.543 441.15C114.757 440.936 115.051 440.829 115.426 440.829C115.761 440.829 116.022 440.895 116.209 441.029C116.41 441.15 116.59 441.364 116.751 441.672L121.71 450.846H121.067L126.026 441.672C126.186 441.364 126.36 441.15 126.548 441.029C126.735 440.895 126.996 440.829 127.331 440.829C127.705 440.829 127.993 440.936 128.194 441.15C128.395 441.351 128.495 441.645 128.495 442.033V454.098C128.495 454.473 128.395 454.767 128.194 454.981C128.007 455.196 127.719 455.303 127.331 455.303C126.956 455.303 126.668 455.196 126.467 454.981C126.267 454.767 126.166 454.473 126.166 454.098V444.803H126.608L122.392 452.492C122.258 452.72 122.118 452.887 121.971 452.994C121.823 453.101 121.623 453.155 121.368 453.155C121.114 453.155 120.907 453.101 120.746 452.994C120.585 452.874 120.445 452.706 120.324 452.492L116.069 444.783H116.55V454.098C116.55 454.473 116.45 454.767 116.249 454.981C116.062 455.196 115.774 455.303 115.386 455.303ZM135.846 455.343C134.829 455.343 133.945 455.135 133.196 454.721C132.446 454.306 131.864 453.717 131.449 452.954C131.034 452.178 130.827 451.268 130.827 450.224C130.827 449.434 130.941 448.731 131.168 448.116C131.409 447.487 131.75 446.951 132.192 446.51C132.634 446.055 133.162 445.714 133.778 445.486C134.394 445.245 135.083 445.125 135.846 445.125C136.863 445.125 137.746 445.332 138.496 445.747C139.245 446.162 139.827 446.751 140.242 447.514C140.657 448.276 140.865 449.18 140.865 450.224C140.865 451.013 140.744 451.723 140.503 452.352C140.276 452.981 139.941 453.523 139.499 453.978C139.058 454.419 138.529 454.761 137.914 455.002C137.298 455.229 136.609 455.343 135.846 455.343ZM135.846 453.436C136.341 453.436 136.776 453.315 137.151 453.074C137.525 452.833 137.813 452.479 138.014 452.01C138.228 451.529 138.335 450.933 138.335 450.224C138.335 449.153 138.108 448.357 137.653 447.835C137.197 447.299 136.595 447.032 135.846 447.032C135.351 447.032 134.916 447.152 134.541 447.393C134.166 447.621 133.872 447.975 133.658 448.457C133.457 448.926 133.356 449.514 133.356 450.224C133.356 451.281 133.584 452.084 134.039 452.633C134.494 453.168 135.096 453.436 135.846 453.436ZM144.18 455.303C143.779 455.303 143.471 455.196 143.257 454.981C143.043 454.754 142.936 454.433 142.936 454.018V446.43C142.936 446.015 143.043 445.7 143.257 445.486C143.471 445.272 143.772 445.165 144.16 445.165C144.548 445.165 144.85 445.272 145.064 445.486C145.278 445.7 145.385 446.015 145.385 446.43V447.795L145.164 447.293C145.458 446.583 145.914 446.048 146.529 445.687C147.158 445.312 147.867 445.125 148.657 445.125C149.447 445.125 150.096 445.272 150.604 445.566C151.113 445.861 151.494 446.309 151.749 446.911C152.003 447.5 152.13 448.25 152.13 449.16V454.018C152.13 454.433 152.023 454.754 151.809 454.981C151.595 455.196 151.287 455.303 150.885 455.303C150.484 455.303 150.169 455.196 149.942 454.981C149.728 454.754 149.621 454.433 149.621 454.018V449.28C149.621 448.517 149.473 447.962 149.179 447.614C148.898 447.266 148.456 447.092 147.854 447.092C147.118 447.092 146.529 447.326 146.088 447.795C145.659 448.25 145.445 448.859 145.445 449.621V454.018C145.445 454.874 145.024 455.303 144.18 455.303ZM159.176 455.343C158.306 455.343 157.576 455.196 156.987 454.901C156.412 454.607 155.984 454.178 155.703 453.616C155.422 453.041 155.281 452.332 155.281 451.488V447.212H154.237C153.916 447.212 153.668 447.132 153.494 446.972C153.32 446.798 153.233 446.563 153.233 446.269C153.233 445.961 153.32 445.727 153.494 445.566C153.668 445.406 153.916 445.325 154.237 445.325H155.281V443.499C155.281 443.084 155.388 442.769 155.602 442.555C155.83 442.341 156.144 442.234 156.546 442.234C156.947 442.234 157.255 442.341 157.469 442.555C157.683 442.769 157.79 443.084 157.79 443.499V445.325H159.918C160.24 445.325 160.487 445.406 160.661 445.566C160.835 445.727 160.922 445.961 160.922 446.269C160.922 446.563 160.835 446.798 160.661 446.972C160.487 447.132 160.24 447.212 159.918 447.212H157.79V451.348C157.79 451.99 157.931 452.472 158.212 452.793C158.493 453.115 158.948 453.275 159.577 453.275C159.805 453.275 160.005 453.255 160.179 453.215C160.353 453.175 160.507 453.148 160.641 453.135C160.802 453.121 160.936 453.175 161.043 453.295C161.15 453.402 161.203 453.63 161.203 453.978C161.203 454.245 161.156 454.486 161.063 454.7C160.982 454.901 160.829 455.042 160.601 455.122C160.427 455.176 160.199 455.222 159.918 455.263C159.637 455.316 159.39 455.343 159.176 455.343ZM163.883 455.303C163.481 455.303 163.174 455.196 162.96 454.981C162.745 454.754 162.638 454.433 162.638 454.018V442.093C162.638 441.678 162.745 441.364 162.96 441.15C163.174 440.936 163.481 440.829 163.883 440.829C164.284 440.829 164.592 440.936 164.806 441.15C165.034 441.364 165.148 441.678 165.148 442.093V447.293H164.867C165.161 446.583 165.616 446.048 166.232 445.687C166.861 445.312 167.57 445.125 168.36 445.125C169.149 445.125 169.798 445.272 170.307 445.566C170.816 445.861 171.197 446.309 171.451 446.911C171.706 447.5 171.833 448.25 171.833 449.16V454.018C171.833 454.433 171.726 454.754 171.511 454.981C171.297 455.196 170.99 455.303 170.588 455.303C170.187 455.303 169.872 455.196 169.644 454.981C169.43 454.754 169.323 454.433 169.323 454.018V449.28C169.323 448.517 169.176 447.962 168.882 447.614C168.601 447.266 168.159 447.092 167.557 447.092C166.821 447.092 166.232 447.326 165.79 447.795C165.362 448.25 165.148 448.859 165.148 449.621V454.018C165.148 454.874 164.726 455.303 163.883 455.303Z" fill="#273430"/>
<path d="M323.561 454.642C323.347 454.642 323.151 454.595 322.972 454.499C322.794 454.392 322.651 454.25 322.544 454.071C322.449 453.893 322.401 453.696 322.401 453.482V450.342L322.901 450.52L321.848 451.091C321.586 451.234 321.354 451.275 321.152 451.216C320.962 451.145 320.819 451.02 320.724 450.841C320.641 450.663 320.635 450.472 320.706 450.27C320.778 450.056 320.944 449.878 321.206 449.735L322.776 448.86L322.401 449.521V447.397L322.901 447.576L321.848 448.147C321.586 448.289 321.354 448.331 321.152 448.272C320.962 448.2 320.819 448.075 320.724 447.897C320.641 447.718 320.635 447.528 320.706 447.326C320.778 447.112 320.944 446.933 321.206 446.791L322.776 445.916L322.401 446.576V443.061C322.401 442.728 322.508 442.454 322.723 442.24C322.949 442.026 323.228 441.919 323.561 441.919C323.787 441.919 323.984 441.972 324.15 442.08C324.317 442.175 324.448 442.306 324.543 442.472C324.638 442.639 324.685 442.835 324.685 443.061V444.845L326.702 443.721C326.964 443.578 327.19 443.537 327.38 443.596C327.582 443.656 327.725 443.775 327.808 443.953C327.892 444.132 327.897 444.328 327.826 444.542C327.767 444.756 327.606 444.935 327.344 445.077L324.685 446.559V447.79L326.702 446.666C326.964 446.523 327.19 446.481 327.38 446.541C327.582 446.6 327.725 446.719 327.808 446.898C327.892 447.076 327.897 447.272 327.826 447.486C327.767 447.701 327.606 447.879 327.344 448.022L324.685 449.503V452.733H326.256C326.815 452.733 327.219 452.626 327.469 452.412C327.719 452.185 327.844 451.811 327.844 451.287V450.877C327.844 450.556 327.945 450.306 328.147 450.127C328.35 449.949 328.605 449.86 328.915 449.86C329.224 449.86 329.48 449.955 329.682 450.145C329.884 450.324 329.985 450.585 329.985 450.93V451.412C329.985 452.495 329.688 453.304 329.093 453.839C328.51 454.374 327.6 454.642 326.363 454.642H323.561ZM335.903 454.821C334.416 454.821 333.28 454.261 332.494 453.143C331.709 452.013 331.317 450.407 331.317 448.325C331.317 446.921 331.489 445.744 331.834 444.792C332.191 443.828 332.709 443.103 333.387 442.615C334.077 442.127 334.915 441.883 335.903 441.883C337.402 441.883 338.538 442.431 339.311 443.525C340.096 444.619 340.489 446.214 340.489 448.307C340.489 449.699 340.31 450.883 339.953 451.858C339.608 452.822 339.097 453.56 338.419 454.071C337.741 454.571 336.902 454.821 335.903 454.821ZM335.903 452.947C336.712 452.947 337.306 452.572 337.687 451.823C338.08 451.073 338.276 449.901 338.276 448.307C338.276 446.713 338.08 445.559 337.687 444.845C337.306 444.12 336.712 443.757 335.903 443.757C335.106 443.757 334.511 444.12 334.118 444.845C333.726 445.559 333.529 446.713 333.529 448.307C333.529 449.901 333.726 451.073 334.118 451.823C334.511 452.572 335.106 452.947 335.903 452.947ZM343.48 454.731C343.075 454.731 342.748 454.606 342.498 454.357C342.26 454.107 342.141 453.786 342.141 453.393C342.141 453.012 342.26 452.703 342.498 452.465C342.748 452.215 343.075 452.09 343.48 452.09C343.896 452.09 344.217 452.215 344.443 452.465C344.681 452.703 344.8 453.012 344.8 453.393C344.8 453.786 344.681 454.107 344.443 454.357C344.217 454.606 343.896 454.731 343.48 454.731ZM350.047 454.821C349.536 454.821 349.006 454.743 348.459 454.589C347.912 454.422 347.4 454.178 346.924 453.857C346.734 453.738 346.609 453.583 346.55 453.393C346.49 453.203 346.478 453.018 346.514 452.84C346.562 452.649 346.645 452.489 346.764 452.358C346.895 452.215 347.055 452.132 347.246 452.108C347.436 452.072 347.644 452.12 347.87 452.251C348.275 452.489 348.655 452.655 349.012 452.751C349.369 452.846 349.726 452.893 350.083 452.893C350.773 452.893 351.356 452.733 351.832 452.412C352.308 452.09 352.664 451.609 352.902 450.966C353.152 450.312 353.277 449.509 353.277 448.557V447.219H353.491C353.408 447.814 353.212 448.331 352.902 448.771C352.593 449.211 352.2 449.55 351.725 449.788C351.249 450.014 350.719 450.127 350.136 450.127C349.423 450.127 348.78 449.955 348.209 449.61C347.65 449.265 347.21 448.789 346.889 448.182C346.568 447.564 346.407 446.868 346.407 446.095C346.407 445.274 346.579 444.548 346.924 443.918C347.281 443.287 347.775 442.793 348.406 442.436C349.036 442.068 349.756 441.883 350.565 441.883C351.612 441.883 352.498 442.127 353.224 442.615C353.949 443.103 354.502 443.816 354.883 444.756C355.264 445.684 355.454 446.808 355.454 448.129C355.454 449.2 355.329 450.151 355.079 450.984C354.841 451.805 354.491 452.501 354.027 453.072C353.563 453.643 352.992 454.077 352.314 454.374C351.647 454.672 350.892 454.821 350.047 454.821ZM350.707 448.307C351.136 448.307 351.51 448.212 351.832 448.022C352.165 447.82 352.421 447.546 352.599 447.201C352.777 446.844 352.867 446.44 352.867 445.988C352.867 445.524 352.777 445.119 352.599 444.774C352.421 444.429 352.165 444.161 351.832 443.971C351.51 443.781 351.136 443.686 350.707 443.686C350.279 443.686 349.904 443.781 349.583 443.971C349.262 444.161 349.006 444.429 348.816 444.774C348.638 445.119 348.548 445.524 348.548 445.988C348.548 446.44 348.638 446.844 348.816 447.201C349.006 447.546 349.262 447.82 349.583 448.022C349.904 448.212 350.279 448.307 350.707 448.307ZM360.747 454.821C360.235 454.821 359.706 454.743 359.159 454.589C358.612 454.422 358.1 454.178 357.624 453.857C357.434 453.738 357.309 453.583 357.249 453.393C357.19 453.203 357.178 453.018 357.214 452.84C357.261 452.649 357.345 452.489 357.464 452.358C357.594 452.215 357.755 452.132 357.945 452.108C358.136 452.072 358.344 452.12 358.57 452.251C358.974 452.489 359.355 452.655 359.712 452.751C360.069 452.846 360.426 452.893 360.783 452.893C361.473 452.893 362.056 452.733 362.531 452.412C363.007 452.09 363.364 451.609 363.602 450.966C363.852 450.312 363.977 449.509 363.977 448.557V447.219H364.191C364.108 447.814 363.911 448.331 363.602 448.771C363.293 449.211 362.9 449.55 362.424 449.788C361.949 450.014 361.419 450.127 360.836 450.127C360.122 450.127 359.48 449.955 358.909 449.61C358.35 449.265 357.91 448.789 357.589 448.182C357.267 447.564 357.107 446.868 357.107 446.095C357.107 445.274 357.279 444.548 357.624 443.918C357.981 443.287 358.475 442.793 359.105 442.436C359.736 442.068 360.456 441.883 361.264 441.883C362.311 441.883 363.198 442.127 363.923 442.615C364.649 443.103 365.202 443.816 365.583 444.756C365.964 445.684 366.154 446.808 366.154 448.129C366.154 449.2 366.029 450.151 365.779 450.984C365.541 451.805 365.19 452.501 364.726 453.072C364.262 453.643 363.691 454.077 363.013 454.374C362.347 454.672 361.592 454.821 360.747 454.821ZM361.407 448.307C361.835 448.307 362.21 448.212 362.531 448.022C362.865 447.82 363.12 447.546 363.299 447.201C363.477 446.844 363.566 446.44 363.566 445.988C363.566 445.524 363.477 445.119 363.299 444.774C363.12 444.429 362.865 444.161 362.531 443.971C362.21 443.781 361.835 443.686 361.407 443.686C360.979 443.686 360.604 443.781 360.283 443.971C359.962 444.161 359.706 444.429 359.516 444.774C359.337 445.119 359.248 445.524 359.248 445.988C359.248 446.44 359.337 446.844 359.516 447.201C359.706 447.546 359.962 447.82 360.283 448.022C360.604 448.212 360.979 448.307 361.407 448.307ZM373.49 455.16C373.418 455.386 373.305 455.546 373.151 455.641C372.996 455.748 372.823 455.802 372.633 455.802C372.455 455.802 372.288 455.754 372.133 455.659C371.979 455.564 371.872 455.427 371.812 455.249C371.741 455.082 371.741 454.88 371.812 454.642L375.934 441.848C376.006 441.622 376.119 441.455 376.273 441.348C376.44 441.241 376.612 441.193 376.791 441.205C376.969 441.205 377.136 441.253 377.291 441.348C377.445 441.443 377.552 441.574 377.612 441.741C377.683 441.907 377.683 442.109 377.612 442.347L373.49 455.16ZM388.157 454.785C387.836 454.785 387.574 454.708 387.372 454.553C387.182 454.398 387.027 454.154 386.908 453.821L383.178 443.275C383.048 442.894 383.071 442.573 383.25 442.312C383.44 442.05 383.755 441.919 384.196 441.919C384.517 441.919 384.767 441.996 384.945 442.151C385.124 442.294 385.266 442.526 385.373 442.847L388.585 452.376H387.872L391.226 442.865C391.345 442.544 391.494 442.306 391.672 442.151C391.851 441.996 392.083 441.919 392.368 441.919C392.654 441.919 392.88 441.996 393.047 442.151C393.213 442.306 393.356 442.549 393.475 442.883L396.722 452.376H396.098L399.363 442.847C399.471 442.538 399.613 442.306 399.792 442.151C399.97 441.996 400.214 441.919 400.523 441.919C400.904 441.919 401.184 442.05 401.362 442.312C401.54 442.573 401.564 442.894 401.433 443.275L397.668 453.839C397.549 454.16 397.395 454.398 397.204 454.553C397.014 454.708 396.758 454.785 396.437 454.785C396.116 454.785 395.86 454.708 395.67 454.553C395.479 454.398 395.325 454.154 395.206 453.821L392.101 444.97H392.511L389.371 453.839C389.252 454.16 389.097 454.398 388.907 454.553C388.728 454.708 388.478 454.785 388.157 454.785ZM406.569 454.821C405.581 454.821 404.731 454.636 404.017 454.267C403.303 453.899 402.75 453.375 402.357 452.697C401.977 452.019 401.786 451.216 401.786 450.288C401.786 449.384 401.971 448.593 402.34 447.915C402.72 447.237 403.238 446.707 403.892 446.327C404.558 445.934 405.314 445.738 406.158 445.738C406.777 445.738 407.33 445.839 407.818 446.041C408.318 446.243 408.74 446.535 409.085 446.915C409.442 447.296 409.709 447.76 409.888 448.307C410.078 448.843 410.173 449.449 410.173 450.127C410.173 450.342 410.096 450.508 409.941 450.627C409.799 450.734 409.59 450.788 409.317 450.788H403.589V449.503H408.603L408.318 449.771C408.318 449.223 408.234 448.765 408.068 448.397C407.913 448.028 407.681 447.748 407.372 447.558C407.074 447.356 406.7 447.254 406.248 447.254C405.748 447.254 405.32 447.373 404.963 447.611C404.618 447.837 404.35 448.165 404.16 448.593C403.981 449.009 403.892 449.509 403.892 450.092V450.217C403.892 451.192 404.118 451.924 404.57 452.412C405.034 452.887 405.712 453.125 406.604 453.125C406.914 453.125 407.259 453.09 407.639 453.018C408.032 452.935 408.401 452.798 408.746 452.608C408.996 452.465 409.216 452.406 409.406 452.429C409.596 452.441 409.745 452.507 409.852 452.626C409.971 452.745 410.042 452.893 410.066 453.072C410.09 453.238 410.054 453.411 409.959 453.589C409.876 453.768 409.727 453.922 409.513 454.053C409.097 454.315 408.615 454.511 408.068 454.642C407.532 454.761 407.033 454.821 406.569 454.821ZM416.24 454.821C415.253 454.821 414.402 454.636 413.689 454.267C412.975 453.899 412.422 453.375 412.029 452.697C411.648 452.019 411.458 451.216 411.458 450.288C411.458 449.384 411.642 448.593 412.011 447.915C412.392 447.237 412.909 446.707 413.564 446.327C414.23 445.934 414.985 445.738 415.83 445.738C416.449 445.738 417.002 445.839 417.489 446.041C417.989 446.243 418.411 446.535 418.756 446.915C419.113 447.296 419.381 447.76 419.559 448.307C419.75 448.843 419.845 449.449 419.845 450.127C419.845 450.342 419.768 450.508 419.613 450.627C419.47 450.734 419.262 450.788 418.988 450.788H413.26V449.503H418.275L417.989 449.771C417.989 449.223 417.906 448.765 417.739 448.397C417.585 448.028 417.353 447.748 417.043 447.558C416.746 447.356 416.371 447.254 415.919 447.254C415.419 447.254 414.991 447.373 414.634 447.611C414.289 447.837 414.022 448.165 413.831 448.593C413.653 449.009 413.564 449.509 413.564 450.092V450.217C413.564 451.192 413.79 451.924 414.242 452.412C414.706 452.887 415.384 453.125 416.276 453.125C416.585 453.125 416.93 453.09 417.311 453.018C417.704 452.935 418.072 452.798 418.417 452.608C418.667 452.465 418.887 452.406 419.078 452.429C419.268 452.441 419.417 452.507 419.524 452.626C419.643 452.745 419.714 452.893 419.738 453.072C419.762 453.238 419.726 453.411 419.631 453.589C419.547 453.768 419.399 453.922 419.185 454.053C418.768 454.315 418.286 454.511 417.739 454.642C417.204 454.761 416.704 454.821 416.24 454.821ZM422.718 454.785C422.361 454.785 422.087 454.69 421.897 454.499C421.707 454.297 421.611 454.012 421.611 453.643V443.043C421.611 442.674 421.707 442.395 421.897 442.204C422.087 442.014 422.361 441.919 422.718 441.919C423.075 441.919 423.348 442.014 423.539 442.204C423.741 442.395 423.842 442.674 423.842 443.043V449.628H423.878L426.822 446.523C427.06 446.285 427.268 446.101 427.447 445.97C427.625 445.839 427.869 445.773 428.178 445.773C428.487 445.773 428.719 445.857 428.874 446.023C429.041 446.178 429.124 446.368 429.124 446.594C429.124 446.82 429.017 447.046 428.803 447.272L425.698 450.556V449.628L429.106 453.304C429.32 453.53 429.415 453.762 429.392 454C429.38 454.226 429.285 454.416 429.106 454.571C428.928 454.713 428.702 454.785 428.428 454.785C428.095 454.785 427.827 454.719 427.625 454.589C427.435 454.458 427.22 454.261 426.983 454L423.878 450.752H423.842V453.643C423.842 454.404 423.467 454.785 422.718 454.785Z" fill="black"/>
<defs>
<radialGradient id="paint0_radial_8284_23055" cx="0" cy="0" r="1" gradientUnits="userSpaceOnUse" gradientTransform="translate(264.57 113.71) rotate(90) scale(113.71 20.0228)">
<stop stop-color="white"/>
<stop offset="1" stop-color="white" stop-opacity="0"/>
</radialGradient>
<radialGradient id="paint1_radial_8284_23055" cx="0" cy="0" r="1" gradientUnits="userSpaceOnUse" gradientTransform="translate(310.591 117.177) rotate(90) scale(113.016 41.2527)">
<stop stop-color="white"/>
<stop offset="1" stop-color="white" stop-opacity="0"/>
</radialGradient>
<radialGradient id="paint2_radial_8284_23055" cx="0" cy="0" r="1" gradientUnits="userSpaceOnUse" gradientTransform="translate(345.624 130.557) rotate(90) scale(104.635 67.4324)">
<stop stop-color="white"/>
<stop offset="1" stop-color="white" stop-opacity="0"/>
</radialGradient>
<radialGradient id="paint3_radial_8284_23055" cx="0" cy="0" r="1" gradientUnits="userSpaceOnUse" gradientTransform="translate(375.04 152.94) rotate(90) scale(89.1378 89.0241)">
<stop stop-color="white"/>
<stop offset="1" stop-color="white" stop-opacity="0"/>
</radialGradient>
<radialGradient id="paint4_radial_8284_23055" cx="0" cy="0" r="1" gradientUnits="userSpaceOnUse" gradientTransform="translate(396.838 182.804) rotate(90) scale(67.5784 104.562)">
<stop stop-color="white"/>
<stop offset="1" stop-color="white" stop-opacity="0"/>
</radialGradient>
<radialGradient id="paint5_radial_8284_23055" cx="0" cy="0" r="1" gradientUnits="userSpaceOnUse" gradientTransform="translate(409.536 218.119) rotate(90) scale(41.422 112.987)">
<stop stop-color="white"/>
<stop offset="1" stop-color="white" stop-opacity="0"/>
</radialGradient>
<radialGradient id="paint6_radial_8284_23055" cx="0" cy="0" r="1" gradientUnits="userSpaceOnUse" gradientTransform="translate(412.27 264.054) rotate(90) scale(20.0241 113.729)">
<stop stop-color="white"/>
<stop offset="1" stop-color="white" stop-opacity="0"/>
</radialGradient>
<radialGradient id="paint7_radial_8284_23055" cx="0" cy="0" r="1" gradientUnits="userSpaceOnUse" gradientTransform="translate(408.84 310.266) rotate(90) scale(41.0846 113.043)">
<stop stop-color="white"/>
<stop offset="1" stop-color="white" stop-opacity="0"/>
</radialGradient>
<radialGradient id="paint8_radial_8284_23055" cx="0" cy="0" r="1" gradientUnits="userSpaceOnUse" gradientTransform="translate(395.518 345.328) rotate(90) scale(67.285 104.707)">
<stop stop-color="white"/>
<stop offset="1" stop-color="white" stop-opacity="0"/>
</radialGradient>
<radialGradient id="paint9_radial_8284_23055" cx="0" cy="0" r="1" gradientUnits="userSpaceOnUse" gradientTransform="translate(373.186 374.784) rotate(90) scale(88.9104 89.2503)">
<stop stop-color="white"/>
<stop offset="1" stop-color="white" stop-opacity="0"/>
</radialGradient>
<radialGradient id="paint10_radial_8284_23055" cx="0" cy="0" r="1" gradientUnits="userSpaceOnUse" gradientTransform="translate(343.362 396.634) rotate(90) scale(104.489 67.7231)">
<stop stop-color="white"/>
<stop offset="1" stop-color="white" stop-opacity="0"/>
</radialGradient>
<radialGradient id="paint11_radial_8284_23055" cx="0" cy="0" r="1" gradientUnits="userSpaceOnUse" gradientTransform="translate(308.076 409.389) rotate(90) scale(112.959 41.5913)">
<stop stop-color="white"/>
<stop offset="1" stop-color="white" stop-opacity="0"/>
</radialGradient>
<radialGradient id="paint12_radial_8284_23055" cx="0" cy="0" r="1" gradientUnits="userSpaceOnUse" gradientTransform="translate(262.329 412.185) rotate(90) scale(113.749 20.0241)">
<stop stop-color="white"/>
<stop offset="1" stop-color="white" stop-opacity="0"/>
</radialGradient>
<radialGradient id="paint13_radial_8284_23055" cx="0" cy="0" r="1" gradientUnits="userSpaceOnUse" gradientTransform="translate(215.925 408.792) rotate(90) scale(113.07 40.9154)">
<stop stop-color="white"/>
<stop offset="1" stop-color="white" stop-opacity="0"/>
</radialGradient>
<radialGradient id="paint14_radial_8284_23055" cx="0" cy="0" r="1" gradientUnits="userSpaceOnUse" gradientTransform="translate(180.837 395.527) rotate(90) scale(104.781 67.1377)">
<stop stop-color="white"/>
<stop offset="1" stop-color="white" stop-opacity="0"/>
</radialGradient>
<radialGradient id="paint15_radial_8284_23055" cx="0" cy="0" r="1" gradientUnits="userSpaceOnUse" gradientTransform="translate(151.338 373.245) rotate(90) scale(89.364 88.7953)">
<stop stop-color="white"/>
<stop offset="1" stop-color="white" stop-opacity="0"/>
</radialGradient>
<radialGradient id="paint16_radial_8284_23055" cx="0" cy="0" r="1" gradientUnits="userSpaceOnUse" gradientTransform="translate(129.438 343.46) rotate(90) scale(67.8692 104.415)">
<stop stop-color="white"/>
<stop offset="1" stop-color="white" stop-opacity="0"/>
</radialGradient>
<radialGradient id="paint17_radial_8284_23055" cx="0" cy="0" r="1" gradientUnits="userSpaceOnUse" gradientTransform="translate(116.624 308.2) rotate(90) scale(41.7606 112.93)">
<stop stop-color="white"/>
<stop offset="1" stop-color="white" stop-opacity="0"/>
</radialGradient>
<radialGradient id="paint18_radial_8284_23055" cx="0" cy="0" r="1" gradientUnits="userSpaceOnUse" gradientTransform="translate(113.767 262.646) rotate(90) scale(20.0228 113.767)">
<stop stop-color="white"/>
<stop offset="1" stop-color="white" stop-opacity="0"/>
</radialGradient>
<radialGradient id="paint19_radial_8284_23055" cx="0" cy="0" r="1" gradientUnits="userSpaceOnUse" gradientTransform="translate(117.122 216.05) rotate(90) scale(40.7461 113.098)">
<stop stop-color="white"/>
<stop offset="1" stop-color="white" stop-opacity="0"/>
</radialGradient>
<radialGradient id="paint20_radial_8284_23055" cx="0" cy="0" r="1" gradientUnits="userSpaceOnUse" gradientTransform="translate(130.328 180.934) rotate(90) scale(66.9929 104.853)">
<stop stop-color="white"/>
<stop offset="1" stop-color="white" stop-opacity="0"/>
</radialGradient>
<radialGradient id="paint21_radial_8284_23055" cx="0" cy="0" r="1" gradientUnits="userSpaceOnUse" gradientTransform="translate(152.558 151.397) rotate(90) scale(88.6829 89.4764)">
<stop stop-color="white"/>
<stop offset="1" stop-color="white" stop-opacity="0"/>
</radialGradient>
<radialGradient id="paint22_radial_8284_23055" cx="0" cy="0" r="1" gradientUnits="userSpaceOnUse" gradientTransform="translate(182.306 129.446) rotate(90) scale(104.34 68.0152)">
<stop stop-color="white"/>
<stop offset="1" stop-color="white" stop-opacity="0"/>
</radialGradient>
<radialGradient id="paint23_radial_8284_23055" cx="0" cy="0" r="1" gradientUnits="userSpaceOnUse" gradientTransform="translate(217.542 116.572) rotate(90) scale(112.902 41.9286)">
<stop stop-color="white"/>
<stop offset="1" stop-color="white" stop-opacity="0"/>
</radialGradient>
<clipPath id="clip0_8284_23055">
<rect width="526" height="525.933" fill="white"/>
</clipPath>
</defs>
</svg>
