<svg width="375" height="526" viewBox="0 0 375 526" fill="none" xmlns="http://www.w3.org/2000/svg">
<rect width="375" height="526" fill="#813BBA"/>
<g style="mix-blend-mode:soft-light" opacity="0.2" clip-path="url(#clip0_8296_24478)">
<path d="M191.837 227.449H185.4L174.344 0H202.893L191.837 227.449Z" fill="url(#paint0_radial_8296_24478)"/>
<path d="M198.237 230.223L192.02 227.886L223.26 4.16211L250.84 14.518L198.237 230.223Z" fill="url(#paint1_radial_8296_24478)"/>
<path d="M203.908 235.222L198.33 230.711L269.746 25.9258L294.479 45.9343L203.908 235.222Z" fill="url(#paint2_radial_8296_24478)"/>
<path d="M208.463 242.109L203.908 235.729L310.64 63.8105L330.844 92.1095L208.463 242.109Z" fill="url(#paint3_radial_8296_24478)"/>
<path d="M211.596 250.415L208.371 242.598L343.16 115.241L357.462 149.907L211.596 250.415Z" fill="url(#paint4_radial_8296_24478)"/>
<path d="M213.093 259.574L211.418 250.852L365.095 176.719L372.522 215.392L213.093 259.574Z" fill="url(#paint5_radial_8296_24478)"/>
<path d="M212.847 268.963L212.838 259.931L374.953 244.061L374.999 284.114L212.847 268.963Z" fill="url(#paint6_radial_8296_24478)"/>
<path d="M210.883 277.946L212.538 269.216L372.066 312.689L364.728 351.396L210.883 277.946Z" fill="url(#paint7_radial_8296_24478)"/>
<path d="M207.328 285.908L210.535 278.078L356.625 377.937L342.403 412.665L207.328 285.908Z" fill="url(#paint8_radial_8296_24478)"/>
<path d="M202.426 292.311L206.966 285.91L329.684 435.364L309.544 463.754L202.426 292.311Z" fill="url(#paint9_radial_8296_24478)"/>
<path d="M196.512 296.719L202.079 292.182L293.075 481.069L268.388 501.186L196.512 296.719Z" fill="url(#paint10_radial_8296_24478)"/>
<path d="M189.984 298.831L196.198 296.468L249.288 511.937L221.731 522.415L189.984 298.831Z" fill="url(#paint11_radial_8296_24478)"/>
<path d="M183.288 298.503L189.727 298.474L201.298 525.874L172.746 526L183.288 298.503Z" fill="url(#paint12_radial_8296_24478)"/>
<path d="M176.884 295.76L183.109 298.066L152.372 521.929L124.77 511.694L176.884 295.76Z" fill="url(#paint13_radial_8296_24478)"/>
<path d="M171.2 290.783L176.787 295.271L105.836 500.372L81.0586 480.474L171.2 290.783Z" fill="url(#paint14_radial_8296_24478)"/>
<path d="M166.629 283.917L171.199 290.279L64.8582 462.668L44.5898 434.46L166.629 283.917Z" fill="url(#paint15_radial_8296_24478)"/>
<path d="M163.477 275.626L166.721 283.428L32.2206 411.382L17.8398 376.781L163.477 275.626Z" fill="url(#paint16_radial_8296_24478)"/>
<path d="M161.962 266.473L163.655 275.187L10.1457 350.005L2.63281 311.363L161.962 266.473Z" fill="url(#paint17_radial_8296_24478)"/>
<path d="M162.185 257.084L162.215 266.114L0.136363 282.705L0 242.654L162.185 257.084Z" fill="url(#paint18_radial_8296_24478)"/>
<path d="M164.131 248.094L162.497 256.829L2.86914 214.064L10.1203 175.326L164.131 248.094Z" fill="url(#paint19_radial_8296_24478)"/>
<path d="M167.668 240.113L164.478 247.959L18.1621 148.749L32.307 113.956L167.668 240.113Z" fill="url(#paint20_radial_8296_24478)"/>
<path d="M172.553 233.689L168.027 240.111L44.9727 91.202L65.0493 62.7222L172.553 233.689Z" fill="url(#paint21_radial_8296_24478)"/>
<path d="M178.46 229.256L172.904 233.816L81.4805 45.3351L106.122 25.1094L178.46 229.256Z" fill="url(#paint22_radial_8296_24478)"/>
<path d="M184.983 227.113L178.775 229.504L125.199 14.2723L152.733 3.6709L184.983 227.113Z" fill="url(#paint23_radial_8296_24478)"/>
</g>
<rect x="21.9356" y="321.115" width="331.128" height="73.6086" rx="16.7292" fill="white"/>
<rect x="21.9356" y="321.115" width="331.128" height="73.6086" rx="16.7292" stroke="#FF8B2D" stroke-width="2.23056"/>
<path d="M49.3282 364.08C48.9133 364.08 48.5921 363.966 48.3646 363.739C48.1505 363.498 48.0434 363.163 48.0434 362.735V356.632L48.5854 358.178L43.7473 351.373C43.5733 351.132 43.493 350.877 43.5064 350.61C43.5332 350.329 43.647 350.094 43.8477 349.907C44.0485 349.706 44.3295 349.606 44.6909 349.606C44.9585 349.606 45.1994 349.673 45.4136 349.807C45.6411 349.94 45.8552 350.148 46.056 350.429L49.6494 355.528H49.0873L52.7008 350.429C52.9149 350.135 53.1224 349.927 53.3231 349.807C53.5239 349.673 53.7715 349.606 54.0659 349.606C54.4139 349.606 54.6815 349.7 54.8689 349.887C55.0697 350.061 55.17 350.282 55.17 350.549C55.1834 350.817 55.0897 351.098 54.889 351.393L50.091 358.178L50.613 356.632V362.735C50.613 363.632 50.1847 364.08 49.3282 364.08ZM60.0113 364.12C58.9004 364.12 57.9435 363.913 57.1405 363.498C56.3375 363.083 55.7152 362.494 55.2736 361.731C54.8453 360.968 54.6311 360.065 54.6311 359.021C54.6311 358.004 54.8386 357.114 55.2535 356.351C55.6817 355.588 56.2639 354.993 57 354.564C57.7495 354.123 58.5993 353.902 59.5495 353.902C60.2455 353.902 60.8678 354.016 61.4165 354.243C61.9786 354.471 62.4537 354.799 62.8419 355.227C63.2434 355.655 63.5445 356.177 63.7452 356.793C63.9594 357.395 64.0664 358.078 64.0664 358.84C64.0664 359.081 63.9794 359.269 63.8055 359.403C63.6449 359.523 63.4106 359.583 63.1028 359.583H56.6587V358.138H62.2998L61.9786 358.439C61.9786 357.823 61.8849 357.308 61.6976 356.893C61.5236 356.478 61.2626 356.164 60.9146 355.95C60.5801 355.722 60.1585 355.608 59.6499 355.608C59.0878 355.608 58.606 355.742 58.2045 356.01C57.8164 356.264 57.5153 356.632 57.3011 357.114C57.1004 357.582 57 358.145 57 358.8V358.941C57 360.038 57.2543 360.861 57.7629 361.41C58.2848 361.945 59.0477 362.213 60.0514 362.213C60.3994 362.213 60.7875 362.173 61.2158 362.093C61.6574 361.999 62.0723 361.845 62.4604 361.631C62.7415 361.47 62.9891 361.403 63.2032 361.43C63.4173 361.444 63.5846 361.517 63.7051 361.651C63.8389 361.785 63.9192 361.952 63.946 362.153C63.9727 362.34 63.9326 362.534 63.8255 362.735C63.7318 362.936 63.5646 363.11 63.3237 363.257C62.8552 363.551 62.3132 363.772 61.6976 363.919C61.0953 364.053 60.5332 364.12 60.0113 364.12ZM69.2858 364.12C68.5765 364.12 67.9408 363.986 67.3787 363.719C66.8299 363.438 66.395 363.063 66.0738 362.594C65.766 362.126 65.6121 361.597 65.6121 361.009C65.6121 360.286 65.7994 359.717 66.1742 359.302C66.5489 358.874 67.1578 358.566 68.001 358.379C68.8441 358.191 69.975 358.098 71.3937 358.098H72.3974V359.543H71.4137C70.584 359.543 69.9215 359.583 69.4263 359.664C68.9311 359.744 68.5765 359.884 68.3623 360.085C68.1616 360.272 68.0612 360.54 68.0612 360.888C68.0612 361.33 68.2151 361.691 68.5229 361.972C68.8308 362.253 69.259 362.394 69.8077 362.394C70.2494 362.394 70.6375 362.293 70.9721 362.093C71.3201 361.878 71.5944 361.591 71.7952 361.229C71.9959 360.868 72.0963 360.453 72.0963 359.985V357.676C72.0963 357.007 71.9491 356.525 71.6546 356.231C71.3602 355.936 70.865 355.789 70.1691 355.789C69.781 355.789 69.3594 355.836 68.9044 355.93C68.4627 356.023 67.9943 356.184 67.4991 356.411C67.2448 356.532 67.0173 356.565 66.8166 356.512C66.6292 356.458 66.482 356.351 66.3749 356.191C66.2678 356.017 66.2143 355.829 66.2143 355.628C66.2143 355.428 66.2678 355.234 66.3749 355.046C66.482 354.846 66.6626 354.698 66.9169 354.605C67.5326 354.35 68.1214 354.17 68.6835 354.063C69.259 353.956 69.781 353.902 70.2494 353.902C71.213 353.902 72.0026 354.049 72.6183 354.344C73.2473 354.638 73.7157 355.086 74.0235 355.689C74.3313 356.278 74.4852 357.04 74.4852 357.977V362.795C74.4852 363.21 74.3849 363.531 74.1841 363.759C73.9834 363.973 73.6956 364.08 73.3209 364.08C72.9461 364.08 72.6517 363.973 72.4376 363.759C72.2368 363.531 72.1364 363.21 72.1364 362.795V361.832H72.2971C72.2034 362.3 72.016 362.708 71.7349 363.056C71.4673 363.391 71.126 363.652 70.7111 363.839C70.2962 364.027 69.8211 364.12 69.2858 364.12ZM78.3171 364.08C77.9022 364.08 77.581 363.973 77.3535 363.759C77.1393 363.531 77.0323 363.21 77.0323 362.795V355.207C77.0323 354.792 77.1393 354.477 77.3535 354.263C77.5676 354.049 77.8687 353.942 78.2568 353.942C78.645 353.942 78.9461 354.049 79.1602 354.263C79.3743 354.477 79.4814 354.792 79.4814 355.207V356.472H79.2807C79.468 355.669 79.8361 355.06 80.3848 354.645C80.9335 354.23 81.6629 353.982 82.573 353.902C82.854 353.875 83.0749 353.949 83.2355 354.123C83.4094 354.283 83.5098 354.538 83.5366 354.886C83.5633 355.22 83.483 355.495 83.2957 355.709C83.1217 355.909 82.854 356.03 82.4927 356.07L82.051 356.11C81.2346 356.191 80.619 356.445 80.2041 356.873C79.7892 357.288 79.5818 357.877 79.5818 358.64V362.795C79.5818 363.21 79.4747 363.531 79.2606 363.759C79.0465 363.973 78.7319 364.08 78.3171 364.08ZM88.2462 364.12C87.1354 364.12 86.2989 363.806 85.7368 363.177C85.1747 362.534 84.8937 361.597 84.8937 360.366V350.871C84.8937 350.456 85.0007 350.141 85.2149 349.927C85.429 349.713 85.7368 349.606 86.1383 349.606C86.5398 349.606 86.8477 349.713 87.0618 349.927C87.2893 350.141 87.4031 350.456 87.4031 350.871V360.246C87.4031 360.861 87.5302 361.316 87.7845 361.611C88.0522 361.905 88.4269 362.052 88.9087 362.052C89.0158 362.052 89.1161 362.052 89.2098 362.052C89.3035 362.039 89.3972 362.026 89.4909 362.012C89.6782 361.986 89.8054 362.039 89.8723 362.173C89.9392 362.293 89.9727 362.548 89.9727 362.936C89.9727 363.27 89.9058 363.531 89.7719 363.719C89.6381 363.906 89.4173 364.02 89.1094 364.06C88.9756 364.073 88.8351 364.087 88.6879 364.1C88.5407 364.113 88.3934 364.12 88.2462 364.12ZM93.5388 367.694C93.2444 367.694 93.0035 367.613 92.8161 367.453C92.6288 367.305 92.515 367.105 92.4748 366.85C92.4481 366.596 92.4949 366.328 92.6154 366.047L93.9805 363.016V364.06L90.3268 355.608C90.2064 355.314 90.1662 355.04 90.2064 354.785C90.2465 354.531 90.367 354.33 90.5677 354.183C90.7818 354.022 91.0696 353.942 91.4309 353.942C91.7388 353.942 91.9864 354.016 92.1737 354.163C92.3611 354.297 92.5284 354.558 92.6756 354.946L95.3857 361.711H94.7835L97.5538 354.926C97.7011 354.551 97.875 354.297 98.0758 354.163C98.2765 354.016 98.5442 353.942 98.8788 353.942C99.1732 353.942 99.4074 354.022 99.5814 354.183C99.7554 354.33 99.8625 354.531 99.9026 354.785C99.9428 355.026 99.8959 355.294 99.7621 355.588L94.8839 366.73C94.7099 367.105 94.5225 367.359 94.3218 367.493C94.121 367.627 93.86 367.694 93.5388 367.694Z" fill="#273430"/>
<path d="M223.405 365.614C223.143 365.614 222.929 365.525 222.762 365.347C222.596 365.18 222.513 364.972 222.513 364.722V363.134L222.923 363.527C222.102 363.503 221.371 363.396 220.728 363.205C220.098 363.015 219.562 362.795 219.122 362.545C218.908 362.414 218.759 362.254 218.676 362.063C218.593 361.861 218.563 361.659 218.587 361.457C218.611 361.254 218.682 361.082 218.801 360.939C218.932 360.784 219.092 360.689 219.283 360.654C219.473 360.606 219.693 360.654 219.943 360.796C220.276 360.987 220.71 361.171 221.246 361.349C221.793 361.516 222.447 361.599 223.209 361.599C223.803 361.599 224.285 361.528 224.654 361.385C225.023 361.242 225.29 361.046 225.457 360.796C225.635 360.546 225.725 360.261 225.725 359.94C225.725 359.678 225.665 359.452 225.546 359.262C225.427 359.059 225.231 358.887 224.957 358.744C224.684 358.59 224.315 358.465 223.851 358.369L221.959 357.959C220.877 357.721 220.068 357.323 219.533 356.763C218.997 356.204 218.73 355.473 218.73 354.569C218.73 353.867 218.902 353.242 219.247 352.695C219.592 352.136 220.074 351.69 220.692 351.357C221.311 351.023 222.037 350.827 222.87 350.768L222.513 351.035V349.536C222.513 349.287 222.596 349.078 222.762 348.912C222.929 348.733 223.143 348.644 223.405 348.644C223.655 348.644 223.863 348.733 224.029 348.912C224.208 349.078 224.297 349.287 224.297 349.536V351.035L223.922 350.75C224.434 350.762 224.993 350.863 225.6 351.053C226.218 351.244 226.748 351.511 227.188 351.856C227.366 351.999 227.485 352.165 227.545 352.356C227.604 352.534 227.61 352.713 227.563 352.891C227.515 353.058 227.426 353.2 227.295 353.319C227.164 353.438 226.998 353.51 226.795 353.534C226.605 353.545 226.385 353.48 226.135 353.337C225.79 353.135 225.403 352.974 224.975 352.855C224.547 352.725 224.035 352.659 223.441 352.659C222.679 352.659 222.078 352.832 221.638 353.177C221.21 353.51 220.996 353.95 220.996 354.497C220.996 354.902 221.127 355.229 221.388 355.479C221.65 355.717 222.096 355.907 222.727 356.05L224.672 356.478C225.814 356.728 226.653 357.126 227.188 357.674C227.723 358.209 227.991 358.917 227.991 359.797C227.991 360.487 227.818 361.1 227.473 361.635C227.128 362.158 226.653 362.581 226.046 362.902C225.451 363.211 224.755 363.408 223.958 363.491L224.297 363.116V364.722C224.297 364.972 224.214 365.18 224.047 365.347C223.881 365.525 223.667 365.614 223.405 365.614ZM232.945 363.598C232.433 363.598 231.904 363.521 231.357 363.366C230.809 363.199 230.298 362.955 229.822 362.634C229.632 362.515 229.507 362.361 229.447 362.17C229.388 361.98 229.376 361.796 229.411 361.617C229.459 361.427 229.542 361.266 229.661 361.135C229.792 360.993 229.953 360.909 230.143 360.886C230.333 360.85 230.542 360.897 230.768 361.028C231.172 361.266 231.553 361.433 231.91 361.528C232.267 361.623 232.623 361.671 232.98 361.671C233.67 361.671 234.253 361.51 234.729 361.189C235.205 360.868 235.562 360.386 235.8 359.743C236.05 359.089 236.175 358.286 236.175 357.334V355.996H236.389C236.305 356.591 236.109 357.108 235.8 357.549C235.49 357.989 235.098 358.328 234.622 358.566C234.146 358.792 233.617 358.905 233.034 358.905C232.32 358.905 231.678 358.732 231.107 358.387C230.548 358.042 230.107 357.566 229.786 356.96C229.465 356.341 229.304 355.645 229.304 354.872C229.304 354.051 229.477 353.325 229.822 352.695C230.179 352.064 230.672 351.571 231.303 351.214C231.933 350.845 232.653 350.661 233.462 350.661C234.509 350.661 235.395 350.904 236.121 351.392C236.847 351.88 237.4 352.594 237.781 353.534C238.161 354.461 238.352 355.586 238.352 356.906C238.352 357.977 238.227 358.929 237.977 359.761C237.739 360.582 237.388 361.278 236.924 361.849C236.46 362.42 235.889 362.854 235.211 363.152C234.545 363.449 233.789 363.598 232.945 363.598ZM233.605 357.085C234.033 357.085 234.408 356.989 234.729 356.799C235.062 356.597 235.318 356.323 235.496 355.978C235.675 355.621 235.764 355.217 235.764 354.765C235.764 354.301 235.675 353.896 235.496 353.551C235.318 353.206 235.062 352.939 234.729 352.748C234.408 352.558 234.033 352.463 233.605 352.463C233.177 352.463 232.802 352.558 232.481 352.748C232.16 352.939 231.904 353.206 231.713 353.551C231.535 353.896 231.446 354.301 231.446 354.765C231.446 355.217 231.535 355.621 231.713 355.978C231.904 356.323 232.16 356.597 232.481 356.799C232.802 356.989 233.177 357.085 233.605 357.085ZM241.503 363.509C241.099 363.509 240.771 363.384 240.522 363.134C240.284 362.884 240.165 362.563 240.165 362.17C240.165 361.79 240.284 361.48 240.522 361.242C240.771 360.993 241.099 360.868 241.503 360.868C241.919 360.868 242.241 360.993 242.467 361.242C242.705 361.48 242.824 361.79 242.824 362.17C242.824 362.563 242.705 362.884 242.467 363.134C242.241 363.384 241.919 363.509 241.503 363.509ZM248.071 363.598C247.559 363.598 247.03 363.521 246.483 363.366C245.935 363.199 245.424 362.955 244.948 362.634C244.758 362.515 244.633 362.361 244.573 362.17C244.514 361.98 244.502 361.796 244.537 361.617C244.585 361.427 244.668 361.266 244.787 361.135C244.918 360.993 245.079 360.909 245.269 360.886C245.459 360.85 245.668 360.897 245.894 361.028C246.298 361.266 246.679 361.433 247.036 361.528C247.393 361.623 247.749 361.671 248.106 361.671C248.796 361.671 249.379 361.51 249.855 361.189C250.331 360.868 250.688 360.386 250.926 359.743C251.176 359.089 251.301 358.286 251.301 357.334V355.996H251.515C251.431 356.591 251.235 357.108 250.926 357.549C250.617 357.989 250.224 358.328 249.748 358.566C249.272 358.792 248.743 358.905 248.16 358.905C247.446 358.905 246.804 358.732 246.233 358.387C245.674 358.042 245.233 357.566 244.912 356.96C244.591 356.341 244.43 355.645 244.43 354.872C244.43 354.051 244.603 353.325 244.948 352.695C245.305 352.064 245.798 351.571 246.429 351.214C247.059 350.845 247.779 350.661 248.588 350.661C249.635 350.661 250.521 350.904 251.247 351.392C251.973 351.88 252.526 352.594 252.907 353.534C253.287 354.461 253.478 355.586 253.478 356.906C253.478 357.977 253.353 358.929 253.103 359.761C252.865 360.582 252.514 361.278 252.05 361.849C251.586 362.42 251.015 362.854 250.337 363.152C249.671 363.449 248.915 363.598 248.071 363.598ZM248.731 357.085C249.159 357.085 249.534 356.989 249.855 356.799C250.188 356.597 250.444 356.323 250.622 355.978C250.801 355.621 250.89 355.217 250.89 354.765C250.89 354.301 250.801 353.896 250.622 353.551C250.444 353.206 250.188 352.939 249.855 352.748C249.534 352.558 249.159 352.463 248.731 352.463C248.303 352.463 247.928 352.558 247.607 352.748C247.286 352.939 247.03 353.206 246.839 353.551C246.661 353.896 246.572 354.301 246.572 354.765C246.572 355.217 246.661 355.621 246.839 355.978C247.03 356.323 247.286 356.597 247.607 356.799C247.928 356.989 248.303 357.085 248.731 357.085ZM258.77 363.598C258.259 363.598 257.729 363.521 257.182 363.366C256.635 363.199 256.123 362.955 255.648 362.634C255.457 362.515 255.332 362.361 255.273 362.17C255.213 361.98 255.202 361.796 255.237 361.617C255.285 361.427 255.368 361.266 255.487 361.135C255.618 360.993 255.778 360.909 255.969 360.886C256.159 360.85 256.367 360.897 256.593 361.028C256.998 361.266 257.379 361.433 257.735 361.528C258.092 361.623 258.449 361.671 258.806 361.671C259.496 361.671 260.079 361.51 260.555 361.189C261.031 360.868 261.388 360.386 261.626 359.743C261.875 359.089 262 358.286 262 357.334V355.996H262.214C262.131 356.591 261.935 357.108 261.626 357.549C261.316 357.989 260.924 358.328 260.448 358.566C259.972 358.792 259.443 358.905 258.86 358.905C258.146 358.905 257.503 358.732 256.932 358.387C256.373 358.042 255.933 357.566 255.612 356.96C255.291 356.341 255.13 355.645 255.13 354.872C255.13 354.051 255.303 353.325 255.648 352.695C256.005 352.064 256.498 351.571 257.129 351.214C257.759 350.845 258.479 350.661 259.288 350.661C260.335 350.661 261.221 350.904 261.947 351.392C262.672 351.88 263.226 352.594 263.606 353.534C263.987 354.461 264.177 355.586 264.177 356.906C264.177 357.977 264.052 358.929 263.803 359.761C263.565 360.582 263.214 361.278 262.75 361.849C262.286 362.42 261.715 362.854 261.037 363.152C260.37 363.449 259.615 363.598 258.77 363.598ZM259.431 357.085C259.859 357.085 260.234 356.989 260.555 356.799C260.888 356.597 261.144 356.323 261.322 355.978C261.501 355.621 261.59 355.217 261.59 354.765C261.59 354.301 261.501 353.896 261.322 353.551C261.144 353.206 260.888 352.939 260.555 352.748C260.234 352.558 259.859 352.463 259.431 352.463C259.002 352.463 258.628 352.558 258.306 352.748C257.985 352.939 257.729 353.206 257.539 353.551C257.361 353.896 257.271 354.301 257.271 354.765C257.271 355.217 257.361 355.621 257.539 355.978C257.729 356.323 257.985 356.597 258.306 356.799C258.628 356.989 259.002 357.085 259.431 357.085ZM271.513 363.937C271.442 364.163 271.329 364.324 271.174 364.419C271.019 364.526 270.847 364.579 270.657 364.579C270.478 364.579 270.312 364.532 270.157 364.437C270.002 364.341 269.895 364.205 269.836 364.026C269.764 363.86 269.764 363.657 269.836 363.419L273.958 350.625C274.029 350.399 274.142 350.232 274.297 350.125C274.463 350.018 274.636 349.971 274.814 349.983C274.993 349.983 275.159 350.03 275.314 350.125C275.469 350.22 275.576 350.351 275.635 350.518C275.707 350.684 275.707 350.887 275.635 351.125L271.513 363.937ZM285.895 363.562C285.526 363.562 285.241 363.461 285.039 363.259C284.848 363.045 284.753 362.747 284.753 362.367V356.942L285.235 358.316L280.934 352.267C280.78 352.052 280.708 351.826 280.72 351.589C280.744 351.339 280.845 351.131 281.023 350.964C281.202 350.786 281.452 350.696 281.773 350.696C282.011 350.696 282.225 350.756 282.415 350.875C282.618 350.994 282.808 351.178 282.986 351.428L286.181 355.96H285.681L288.893 351.428C289.083 351.166 289.268 350.982 289.446 350.875C289.625 350.756 289.845 350.696 290.106 350.696C290.416 350.696 290.654 350.78 290.82 350.946C290.999 351.101 291.088 351.297 291.088 351.535C291.1 351.773 291.016 352.023 290.838 352.284L286.573 358.316L287.037 356.942V362.367C287.037 363.164 286.656 363.562 285.895 363.562ZM295.391 363.598C294.404 363.598 293.553 363.413 292.839 363.045C292.126 362.676 291.572 362.152 291.18 361.474C290.799 360.796 290.609 359.993 290.609 359.065C290.609 358.161 290.793 357.37 291.162 356.692C291.543 356.014 292.06 355.485 292.714 355.104C293.381 354.711 294.136 354.515 294.981 354.515C295.599 354.515 296.152 354.616 296.64 354.818C297.14 355.021 297.562 355.312 297.907 355.693C298.264 356.073 298.532 356.537 298.71 357.085C298.901 357.62 298.996 358.227 298.996 358.905C298.996 359.119 298.918 359.285 298.764 359.404C298.621 359.511 298.413 359.565 298.139 359.565H292.411V358.28H297.425L297.14 358.548C297.14 358.001 297.057 357.543 296.89 357.174C296.735 356.805 296.503 356.526 296.194 356.335C295.897 356.133 295.522 356.032 295.07 356.032C294.57 356.032 294.142 356.151 293.785 356.389C293.44 356.615 293.172 356.942 292.982 357.37C292.804 357.787 292.714 358.286 292.714 358.869V358.994C292.714 359.969 292.94 360.701 293.393 361.189C293.856 361.665 294.535 361.903 295.427 361.903C295.736 361.903 296.081 361.867 296.462 361.796C296.854 361.712 297.223 361.576 297.568 361.385C297.818 361.242 298.038 361.183 298.228 361.207C298.419 361.219 298.567 361.284 298.674 361.403C298.793 361.522 298.865 361.671 298.889 361.849C298.912 362.016 298.877 362.188 298.782 362.367C298.698 362.545 298.55 362.7 298.335 362.831C297.919 363.092 297.437 363.289 296.89 363.419C296.355 363.538 295.855 363.598 295.391 363.598ZM303.635 363.598C303.005 363.598 302.44 363.479 301.94 363.241C301.452 362.991 301.066 362.658 300.78 362.242C300.506 361.825 300.37 361.355 300.37 360.832C300.37 360.19 300.536 359.684 300.869 359.315C301.202 358.935 301.744 358.661 302.493 358.494C303.243 358.328 304.248 358.245 305.509 358.245H306.401V359.529H305.527C304.789 359.529 304.2 359.565 303.76 359.636C303.32 359.708 303.005 359.833 302.814 360.011C302.636 360.178 302.547 360.416 302.547 360.725C302.547 361.117 302.683 361.439 302.957 361.689C303.231 361.938 303.611 362.063 304.099 362.063C304.492 362.063 304.837 361.974 305.134 361.796C305.443 361.605 305.687 361.349 305.866 361.028C306.044 360.707 306.133 360.338 306.133 359.922V357.87C306.133 357.275 306.002 356.847 305.741 356.585C305.479 356.323 305.039 356.192 304.42 356.192C304.075 356.192 303.701 356.234 303.296 356.317C302.903 356.401 302.487 356.543 302.047 356.746C301.821 356.853 301.619 356.882 301.44 356.835C301.274 356.787 301.143 356.692 301.048 356.549C300.952 356.395 300.905 356.228 300.905 356.05C300.905 355.871 300.952 355.699 301.048 355.532C301.143 355.354 301.303 355.223 301.529 355.14C302.077 354.914 302.6 354.753 303.1 354.658C303.611 354.563 304.075 354.515 304.492 354.515C305.348 354.515 306.05 354.646 306.597 354.908C307.156 355.169 307.573 355.568 307.846 356.103C308.12 356.627 308.257 357.305 308.257 358.137V362.42C308.257 362.789 308.168 363.074 307.989 363.277C307.811 363.467 307.555 363.562 307.222 363.562C306.889 363.562 306.627 363.467 306.437 363.277C306.258 363.074 306.169 362.789 306.169 362.42V361.564H306.312C306.229 361.98 306.062 362.343 305.812 362.652C305.574 362.95 305.271 363.182 304.902 363.348C304.533 363.515 304.111 363.598 303.635 363.598ZM311.663 363.562C311.294 363.562 311.009 363.467 310.806 363.277C310.616 363.074 310.521 362.789 310.521 362.42V355.675C310.521 355.306 310.616 355.027 310.806 354.836C310.997 354.646 311.264 354.551 311.609 354.551C311.954 354.551 312.222 354.646 312.412 354.836C312.603 355.027 312.698 355.306 312.698 355.675V356.799H312.519C312.686 356.085 313.013 355.544 313.501 355.175C313.989 354.806 314.637 354.586 315.446 354.515C315.696 354.491 315.892 354.557 316.035 354.711C316.189 354.854 316.279 355.08 316.302 355.389C316.326 355.687 316.255 355.931 316.088 356.121C315.934 356.299 315.696 356.407 315.375 356.442L314.982 356.478C314.256 356.549 313.709 356.775 313.34 357.156C312.972 357.525 312.787 358.048 312.787 358.726V362.42C312.787 362.789 312.692 363.074 312.502 363.277C312.311 363.467 312.032 363.562 311.663 363.562ZM320.489 363.598C319.501 363.598 318.758 363.318 318.258 362.759C317.759 362.188 317.509 361.355 317.509 360.261V351.821C317.509 351.452 317.604 351.172 317.794 350.982C317.985 350.791 318.258 350.696 318.615 350.696C318.972 350.696 319.246 350.791 319.436 350.982C319.638 351.172 319.739 351.452 319.739 351.821V360.154C319.739 360.701 319.852 361.106 320.078 361.367C320.316 361.629 320.649 361.76 321.078 361.76C321.173 361.76 321.262 361.76 321.345 361.76C321.429 361.748 321.512 361.736 321.595 361.724C321.762 361.7 321.875 361.748 321.934 361.867C321.994 361.974 322.023 362.2 322.023 362.545C322.023 362.842 321.964 363.074 321.845 363.241C321.726 363.408 321.53 363.509 321.256 363.544C321.137 363.556 321.012 363.568 320.881 363.58C320.751 363.592 320.62 363.598 320.489 363.598ZM325.193 366.774C324.932 366.774 324.718 366.703 324.551 366.56C324.384 366.429 324.283 366.251 324.248 366.025C324.224 365.799 324.265 365.561 324.373 365.311L325.586 362.616V363.544L322.338 356.032C322.231 355.77 322.195 355.526 322.231 355.3C322.267 355.074 322.374 354.896 322.552 354.765C322.743 354.622 322.998 354.551 323.32 354.551C323.593 354.551 323.813 354.616 323.98 354.747C324.146 354.866 324.295 355.098 324.426 355.443L326.835 361.457H326.3L328.762 355.425C328.893 355.092 329.048 354.866 329.226 354.747C329.405 354.616 329.643 354.551 329.94 354.551C330.202 354.551 330.41 354.622 330.565 354.765C330.719 354.896 330.814 355.074 330.85 355.3C330.886 355.514 330.844 355.752 330.725 356.014L326.389 365.918C326.234 366.251 326.068 366.477 325.889 366.596C325.711 366.715 325.479 366.774 325.193 366.774Z" fill="black"/>
<path d="M273.312 320.44C273.312 314.037 278.503 308.847 284.905 308.847H347.926C354.129 308.847 359.157 313.875 359.157 320.078C359.157 326.28 354.129 331.308 347.926 331.308H284.181C278.178 331.308 273.312 326.442 273.312 320.44Z" fill="#19C472"/>
<path d="M288.484 318.02C288.44 317.605 288.253 317.282 287.923 317.05C287.597 316.819 287.172 316.704 286.65 316.704C286.282 316.704 285.967 316.759 285.704 316.87C285.441 316.981 285.24 317.131 285.1 317.321C284.961 317.511 284.89 317.729 284.886 317.972C284.886 318.175 284.932 318.351 285.024 318.5C285.119 318.649 285.248 318.776 285.409 318.88C285.571 318.982 285.75 319.067 285.946 319.137C286.143 319.207 286.341 319.265 286.54 319.313L287.453 319.541C287.82 319.626 288.174 319.742 288.513 319.888C288.855 320.034 289.161 320.217 289.43 320.439C289.702 320.661 289.918 320.929 290.076 321.242C290.235 321.556 290.314 321.923 290.314 322.345C290.314 322.915 290.168 323.417 289.877 323.851C289.585 324.282 289.164 324.62 288.612 324.864C288.064 325.105 287.4 325.225 286.621 325.225C285.864 325.225 285.206 325.108 284.649 324.873C284.094 324.639 283.66 324.297 283.346 323.847C283.036 323.397 282.868 322.849 282.843 322.202H284.577C284.603 322.541 284.707 322.823 284.891 323.048C285.075 323.273 285.314 323.441 285.609 323.552C285.907 323.663 286.239 323.718 286.607 323.718C286.99 323.718 287.326 323.661 287.614 323.547C287.906 323.43 288.134 323.268 288.299 323.063C288.463 322.853 288.547 322.609 288.551 322.331C288.547 322.077 288.473 321.868 288.327 321.703C288.181 321.535 287.977 321.396 287.714 321.285C287.454 321.171 287.15 321.07 286.802 320.981L285.694 320.696C284.893 320.49 284.259 320.178 283.793 319.759C283.331 319.338 283.099 318.779 283.099 318.082C283.099 317.508 283.255 317.006 283.565 316.575C283.879 316.144 284.305 315.81 284.844 315.572C285.382 315.332 285.992 315.211 286.673 315.211C287.364 315.211 287.969 315.332 288.489 315.572C289.012 315.81 289.422 316.141 289.72 316.566C290.018 316.987 290.171 317.472 290.181 318.02H288.484ZM292.979 325.078H291.097L294.523 315.344H296.7L300.132 325.078H298.25L295.65 317.34H295.574L292.979 325.078ZM293.041 321.261H298.173V322.678H293.041V321.261ZM301.605 315.344L304.138 323.005H304.238L306.766 315.344H308.705L305.274 325.078H303.097L299.671 315.344H301.605ZM309.987 325.078V315.344H316.318V316.822H311.751V319.465H315.99V320.943H311.751V323.6H316.356V325.078H309.987ZM326.545 323.253V322.739C326.545 322.362 326.625 322.015 326.783 321.699C326.945 321.382 327.179 321.127 327.486 320.933C327.794 320.74 328.166 320.643 328.603 320.643C329.053 320.643 329.43 320.74 329.734 320.933C330.039 321.123 330.268 321.377 330.424 321.694C330.582 322.011 330.661 322.359 330.661 322.739V323.253C330.661 323.63 330.582 323.977 330.424 324.293C330.265 324.61 330.032 324.865 329.725 325.059C329.421 325.252 329.047 325.349 328.603 325.349C328.16 325.349 327.784 325.252 327.477 325.059C327.17 324.865 326.937 324.61 326.778 324.293C326.623 323.977 326.545 323.63 326.545 323.253ZM327.786 322.739V323.253C327.786 323.503 327.846 323.733 327.966 323.942C328.087 324.151 328.299 324.255 328.603 324.255C328.911 324.255 329.121 324.152 329.235 323.947C329.353 323.737 329.411 323.506 329.411 323.253V322.739C329.411 322.486 329.356 322.255 329.245 322.045C329.134 321.833 328.92 321.727 328.603 321.727C328.305 321.727 328.095 321.833 327.971 322.045C327.848 322.255 327.786 322.486 327.786 322.739ZM321.598 317.683V317.169C321.598 316.789 321.679 316.441 321.84 316.124C322.002 315.807 322.236 315.553 322.544 315.363C322.851 315.17 323.223 315.073 323.661 315.073C324.107 315.073 324.483 315.17 324.787 315.363C325.094 315.553 325.326 315.807 325.481 316.124C325.636 316.441 325.714 316.789 325.714 317.169V317.683C325.714 318.063 325.635 318.411 325.476 318.728C325.321 319.042 325.09 319.294 324.782 319.484C324.475 319.674 324.101 319.769 323.661 319.769C323.214 319.769 322.837 319.674 322.529 319.484C322.225 319.294 321.994 319.04 321.836 318.723C321.677 318.407 321.598 318.06 321.598 317.683ZM322.848 317.169V317.683C322.848 317.936 322.907 318.167 323.024 318.376C323.144 318.582 323.356 318.685 323.661 318.685C323.965 318.685 324.174 318.582 324.288 318.376C324.405 318.167 324.464 317.936 324.464 317.683V317.169C324.464 316.916 324.408 316.685 324.297 316.475C324.187 316.263 323.974 316.157 323.661 316.157C323.36 316.157 323.149 316.263 323.028 316.475C322.908 316.688 322.848 316.919 322.848 317.169ZM322.14 325.078L328.831 315.344H330.02L323.328 325.078H322.14ZM336.127 325.211C335.442 325.211 334.834 325.093 334.302 324.859C333.773 324.625 333.354 324.298 333.047 323.88C332.74 323.462 332.577 322.979 332.557 322.43H334.344C334.36 322.693 334.447 322.923 334.606 323.12C334.764 323.313 334.975 323.463 335.238 323.571C335.501 323.679 335.796 323.733 336.122 323.733C336.47 323.733 336.779 323.672 337.049 323.552C337.318 323.428 337.529 323.257 337.681 323.039C337.833 322.82 337.907 322.568 337.904 322.283C337.907 321.988 337.831 321.729 337.676 321.504C337.521 321.279 337.296 321.103 337.001 320.976C336.71 320.849 336.358 320.786 335.946 320.786H335.086V319.427H335.946C336.285 319.427 336.581 319.368 336.835 319.251C337.091 319.134 337.293 318.969 337.438 318.757C337.584 318.541 337.655 318.292 337.652 318.01C337.655 317.735 337.594 317.496 337.467 317.293C337.343 317.087 337.168 316.927 336.939 316.813C336.714 316.699 336.45 316.642 336.146 316.642C335.848 316.642 335.572 316.696 335.319 316.803C335.065 316.911 334.861 317.065 334.706 317.264C334.55 317.461 334.468 317.695 334.459 317.968H332.762C332.775 317.423 332.931 316.944 333.232 316.532C333.537 316.117 333.942 315.794 334.449 315.563C334.956 315.328 335.525 315.211 336.155 315.211C336.805 315.211 337.369 315.333 337.847 315.577C338.329 315.818 338.701 316.143 338.964 316.551C339.227 316.96 339.358 317.412 339.358 317.906C339.362 318.454 339.2 318.913 338.874 319.284C338.551 319.655 338.126 319.897 337.6 320.011V320.087C338.284 320.182 338.809 320.436 339.173 320.848C339.541 321.257 339.723 321.765 339.72 322.373C339.72 322.918 339.564 323.406 339.254 323.837C338.947 324.265 338.522 324.601 337.98 324.845C337.442 325.089 336.824 325.211 336.127 325.211ZM344.949 325.263C344.166 325.263 343.494 325.065 342.934 324.669C342.376 324.27 341.947 323.695 341.646 322.944C341.348 322.19 341.199 321.282 341.199 320.22C341.202 319.159 341.353 318.256 341.65 317.511C341.951 316.764 342.381 316.193 342.938 315.801C343.499 315.408 344.169 315.211 344.949 315.211C345.728 315.211 346.398 315.408 346.959 315.801C347.52 316.193 347.949 316.764 348.247 317.511C348.548 318.259 348.699 319.162 348.699 320.22C348.699 321.285 348.548 322.194 348.247 322.948C347.949 323.699 347.52 324.273 346.959 324.669C346.401 325.065 345.731 325.263 344.949 325.263ZM344.949 323.775C345.557 323.775 346.037 323.476 346.389 322.877C346.744 322.275 346.921 321.39 346.921 320.22C346.921 319.447 346.84 318.798 346.679 318.272C346.517 317.746 346.289 317.35 345.994 317.084C345.7 316.814 345.351 316.68 344.949 316.68C344.344 316.68 343.865 316.981 343.513 317.583C343.162 318.182 342.984 319.061 342.981 320.22C342.978 320.997 343.056 321.649 343.214 322.179C343.376 322.708 343.604 323.107 343.898 323.376C344.193 323.642 344.543 323.775 344.949 323.775Z" fill="white"/>
<rect x="20.8203" y="409.223" width="333.359" height="75.8391" rx="17.8445" fill="white"/>
<path d="M46.2567 453.142C45.9087 453.142 45.6344 453.048 45.4336 452.861C45.2463 452.66 45.1526 452.393 45.1526 452.058C45.1526 451.71 45.2463 451.449 45.4336 451.275C45.6344 451.101 45.9087 451.014 46.2567 451.014H48.5051V441.157H49.7498L46.7987 442.944C46.5445 443.091 46.3036 443.151 46.076 443.125C45.8619 443.084 45.6745 442.991 45.5139 442.844C45.3667 442.683 45.2663 442.496 45.2128 442.281C45.1593 442.067 45.1727 441.853 45.253 441.639C45.3466 441.412 45.5206 441.224 45.7749 441.077L48.5453 439.411C48.8129 439.25 49.0806 439.116 49.3483 439.009C49.6159 438.889 49.8635 438.829 50.091 438.829C50.3721 438.829 50.6063 438.909 50.7937 439.069C50.981 439.217 51.0747 439.464 51.0747 439.812V451.014H53.1224C53.4704 451.014 53.738 451.101 53.9254 451.275C54.1261 451.449 54.2265 451.71 54.2265 452.058C54.2265 452.406 54.1261 452.674 53.9254 452.861C53.738 453.048 53.4704 453.142 53.1224 453.142H46.2567ZM63.3625 453.303C62.9878 453.303 62.7001 453.196 62.4993 452.981C62.2986 452.767 62.1982 452.473 62.1982 452.098V440.033C62.1982 439.645 62.3053 439.351 62.5194 439.15C62.7335 438.936 63.028 438.829 63.4027 438.829C63.7373 438.829 63.9983 438.895 64.1856 439.029C64.3864 439.15 64.5671 439.364 64.7277 439.672L69.6862 448.846H69.0438L74.0023 439.672C74.1629 439.364 74.3369 439.15 74.5243 439.029C74.7117 438.895 74.9726 438.829 75.3072 438.829C75.6819 438.829 75.9697 438.936 76.1704 439.15C76.3712 439.351 76.4716 439.645 76.4716 440.033V452.098C76.4716 452.473 76.3712 452.767 76.1704 452.981C75.9831 453.196 75.6953 453.303 75.3072 453.303C74.9325 453.303 74.6447 453.196 74.444 452.981C74.2432 452.767 74.1429 452.473 74.1429 452.098V442.803H74.5845L70.3687 450.492C70.2349 450.72 70.0944 450.887 69.9472 450.994C69.8 451.101 69.5992 451.155 69.3449 451.155C69.0906 451.155 68.8832 451.101 68.7226 450.994C68.562 450.874 68.4215 450.706 68.301 450.492L64.0451 442.783H64.5269V452.098C64.5269 452.473 64.4265 452.767 64.2258 452.981C64.0384 453.196 63.7507 453.303 63.3625 453.303ZM83.8223 453.343C82.8052 453.343 81.9219 453.135 81.1724 452.721C80.423 452.306 79.8408 451.717 79.4259 450.954C79.011 450.178 78.8036 449.268 78.8036 448.224C78.8036 447.434 78.9173 446.731 79.1448 446.116C79.3857 445.487 79.727 444.951 80.1687 444.51C80.6103 444.055 81.139 443.714 81.7546 443.486C82.3702 443.245 83.0595 443.125 83.8223 443.125C84.8395 443.125 85.7228 443.332 86.4722 443.747C87.2217 444.162 87.8039 444.751 88.2188 445.514C88.6337 446.276 88.8411 447.18 88.8411 448.224C88.8411 449.013 88.7207 449.723 88.4797 450.352C88.2522 450.981 87.9176 451.523 87.476 451.978C87.0343 452.419 86.5057 452.761 85.8901 453.002C85.2744 453.229 84.5852 453.343 83.8223 453.343ZM83.8223 451.436C84.3175 451.436 84.7525 451.315 85.1272 451.074C85.5019 450.833 85.7897 450.479 85.9904 450.01C86.2046 449.529 86.3116 448.933 86.3116 448.224C86.3116 447.153 86.0841 446.357 85.6291 445.835C85.1741 445.299 84.5718 445.032 83.8223 445.032C83.3271 445.032 82.8922 445.152 82.5175 445.393C82.1427 445.621 81.8483 445.975 81.6342 446.457C81.4334 446.926 81.333 447.514 81.333 448.224C81.333 449.281 81.5605 450.084 82.0156 450.633C82.4706 451.168 83.0729 451.436 83.8223 451.436ZM92.1569 453.303C91.7554 453.303 91.4476 453.196 91.2335 452.981C91.0193 452.754 90.9123 452.433 90.9123 452.018V444.43C90.9123 444.015 91.0193 443.7 91.2335 443.486C91.4476 443.272 91.7487 443.165 92.1369 443.165C92.525 443.165 92.8261 443.272 93.0402 443.486C93.2544 443.7 93.3614 444.015 93.3614 444.43V445.795L93.1406 445.293C93.435 444.583 93.8901 444.048 94.5057 443.687C95.1347 443.312 95.8441 443.125 96.6337 443.125C97.4233 443.125 98.0724 443.272 98.581 443.566C99.0895 443.861 99.471 444.309 99.7252 444.911C99.9795 445.5 100.107 446.25 100.107 447.16V452.018C100.107 452.433 99.9996 452.754 99.7855 452.981C99.5713 453.196 99.2635 453.303 98.862 453.303C98.4605 453.303 98.146 453.196 97.9185 452.981C97.7043 452.754 97.5973 452.433 97.5973 452.018V447.28C97.5973 446.517 97.4501 445.962 97.1556 445.614C96.8746 445.266 96.4329 445.092 95.8307 445.092C95.0946 445.092 94.5057 445.326 94.0641 445.795C93.6358 446.25 93.4217 446.859 93.4217 447.621V452.018C93.4217 452.874 93.0001 453.303 92.1569 453.303ZM107.152 453.343C106.282 453.343 105.553 453.196 104.964 452.901C104.389 452.607 103.96 452.178 103.679 451.616C103.398 451.041 103.258 450.332 103.258 449.488V445.212H102.214C101.893 445.212 101.645 445.132 101.471 444.972C101.297 444.798 101.21 444.563 101.21 444.269C101.21 443.961 101.297 443.727 101.471 443.566C101.645 443.406 101.893 443.325 102.214 443.325H103.258V441.499C103.258 441.084 103.365 440.769 103.579 440.555C103.806 440.341 104.121 440.234 104.522 440.234C104.924 440.234 105.232 440.341 105.446 440.555C105.66 440.769 105.767 441.084 105.767 441.499V443.325H107.895C108.216 443.325 108.464 443.406 108.638 443.566C108.812 443.727 108.899 443.961 108.899 444.269C108.899 444.563 108.812 444.798 108.638 444.972C108.464 445.132 108.216 445.212 107.895 445.212H105.767V449.348C105.767 449.99 105.908 450.472 106.189 450.793C106.47 451.115 106.925 451.275 107.554 451.275C107.781 451.275 107.982 451.255 108.156 451.215C108.33 451.175 108.484 451.148 108.618 451.135C108.778 451.121 108.912 451.175 109.019 451.295C109.126 451.402 109.18 451.63 109.18 451.978C109.18 452.245 109.133 452.486 109.039 452.7C108.959 452.901 108.805 453.042 108.578 453.122C108.404 453.176 108.176 453.222 107.895 453.263C107.614 453.316 107.366 453.343 107.152 453.343ZM111.86 453.303C111.458 453.303 111.15 453.196 110.936 452.981C110.722 452.754 110.615 452.433 110.615 452.018V440.093C110.615 439.678 110.722 439.364 110.936 439.15C111.15 438.936 111.458 438.829 111.86 438.829C112.261 438.829 112.569 438.936 112.783 439.15C113.01 439.364 113.124 439.678 113.124 440.093V445.293H112.843C113.138 444.583 113.593 444.048 114.208 443.687C114.837 443.312 115.547 443.125 116.336 443.125C117.126 443.125 117.775 443.272 118.284 443.566C118.792 443.861 119.174 444.309 119.428 444.911C119.682 445.5 119.809 446.25 119.809 447.16V452.018C119.809 452.433 119.702 452.754 119.488 452.981C119.274 453.196 118.966 453.303 118.565 453.303C118.163 453.303 117.849 453.196 117.621 452.981C117.407 452.754 117.3 452.433 117.3 452.018V447.28C117.3 446.517 117.153 445.962 116.858 445.614C116.577 445.266 116.136 445.092 115.533 445.092C114.797 445.092 114.208 445.326 113.767 445.795C113.338 446.25 113.124 446.859 113.124 447.621V452.018C113.124 452.874 112.703 453.303 111.86 453.303Z" fill="#273430"/>
<path d="M218.585 452.642C218.371 452.642 218.174 452.595 217.996 452.499C217.817 452.392 217.675 452.25 217.568 452.071C217.472 451.893 217.425 451.696 217.425 451.482V448.342L217.924 448.52L216.872 449.091C216.61 449.234 216.378 449.275 216.176 449.216C215.985 449.145 215.843 449.02 215.747 448.841C215.664 448.663 215.658 448.472 215.73 448.27C215.801 448.056 215.968 447.878 216.229 447.735L217.8 446.86L217.425 447.521V445.397L217.924 445.576L216.872 446.147C216.61 446.289 216.378 446.331 216.176 446.272C215.985 446.2 215.843 446.075 215.747 445.897C215.664 445.718 215.658 445.528 215.73 445.326C215.801 445.112 215.968 444.933 216.229 444.791L217.8 443.916L217.425 444.576V441.061C217.425 440.728 217.532 440.454 217.746 440.24C217.972 440.026 218.252 439.919 218.585 439.919C218.811 439.919 219.007 439.972 219.174 440.08C219.34 440.175 219.471 440.306 219.566 440.472C219.661 440.639 219.709 440.835 219.709 441.061V442.845L221.725 441.721C221.987 441.578 222.213 441.537 222.403 441.596C222.606 441.656 222.748 441.775 222.832 441.953C222.915 442.132 222.921 442.328 222.85 442.542C222.79 442.756 222.629 442.935 222.368 443.077L219.709 444.559V445.79L221.725 444.666C221.987 444.523 222.213 444.481 222.403 444.541C222.606 444.6 222.748 444.719 222.832 444.898C222.915 445.076 222.921 445.272 222.85 445.486C222.79 445.701 222.629 445.879 222.368 446.022L219.709 447.503V450.733H221.279C221.838 450.733 222.243 450.626 222.493 450.412C222.742 450.185 222.867 449.811 222.867 449.287V448.877C222.867 448.556 222.969 448.306 223.171 448.127C223.373 447.949 223.629 447.86 223.938 447.86C224.247 447.86 224.503 447.955 224.705 448.145C224.908 448.324 225.009 448.585 225.009 448.93V449.412C225.009 450.495 224.711 451.304 224.116 451.839C223.534 452.374 222.624 452.642 221.386 452.642H218.585ZM230.926 452.821C229.439 452.821 228.303 452.261 227.518 451.143C226.733 450.013 226.34 448.407 226.34 446.325C226.34 444.921 226.513 443.744 226.858 442.792C227.214 441.828 227.732 441.103 228.41 440.615C229.1 440.127 229.939 439.883 230.926 439.883C232.425 439.883 233.561 440.431 234.334 441.525C235.12 442.619 235.512 444.214 235.512 446.307C235.512 447.699 235.334 448.883 234.977 449.858C234.632 450.822 234.12 451.56 233.442 452.071C232.764 452.571 231.925 452.821 230.926 452.821ZM230.926 450.947C231.735 450.947 232.33 450.572 232.711 449.823C233.103 449.073 233.299 447.901 233.299 446.307C233.299 444.713 233.103 443.559 232.711 442.845C232.33 442.12 231.735 441.757 230.926 441.757C230.129 441.757 229.534 442.12 229.142 442.845C228.749 443.559 228.553 444.713 228.553 446.307C228.553 447.901 228.749 449.073 229.142 449.823C229.534 450.572 230.129 450.947 230.926 450.947ZM238.503 452.731C238.099 452.731 237.771 452.606 237.522 452.357C237.284 452.107 237.165 451.786 237.165 451.393C237.165 451.012 237.284 450.703 237.522 450.465C237.771 450.215 238.099 450.09 238.503 450.09C238.919 450.09 239.241 450.215 239.467 450.465C239.705 450.703 239.824 451.012 239.824 451.393C239.824 451.786 239.705 452.107 239.467 452.357C239.241 452.606 238.919 452.731 238.503 452.731ZM245.071 452.821C244.559 452.821 244.03 452.743 243.483 452.589C242.935 452.422 242.424 452.178 241.948 451.857C241.758 451.738 241.633 451.583 241.573 451.393C241.514 451.203 241.502 451.018 241.537 450.84C241.585 450.649 241.668 450.489 241.787 450.358C241.918 450.215 242.079 450.132 242.269 450.108C242.459 450.072 242.668 450.12 242.894 450.251C243.298 450.489 243.679 450.655 244.036 450.751C244.393 450.846 244.749 450.893 245.106 450.893C245.796 450.893 246.379 450.733 246.855 450.412C247.331 450.09 247.688 449.609 247.926 448.966C248.176 448.312 248.301 447.509 248.301 446.557V445.219H248.515C248.431 445.814 248.235 446.331 247.926 446.771C247.617 447.211 247.224 447.55 246.748 447.788C246.272 448.014 245.743 448.127 245.16 448.127C244.446 448.127 243.804 447.955 243.233 447.61C242.674 447.265 242.233 446.789 241.912 446.182C241.591 445.564 241.43 444.868 241.43 444.095C241.43 443.274 241.603 442.548 241.948 441.918C242.305 441.287 242.798 440.793 243.429 440.436C244.059 440.068 244.779 439.883 245.588 439.883C246.635 439.883 247.521 440.127 248.247 440.615C248.973 441.103 249.526 441.816 249.907 442.756C250.287 443.684 250.478 444.808 250.478 446.129C250.478 447.2 250.353 448.151 250.103 448.984C249.865 449.805 249.514 450.501 249.05 451.072C248.586 451.643 248.015 452.077 247.337 452.374C246.671 452.672 245.915 452.821 245.071 452.821ZM245.731 446.307C246.159 446.307 246.534 446.212 246.855 446.022C247.188 445.82 247.444 445.546 247.622 445.201C247.801 444.844 247.89 444.44 247.89 443.988C247.89 443.524 247.801 443.119 247.622 442.774C247.444 442.429 247.188 442.161 246.855 441.971C246.534 441.781 246.159 441.686 245.731 441.686C245.303 441.686 244.928 441.781 244.607 441.971C244.286 442.161 244.03 442.429 243.839 442.774C243.661 443.119 243.572 443.524 243.572 443.988C243.572 444.44 243.661 444.844 243.839 445.201C244.03 445.546 244.286 445.82 244.607 446.022C244.928 446.212 245.303 446.307 245.731 446.307ZM255.77 452.821C255.259 452.821 254.729 452.743 254.182 452.589C253.635 452.422 253.123 452.178 252.648 451.857C252.457 451.738 252.332 451.583 252.273 451.393C252.213 451.203 252.202 451.018 252.237 450.84C252.285 450.649 252.368 450.489 252.487 450.358C252.618 450.215 252.778 450.132 252.969 450.108C253.159 450.072 253.367 450.12 253.593 450.251C253.998 450.489 254.379 450.655 254.735 450.751C255.092 450.846 255.449 450.893 255.806 450.893C256.496 450.893 257.079 450.733 257.555 450.412C258.031 450.09 258.388 449.609 258.626 448.966C258.875 448.312 259 447.509 259 446.557V445.219H259.214C259.131 445.814 258.935 446.331 258.626 446.771C258.316 447.211 257.924 447.55 257.448 447.788C256.972 448.014 256.443 448.127 255.86 448.127C255.146 448.127 254.503 447.955 253.932 447.61C253.373 447.265 252.933 446.789 252.612 446.182C252.291 445.564 252.13 444.868 252.13 444.095C252.13 443.274 252.303 442.548 252.648 441.918C253.005 441.287 253.498 440.793 254.129 440.436C254.759 440.068 255.479 439.883 256.288 439.883C257.335 439.883 258.221 440.127 258.947 440.615C259.672 441.103 260.226 441.816 260.606 442.756C260.987 443.684 261.177 444.808 261.177 446.129C261.177 447.2 261.052 448.151 260.803 448.984C260.565 449.805 260.214 450.501 259.75 451.072C259.286 451.643 258.715 452.077 258.037 452.374C257.37 452.672 256.615 452.821 255.77 452.821ZM256.431 446.307C256.859 446.307 257.234 446.212 257.555 446.022C257.888 445.82 258.144 445.546 258.322 445.201C258.501 444.844 258.59 444.44 258.59 443.988C258.59 443.524 258.501 443.119 258.322 442.774C258.144 442.429 257.888 442.161 257.555 441.971C257.234 441.781 256.859 441.686 256.431 441.686C256.002 441.686 255.628 441.781 255.306 441.971C254.985 442.161 254.729 442.429 254.539 442.774C254.361 443.119 254.271 443.524 254.271 443.988C254.271 444.44 254.361 444.844 254.539 445.201C254.729 445.546 254.985 445.82 255.306 446.022C255.628 446.212 256.002 446.307 256.431 446.307ZM268.513 453.16C268.442 453.386 268.329 453.546 268.174 453.641C268.019 453.748 267.847 453.802 267.657 453.802C267.478 453.802 267.312 453.754 267.157 453.659C267.002 453.564 266.895 453.427 266.836 453.249C266.764 453.082 266.764 452.88 266.836 452.642L270.958 439.848C271.029 439.622 271.142 439.455 271.297 439.348C271.463 439.241 271.636 439.193 271.814 439.205C271.993 439.205 272.159 439.253 272.314 439.348C272.469 439.443 272.576 439.574 272.635 439.741C272.707 439.907 272.707 440.109 272.635 440.347L268.513 453.16ZM279.826 452.785C279.493 452.785 279.237 452.69 279.058 452.499C278.88 452.309 278.791 452.047 278.791 451.714V440.99C278.791 440.645 278.886 440.383 279.076 440.204C279.267 440.014 279.528 439.919 279.861 439.919C280.159 439.919 280.391 439.978 280.557 440.097C280.736 440.204 280.896 440.395 281.039 440.668L285.447 448.823H284.876L289.283 440.668C289.426 440.395 289.581 440.204 289.747 440.097C289.914 439.978 290.146 439.919 290.443 439.919C290.776 439.919 291.032 440.014 291.211 440.204C291.389 440.383 291.478 440.645 291.478 440.99V451.714C291.478 452.047 291.389 452.309 291.211 452.499C291.044 452.69 290.788 452.785 290.443 452.785C290.11 452.785 289.854 452.69 289.676 452.499C289.498 452.309 289.408 452.047 289.408 451.714V443.452H289.801L286.054 450.287C285.935 450.489 285.81 450.638 285.679 450.733C285.548 450.828 285.369 450.875 285.143 450.875C284.917 450.875 284.733 450.828 284.59 450.733C284.448 450.626 284.323 450.477 284.216 450.287L280.432 443.434H280.861V451.714C280.861 452.047 280.772 452.309 280.593 452.499C280.427 452.69 280.171 452.785 279.826 452.785ZM298.012 452.821C297.108 452.821 296.323 452.636 295.657 452.267C294.991 451.899 294.473 451.375 294.104 450.697C293.736 450.007 293.551 449.198 293.551 448.27C293.551 447.568 293.652 446.944 293.854 446.397C294.069 445.837 294.372 445.362 294.765 444.969C295.157 444.564 295.627 444.261 296.174 444.059C296.722 443.845 297.334 443.738 298.012 443.738C298.916 443.738 299.702 443.922 300.368 444.291C301.034 444.66 301.551 445.183 301.92 445.861C302.289 446.539 302.473 447.342 302.473 448.27C302.473 448.972 302.366 449.603 302.152 450.162C301.95 450.721 301.653 451.203 301.26 451.607C300.867 452 300.397 452.303 299.85 452.517C299.303 452.719 298.69 452.821 298.012 452.821ZM298.012 451.125C298.452 451.125 298.839 451.018 299.172 450.804C299.505 450.59 299.761 450.275 299.939 449.858C300.13 449.43 300.225 448.901 300.225 448.27C300.225 447.318 300.023 446.611 299.618 446.147C299.214 445.671 298.678 445.433 298.012 445.433C297.572 445.433 297.185 445.54 296.852 445.754C296.519 445.956 296.258 446.272 296.067 446.7C295.889 447.116 295.8 447.64 295.8 448.27C295.8 449.21 296.002 449.924 296.406 450.412C296.811 450.887 297.346 451.125 298.012 451.125ZM305.421 452.785C305.064 452.785 304.79 452.69 304.6 452.499C304.41 452.297 304.314 452.012 304.314 451.643V444.898C304.314 444.529 304.41 444.249 304.6 444.059C304.79 443.869 305.058 443.773 305.403 443.773C305.748 443.773 306.016 443.869 306.206 444.059C306.396 444.249 306.491 444.529 306.491 444.898V446.111L306.295 445.665C306.557 445.034 306.961 444.559 307.509 444.237C308.068 443.904 308.698 443.738 309.4 443.738C310.102 443.738 310.679 443.869 311.131 444.13C311.583 444.392 311.922 444.791 312.148 445.326C312.374 445.849 312.487 446.515 312.487 447.324V451.643C312.487 452.012 312.392 452.297 312.202 452.499C312.011 452.69 311.738 452.785 311.381 452.785C311.024 452.785 310.744 452.69 310.542 452.499C310.352 452.297 310.257 452.012 310.257 451.643V447.431C310.257 446.753 310.126 446.26 309.864 445.95C309.614 445.641 309.222 445.486 308.686 445.486C308.032 445.486 307.509 445.695 307.116 446.111C306.735 446.515 306.545 447.057 306.545 447.735V451.643C306.545 452.404 306.17 452.785 305.421 452.785ZM318.75 452.821C317.977 452.821 317.328 452.69 316.805 452.428C316.293 452.166 315.913 451.786 315.663 451.286C315.413 450.774 315.288 450.144 315.288 449.394V445.594H314.36C314.075 445.594 313.855 445.522 313.7 445.379C313.545 445.225 313.468 445.017 313.468 444.755C313.468 444.481 313.545 444.273 313.7 444.13C313.855 443.988 314.075 443.916 314.36 443.916H315.288V442.292C315.288 441.923 315.383 441.644 315.574 441.454C315.776 441.263 316.055 441.168 316.412 441.168C316.769 441.168 317.043 441.263 317.233 441.454C317.424 441.644 317.519 441.923 317.519 442.292V443.916H319.41C319.696 443.916 319.916 443.988 320.07 444.13C320.225 444.273 320.302 444.481 320.302 444.755C320.302 445.017 320.225 445.225 320.07 445.379C319.916 445.522 319.696 445.594 319.41 445.594H317.519V449.269C317.519 449.841 317.644 450.269 317.893 450.554C318.143 450.84 318.548 450.983 319.107 450.983C319.309 450.983 319.488 450.965 319.642 450.929C319.797 450.893 319.934 450.87 320.053 450.858C320.195 450.846 320.314 450.893 320.409 451C320.505 451.096 320.552 451.298 320.552 451.607C320.552 451.845 320.511 452.059 320.427 452.25C320.356 452.428 320.219 452.553 320.017 452.624C319.862 452.672 319.66 452.713 319.41 452.749C319.16 452.797 318.94 452.821 318.75 452.821ZM322.934 452.785C322.577 452.785 322.304 452.69 322.113 452.499C321.923 452.297 321.828 452.012 321.828 451.643V441.043C321.828 440.674 321.923 440.395 322.113 440.204C322.304 440.014 322.577 439.919 322.934 439.919C323.291 439.919 323.565 440.014 323.755 440.204C323.957 440.395 324.058 440.674 324.058 441.043V445.665H323.809C324.07 445.034 324.475 444.559 325.022 444.237C325.581 443.904 326.212 443.738 326.914 443.738C327.615 443.738 328.192 443.869 328.644 444.13C329.097 444.392 329.436 444.791 329.662 445.326C329.888 445.849 330.001 446.515 330.001 447.324V451.643C330.001 452.012 329.905 452.297 329.715 452.499C329.525 452.69 329.251 452.785 328.894 452.785C328.537 452.785 328.258 452.69 328.056 452.499C327.865 452.297 327.77 452.012 327.77 451.643V447.431C327.77 446.753 327.639 446.26 327.377 445.95C327.128 445.641 326.735 445.486 326.2 445.486C325.545 445.486 325.022 445.695 324.629 446.111C324.249 446.515 324.058 447.057 324.058 447.735V451.643C324.058 452.404 323.684 452.785 322.934 452.785Z" fill="black"/>
<g style="mix-blend-mode:multiply">
<ellipse cx="142.52" cy="19.9213" rx="142.52" ry="19.9213" transform="matrix(-1 0 0 1 335.986 251.166)" fill="#E4DEEE"/>
</g>
<path d="M314.974 269.005L314.964 269.196C314.125 277.309 260.103 283.854 193.586 283.854C127.069 283.853 73.0484 277.309 72.209 269.196L72.1992 269.005V243.02H314.974V269.005Z" fill="#5D29A2"/>
<ellipse cx="193.586" cy="243.019" rx="121.387" ry="14.8486" fill="#A662FF"/>
<g style="mix-blend-mode:multiply" opacity="0.5">
<ellipse cx="97.2433" cy="13.7735" rx="97.2433" ry="13.7735" transform="matrix(-1 0 0 1 290.711 223.716)" fill="#A561FF"/>
</g>
<path d="M288.249 234.854L288.241 235.045C287.59 243.157 245.629 249.702 193.961 249.702C142.293 249.702 100.331 243.157 99.6797 235.045L99.6719 234.854V208.868H288.249V234.854Z" fill="#5D29A2"/>
<ellipse cx="193.96" cy="208.868" rx="94.2884" ry="14.8486" fill="#A662FF"/>
<g style="mix-blend-mode:multiply" opacity="0.5">
<ellipse cx="193.588" cy="204.933" rx="75.981" ry="5.03741" fill="#A5D68D"/>
</g>
<path d="M159.447 109.932C158.551 108.59 157.045 107.785 155.435 107.785C153.826 107.785 152.319 108.59 151.424 109.932L139.531 127.286L155.435 150.222L169.964 125.708L159.447 109.932Z" fill="#FF641A"/>
<path d="M236.584 109.932C234.795 107.248 230.35 107.248 228.561 109.932L218.043 125.708L232.572 150.222L248.477 127.286L236.584 109.932Z" fill="#F03800"/>
<path d="M266.645 122.249L251.603 203.681H136.415L121.373 122.249L136.415 115.981L155.056 129.015L184.174 79.2388H203.844L232.962 129.015L251.603 115.981L266.645 122.249Z" fill="#FCCC11"/>
<path d="M194.245 190.34C197.19 190.34 199.577 187.592 199.577 184.204C199.577 180.815 197.19 178.067 194.245 178.067C191.3 178.067 188.912 180.815 188.912 184.204C188.912 187.592 191.3 190.34 194.245 190.34Z" fill="#F7B818"/>
<path d="M181.006 184.204C181.003 185.015 180.791 185.808 180.397 186.481C180.003 187.154 179.445 187.678 178.792 187.986C178.14 188.295 177.423 188.374 176.731 188.213C176.04 188.053 175.405 187.661 174.908 187.086C174.41 186.511 174.071 185.779 173.935 184.982C173.798 184.186 173.87 183.361 174.14 182.612C174.411 181.862 174.868 181.222 175.455 180.771C176.042 180.321 176.731 180.08 177.436 180.08C177.906 180.08 178.372 180.187 178.806 180.394C179.239 180.602 179.634 180.906 179.965 181.289C180.297 181.672 180.559 182.127 180.738 182.627C180.916 183.127 181.007 183.663 181.006 184.204Z" fill="#F7B818"/>
<path d="M169.504 184.204C169.506 185.017 169.299 185.814 168.908 186.492C168.517 187.169 167.96 187.698 167.307 188.011C166.654 188.324 165.935 188.407 165.242 188.249C164.548 188.091 163.911 187.699 163.411 187.124C162.911 186.549 162.57 185.815 162.433 185.017C162.296 184.219 162.368 183.392 162.64 182.641C162.912 181.89 163.371 181.248 163.96 180.798C164.549 180.348 165.241 180.11 165.949 180.113C166.891 180.113 167.796 180.544 168.462 181.311C169.129 182.078 169.504 183.119 169.504 184.204Z" fill="#F7B818"/>
<path d="M158.013 184.204C158.016 185.017 157.809 185.814 157.418 186.492C157.027 187.169 156.469 187.698 155.817 188.011C155.164 188.324 154.445 188.407 153.751 188.249C153.058 188.091 152.42 187.699 151.92 187.124C151.42 186.549 151.08 185.815 150.943 185.017C150.806 184.219 150.878 183.392 151.149 182.641C151.421 181.89 151.881 181.248 152.47 180.798C153.059 180.348 153.751 180.11 154.458 180.113C155.401 180.113 156.305 180.544 156.972 181.311C157.639 182.078 158.013 183.119 158.013 184.204Z" fill="#F7B818"/>
<path d="M146.521 184.204C146.518 185.015 146.307 185.808 145.913 186.481C145.519 187.154 144.96 187.678 144.308 187.986C143.656 188.295 142.938 188.374 142.247 188.213C141.556 188.053 140.921 187.661 140.423 187.086C139.925 186.511 139.587 185.779 139.45 184.982C139.314 184.186 139.385 183.361 139.656 182.612C139.926 181.862 140.384 181.222 140.971 180.771C141.557 180.321 142.247 180.08 142.952 180.08C143.422 180.08 143.887 180.187 144.321 180.394C144.755 180.602 145.149 180.906 145.481 181.289C145.812 181.672 146.075 182.127 146.254 182.627C146.432 183.127 146.523 183.663 146.521 184.204V184.204Z" fill="#F7B818"/>
<path d="M249.074 184.204C249.077 185.017 248.869 185.814 248.478 186.492C248.087 187.169 247.53 187.698 246.877 188.011C246.224 188.324 245.506 188.407 244.812 188.249C244.118 188.091 243.481 187.699 242.981 187.124C242.481 186.549 242.141 185.815 242.003 185.017C241.866 184.219 241.938 183.392 242.21 182.641C242.482 181.89 242.942 181.248 243.531 180.798C244.12 180.348 244.812 180.11 245.519 180.113C246.462 180.113 247.366 180.544 248.033 181.311C248.699 182.078 249.074 183.119 249.074 184.204Z" fill="#F7B818"/>
<path d="M237.586 184.204C237.583 185.016 237.371 185.809 236.976 186.483C236.582 187.156 236.022 187.68 235.369 187.988C234.716 188.296 233.998 188.374 233.306 188.212C232.614 188.051 231.98 187.656 231.483 187.08C230.985 186.503 230.648 185.77 230.513 184.972C230.378 184.175 230.452 183.35 230.724 182.6C230.997 181.851 231.457 181.212 232.045 180.763C232.634 180.315 233.325 180.077 234.031 180.08C234.5 180.08 234.965 180.187 235.398 180.395C235.831 180.602 236.224 180.906 236.554 181.29C236.885 181.673 237.146 182.128 237.323 182.628C237.5 183.128 237.589 183.664 237.586 184.204V184.204Z" fill="#F7B818"/>
<path d="M226.095 184.204C226.093 185.015 225.881 185.808 225.487 186.481C225.093 187.154 224.535 187.678 223.882 187.986C223.23 188.295 222.513 188.374 221.821 188.213C221.13 188.053 220.495 187.661 219.997 187.086C219.5 186.511 219.161 185.779 219.025 184.982C218.888 184.186 218.96 183.361 219.23 182.612C219.501 181.862 219.958 181.222 220.545 180.771C221.131 180.321 221.821 180.08 222.526 180.08C222.996 180.08 223.461 180.187 223.895 180.394C224.329 180.602 224.723 180.906 225.055 181.289C225.387 181.672 225.649 182.127 225.828 182.627C226.006 183.127 226.097 183.663 226.095 184.204V184.204Z" fill="#F7B818"/>
<path d="M214.605 184.204C214.602 185.015 214.391 185.808 213.997 186.481C213.603 187.154 213.044 187.678 212.392 187.986C211.74 188.295 211.022 188.374 210.331 188.213C209.64 188.053 209.005 187.661 208.507 187.086C208.009 186.511 207.671 185.779 207.534 184.982C207.398 184.186 207.469 183.361 207.74 182.612C208.01 181.862 208.468 181.222 209.055 180.771C209.641 180.321 210.331 180.08 211.036 180.08C211.506 180.08 211.971 180.187 212.405 180.394C212.839 180.602 213.233 180.906 213.565 181.289C213.896 181.672 214.159 182.127 214.338 182.627C214.516 183.127 214.607 183.663 214.605 184.204Z" fill="#F7B818"/>
<path d="M126.193 127.069C118.219 127.069 111.73 120.581 111.73 112.606C111.73 104.631 118.219 98.1431 126.193 98.1431C134.168 98.1431 140.656 104.631 140.656 112.606C140.656 120.581 134.168 127.069 126.193 127.069Z" fill="#FDBF00"/>
<path d="M261.822 127.069C253.848 127.069 247.359 120.581 247.359 112.606C247.359 104.631 253.848 98.1431 261.822 98.1431C269.797 98.1431 276.285 104.631 276.285 112.606C276.285 120.581 269.797 127.069 261.822 127.069Z" fill="#FDBF00"/>
<path d="M194.01 59.2852C186.006 59.2852 179.547 65.7445 179.547 73.748C179.547 81.7503 186.006 88.2109 194.01 88.2109C202.013 88.2109 208.473 81.7503 208.473 73.748C208.473 65.7445 202.013 59.2852 194.01 59.2852Z" fill="#FDBF00"/>
<path d="M256.326 202.204C256.326 203.958 254.72 205.337 252.675 205.337H135.341C133.296 205.337 131.689 203.958 131.689 202.204C131.689 200.45 133.296 199.072 135.341 199.072H252.675C254.72 199.072 256.326 200.45 256.326 202.204Z" fill="#F7B818"/>
<path d="M266.645 162.504C266.645 164.258 264.773 165.636 262.389 165.636H125.629C123.245 165.636 121.373 164.258 121.373 162.504C121.373 160.749 123.245 159.371 125.629 159.371H262.389C264.773 159.371 266.645 160.749 266.645 162.504Z" fill="#F7B818"/>
<path d="M217.342 148.282L197.866 122.828C196.902 121.67 195.551 120.996 194.009 120.996C192.466 120.996 191.117 121.67 190.151 122.924L170.868 148.282C169.615 149.921 169.615 152.139 170.675 153.874L189.959 182.8C190.924 184.149 192.37 184.922 194.008 184.922C195.648 184.922 197.094 184.149 197.962 182.8L217.535 153.874C218.693 152.139 218.596 149.922 217.342 148.282Z" fill="#F03800"/>
<path d="M198.829 151.174C198.829 153.873 196.709 155.994 194.008 155.994C191.308 155.994 189.188 153.873 189.188 151.174C189.188 148.473 191.308 146.353 194.008 146.353C196.709 146.353 198.829 148.473 198.829 151.174Z" fill="#F03800"/>
<path fill-rule="evenodd" clip-rule="evenodd" d="M194.118 157.78C191.417 157.78 189.297 155.658 189.297 152.959C189.297 150.258 191.417 148.138 194.118 148.138C196.818 148.138 198.939 150.258 198.939 152.959C198.939 155.658 196.818 157.78 194.118 157.78Z" fill="#CD0000"/>
<path d="M133.129 97.44L131.703 96.6602C131.626 96.6179 131.562 96.5543 131.52 96.4769L130.74 95.0512C130.565 94.7316 130.106 94.7316 129.931 95.0512L129.151 96.4769C129.109 96.5542 129.046 96.6178 128.968 96.6602L127.542 97.44C127.223 97.6148 127.223 98.0738 127.542 98.2486L128.968 99.0284C129.045 99.0707 129.109 99.1343 129.151 99.2117L129.931 100.637C130.106 100.957 130.565 100.957 130.74 100.637L131.52 99.2117C131.562 99.1344 131.625 99.0708 131.703 99.0284L133.129 98.2486C133.448 98.0738 133.448 97.6147 133.129 97.44Z" fill="white"/>
<path d="M197.128 58.1715L193.452 56.1609C193.253 56.052 193.089 55.8881 192.98 55.6885L190.969 52.0125C190.519 51.1885 189.335 51.1885 188.884 52.0125L186.874 55.6885C186.765 55.8878 186.601 56.0518 186.401 56.1609L182.725 58.1715C181.901 58.6223 181.901 59.8058 182.725 60.2566L186.401 62.2671C186.601 62.3761 186.765 62.54 186.874 62.7396L188.884 66.4156C189.335 67.2395 190.519 67.2395 190.969 66.4156L192.98 62.7396C193.089 62.5403 193.253 62.3763 193.452 62.2671L197.128 60.2566C197.952 59.8058 197.952 58.6221 197.128 58.1715Z" fill="white"/>
<path d="M276.086 156.1L271.35 153.509C271.093 153.369 270.882 153.158 270.741 152.901L268.15 148.164C267.57 147.103 266.045 147.103 265.464 148.164L262.874 152.901C262.733 153.157 262.522 153.369 262.265 153.509L257.529 156.1C256.467 156.681 256.467 158.205 257.529 158.786L262.265 161.377C262.522 161.517 262.733 161.728 262.874 161.985L265.464 166.722C266.045 167.783 267.57 167.783 268.15 166.722L270.741 161.985C270.881 161.729 271.093 161.517 271.35 161.377L276.086 158.786C277.147 158.205 277.147 156.68 276.086 156.1Z" fill="white"/>
<path d="M211.589 136.39L209.486 135.239C209.371 135.177 209.278 135.083 209.215 134.969L208.065 132.866C207.807 132.394 207.13 132.394 206.872 132.866L205.721 134.969C205.659 135.083 205.565 135.177 205.451 135.239L203.348 136.39C202.876 136.648 202.876 137.325 203.348 137.583L205.451 138.733C205.565 138.796 205.659 138.889 205.721 139.004L206.872 141.107C207.13 141.578 207.807 141.578 208.065 141.107L209.215 139.004C209.278 138.89 209.371 138.796 209.486 138.733L211.589 137.583C212.06 137.325 212.06 136.648 211.589 136.39Z" fill="white"/>
<path d="M258.224 98.2793L256.799 97.4995C256.721 97.4573 256.658 97.3937 256.615 97.3163L255.836 95.8906C255.661 95.571 255.202 95.571 255.027 95.8906L254.247 97.3163C254.205 97.3936 254.141 97.4572 254.064 97.4995L252.638 98.2793C252.319 98.4542 252.319 98.9132 252.638 99.088L254.064 99.8678C254.141 99.91 254.205 99.9736 254.247 100.051L255.027 101.477C255.202 101.796 255.661 101.796 255.836 101.477L256.615 100.051C256.658 99.9737 256.721 99.9101 256.799 99.8678L258.224 99.088C258.544 98.9132 258.544 98.4541 258.224 98.2793Z" fill="white"/>
<path d="M116.715 147.001L115.289 146.221C115.212 146.179 115.148 146.115 115.106 146.038L114.326 144.612C114.151 144.293 113.692 144.293 113.517 144.612L112.737 146.038C112.695 146.115 112.631 146.179 112.554 146.221L111.128 147.001C110.809 147.176 110.809 147.635 111.128 147.81L112.554 148.589C112.631 148.632 112.695 148.695 112.737 148.773L113.517 150.198C113.692 150.518 114.151 150.518 114.326 150.198L115.106 148.773C115.148 148.695 115.211 148.632 115.289 148.589L116.715 147.81C117.034 147.635 117.034 147.176 116.715 147.001Z" fill="white"/>
<path d="M161.214 201.876L159.111 200.726C158.996 200.663 158.903 200.57 158.84 200.455L157.69 198.352C157.432 197.881 156.755 197.881 156.497 198.352L155.346 200.455C155.284 200.57 155.19 200.663 155.076 200.726L152.973 201.876C152.501 202.134 152.501 202.811 152.973 203.069L155.076 204.22C155.19 204.282 155.284 204.376 155.346 204.49L156.497 206.593C156.755 207.065 157.432 207.065 157.69 206.593L158.84 204.49C158.903 204.376 158.996 204.282 159.111 204.22L161.214 203.069C161.685 202.811 161.685 202.134 161.214 201.876Z" fill="white"/>
<path d="M325.194 97.3139C325.116 97.4444 325.012 97.5573 324.889 97.6455L323.999 98.2784C323.844 98.389 323.662 98.4572 323.472 98.4764C323.282 98.4955 323.09 98.465 322.916 98.3878L309.356 92.3953C309.213 92.3323 309.059 92.3004 308.903 92.3015C308.747 92.3027 308.593 92.3369 308.451 92.402C304.635 94.1737 303.133 91.0353 302.715 89.8373C302.664 89.6961 302.586 89.5666 302.484 89.4568C302.382 89.347 302.259 89.2591 302.122 89.1987L286.752 82.4067C286.516 82.3024 286.324 82.1185 286.21 81.887C286.095 81.6556 286.066 81.3914 286.127 81.1405L291.696 58.2038C291.759 57.9466 291.913 57.7205 292.128 57.5667L293.054 56.9073C293.201 56.8026 293.372 56.7358 293.551 56.7129L293.551 56.712C293.771 56.6842 293.995 56.7229 294.192 56.8232L327.083 73.5645C327.282 73.6655 327.445 73.8243 327.551 74.0198C327.657 74.2153 327.702 74.4385 327.679 74.6599L325.345 96.8637C325.328 97.0231 325.277 97.1768 325.194 97.3139V97.3139Z" fill="#FFE262"/>
<path d="M325.194 97.3137C325.116 97.4442 325.012 97.5571 324.889 97.6453L323.999 98.2782C323.844 98.3888 323.662 98.457 323.472 98.4762C323.282 98.4954 323.091 98.4648 322.916 98.3876L309.356 92.3951C309.213 92.3321 309.059 92.3002 308.903 92.3013C308.747 92.3025 308.593 92.3367 308.452 92.4018C304.635 94.1735 303.134 91.0351 302.715 89.8371C302.665 89.6959 302.586 89.5664 302.484 89.4566C302.382 89.3468 302.259 89.259 302.122 89.1985L286.752 82.4065C286.516 82.3022 286.324 82.1183 286.21 81.8868C286.096 81.6554 286.066 81.3912 286.127 81.1403L291.697 58.2036C291.76 57.9464 291.913 57.7203 292.128 57.5665L293.055 56.9072C293.202 56.8024 293.372 56.7356 293.551 56.7127L287.931 79.8558C287.87 80.1068 287.899 80.3711 288.013 80.6027C288.128 80.8343 288.32 81.0184 288.556 81.1229L303.198 87.5935C303.335 87.6537 303.459 87.7414 303.561 87.8513C303.663 87.9611 303.741 88.0907 303.791 88.2321C304.21 89.4292 305.712 92.5676 309.528 90.7968C309.669 90.7314 309.823 90.697 309.979 90.6958C310.135 90.6947 310.289 90.7268 310.432 90.7901L325.194 97.3137Z" fill="#F6D14F"/>
<path d="M323.955 94.6548L310.603 88.7542C310.449 88.6865 310.282 88.6509 310.114 88.6497C309.945 88.6485 309.778 88.6816 309.623 88.7471C308.577 89.187 306.045 89.8774 305.109 86.7963C305.058 86.6265 304.971 86.4696 304.853 86.3366C304.735 86.2036 304.591 86.0975 304.428 86.0256L291.152 80.1587L295.596 59.093C295.596 59.093 307.162 54.6162 311.264 66.6179C311.264 66.6179 321.433 61.8874 326.62 72.8007L323.955 94.6548Z" fill="#EEECFF"/>
<path d="M311.262 66.6178L310.83 61.7373L303.472 83.2151L307.728 86.6074L311.262 66.6178Z" fill="#D3D3FF"/>
<path d="M323.953 94.6545L310.601 88.754C310.446 88.6862 310.28 88.6507 310.111 88.6494C309.943 88.6482 309.776 88.6813 309.621 88.7468C308.574 89.1867 306.043 89.8771 305.107 86.7961C305.056 86.6262 304.968 86.4694 304.851 86.3364C304.733 86.2034 304.588 86.0973 304.426 86.0254L291.15 80.1584C291.15 80.1584 302.296 75.5945 307.728 86.6073C307.728 86.6073 319.963 82.679 323.953 94.6545V94.6545Z" fill="#D3D3FF"/>
<path d="M66.2493 129.938C65.3335 129.793 60.7182 128.953 59.7551 126.721C59.5242 126.187 59.3921 125.34 60.0717 124.342C60.8586 123.187 61.7598 123.017 62.3759 123.077C64.8075 123.316 66.8357 127.801 67.218 128.698C67.4943 129.347 66.9465 130.05 66.2493 129.938V129.938ZM61.5581 125.355C61.2923 125.745 61.3719 125.93 61.4061 126.008C61.7057 126.703 63.2417 127.349 64.7579 127.77C63.8981 126.235 62.8621 124.932 62.2002 124.867C61.9453 124.843 61.7027 125.143 61.5581 125.355V125.355Z" fill="#D0E8FE"/>
<path d="M56.1438 136.439C56.1438 140.378 52.9508 143.571 49.0121 143.571C45.0735 143.571 41.8809 140.378 41.8809 136.439C41.8809 132.501 45.0735 129.308 49.0121 129.308C52.9508 129.308 56.1438 132.501 56.1438 136.439V136.439Z" fill="#F2BA00"/>
<path d="M55.6171 133.749C54.7449 131.609 52.8638 129.99 50.5645 129.479C50.5652 129.48 52.7039 131.297 50.7342 133.267L55.6171 133.749Z" fill="#F0AE00"/>
<path d="M53.6519 141.853C58.366 139.626 68.0722 135.799 80.3576 135.044C80.8273 135.016 81.2332 134.711 81.4032 134.272C82.6776 130.989 81.8808 127.113 79.0982 124.604C78.7213 124.264 78.172 124.199 77.724 124.437C73.1842 126.854 64.4031 130.087 50.5645 129.479C53.7563 130.188 56.1439 133.034 56.1439 136.439C56.1439 138.606 55.1767 140.545 53.6519 141.853V141.853Z" fill="#F9DF5F"/>
<path d="M55.3706 133.212C52.983 133.353 50.3307 133.328 47.4129 133.056C46.7983 132.999 46.2129 133.322 45.9283 133.87C45.4732 134.746 45.2434 135.757 45.3159 136.828C45.5029 139.58 47.717 141.809 50.4673 142.012C52.3578 142.151 54.0662 141.348 55.1746 140.026C55.7896 138.972 56.1433 137.747 56.1433 136.439C56.1433 135.277 55.8636 134.181 55.3706 133.212V133.212Z" fill="#EEA200"/>
<path d="M49.9526 136.481C49.8801 135.41 50.1099 134.399 50.565 133.523C50.6126 133.431 50.6697 133.345 50.7335 133.267C49.6676 133.231 48.5611 133.163 47.4129 133.056C46.7983 132.999 46.2129 133.322 45.9283 133.87C45.4732 134.746 45.2434 135.757 45.3159 136.828C45.5029 139.579 47.717 141.809 50.4673 142.012C51.6039 142.095 52.6743 141.838 53.5882 141.333C51.5776 140.585 50.1035 138.703 49.9526 136.481Z" fill="#ED8700"/>
<path d="M65.5083 129.231C65.3213 128.323 64.4776 123.708 66.2258 122.02C66.6441 121.615 67.3898 121.192 68.5631 121.476C69.9216 121.804 70.3988 122.587 70.5599 123.185C71.1955 125.544 67.7149 129.026 67.0109 129.7C66.5018 130.187 65.651 129.925 65.5083 129.231V129.231ZM67.4754 123.313C66.9317 123.838 66.869 125.504 67.0106 127.07C68.1434 125.724 68.9968 124.295 68.8233 123.653C68.773 123.465 68.5432 123.321 68.1407 123.224C67.9053 123.167 67.6496 123.145 67.4754 123.313V123.313Z" fill="#A9D8FC"/>
<path d="M68.3881 137.74C67.9435 137.519 67.7618 136.98 67.9826 136.535C69.6208 133.236 67.5084 129.311 66.1653 128.965C65.6843 128.841 65.3952 128.351 65.5188 127.87C65.6427 127.389 66.1334 127.099 66.614 127.223C69.1146 127.867 71.7403 133.012 69.5934 137.334C69.3733 137.778 68.8349 137.961 68.3881 137.74V137.74Z" fill="#A9D8FC"/>
<path d="M66.636 138.273C66.1993 138.036 66.0382 137.49 66.2755 137.053C68.1041 133.691 65.7724 129.634 64.1545 129.253C63.6709 129.14 63.3713 128.655 63.4851 128.172C63.5988 127.688 64.0836 127.389 64.566 127.503C67.3723 128.162 70.2446 133.52 67.8555 137.913C67.6178 138.35 67.0712 138.51 66.636 138.273V138.273Z" fill="#D0E8FE"/>
<path d="M48.5075 55.1722L53.2084 47.6313C53.4255 47.2831 53.8829 47.1749 54.2329 47.3891L88.9867 68.6482L83.2599 75.8456L48.5075 55.1722Z" fill="#F3F0F3"/>
<path d="M84.5397 65.9256L78.7725 73.1739L83.2639 75.8457L88.9907 68.6483L84.5397 65.9256Z" fill="#E2DEE2"/>
<path d="M130.467 78.6323L130.468 69.7462C130.468 69.3359 130.137 69.0021 129.727 68.9986L88.9882 68.648L90.0392 77.7856L130.467 78.6323Z" fill="#F3F0F3"/>
<path d="M125.204 78.5221L130.464 78.6322L130.466 69.746C130.466 69.3357 130.135 69.0019 129.725 68.9984L125.085 68.9586L125.204 78.5221Z" fill="#E2DEE2"/>
<path d="M134.183 79.1834C134.222 77.642 132.998 76.3566 131.449 76.312L91.2642 75.1583C89.9837 75.1218 88.8436 75.9519 88.4931 77.1765C88.2108 78.1627 87.1738 78.734 86.1817 78.45C85.1894 78.166 84.612 77.1325 84.8943 76.1463C85.2448 74.9217 84.7166 73.6141 83.6107 72.9675L48.9021 52.683C47.5634 51.9013 45.8451 52.344 45.0633 53.6731C44.2814 55.002 44.7326 56.713 46.0708 57.4954L79.2129 76.8643C79.3114 80.0184 81.4362 82.8969 84.6458 83.8156C87.8554 84.7344 91.1814 83.4162 92.9342 80.792L131.305 81.8937C132.855 81.938 134.143 80.7247 134.183 79.1834V79.1834Z" fill="#FE646F"/>
<path d="M134.181 79.1835C134.221 77.6422 132.997 76.3567 131.448 76.3121L126.443 76.1684C127.792 76.4616 128.939 77.754 128.904 79.1305C128.87 80.4206 127.961 81.4778 126.757 81.7631L131.304 81.8936C132.853 81.938 134.142 80.7248 134.181 79.1835V79.1835Z" fill="#FD4755"/>
<path d="M88.6341 69.8768C88.3561 69.7973 88.1034 69.6293 87.9205 69.3856L66.7284 41.1602C66.2773 40.5594 66.3986 39.7065 66.9994 39.2554C67.6003 38.8044 68.453 38.9255 68.9043 39.5266L89.4781 66.9283L121.435 54.5632C122.136 54.292 122.924 54.6402 123.195 55.3412C123.466 56.0418 123.118 56.8297 122.417 57.1008L89.4996 69.8374C89.2154 69.9476 88.9121 69.9564 88.6341 69.8768V69.8768Z" fill="#F3F0F3"/>
<path d="M88.6135 69.9566C88.4177 69.9005 88.2344 69.8005 88.0789 69.6609L58.7025 43.2823C58.1434 42.7803 58.0974 41.92 58.5993 41.361C59.1013 40.802 59.9616 40.7564 60.5206 41.2577L89.4042 67.1941L127.637 60.4697C128.377 60.3399 129.082 60.8342 129.213 61.574C129.343 62.3141 128.848 63.0196 128.108 63.1497L89.2236 69.9885C89.0178 70.0247 88.8093 70.0126 88.6135 69.9566V69.9566Z" fill="#E2DEE2"/>
<defs>
<radialGradient id="paint0_radial_8296_24478" cx="0" cy="0" r="1" gradientUnits="userSpaceOnUse" gradientTransform="translate(188.619 113.724) rotate(90) scale(113.724 14.2748)">
<stop stop-color="white"/>
<stop offset="1" stop-color="white" stop-opacity="0"/>
</radialGradient>
<radialGradient id="paint1_radial_8296_24478" cx="0" cy="0" r="1" gradientUnits="userSpaceOnUse" gradientTransform="translate(221.43 117.192) rotate(90) scale(113.03 29.4102)">
<stop stop-color="white"/>
<stop offset="1" stop-color="white" stop-opacity="0"/>
</radialGradient>
<radialGradient id="paint2_radial_8296_24478" cx="0" cy="0" r="1" gradientUnits="userSpaceOnUse" gradientTransform="translate(246.404 130.574) rotate(90) scale(104.648 48.0744)">
<stop stop-color="white"/>
<stop offset="1" stop-color="white" stop-opacity="0"/>
</radialGradient>
<radialGradient id="paint3_radial_8296_24478" cx="0" cy="0" r="1" gradientUnits="userSpaceOnUse" gradientTransform="translate(267.376 152.96) rotate(90) scale(89.1492 63.4677)">
<stop stop-color="white"/>
<stop offset="1" stop-color="white" stop-opacity="0"/>
</radialGradient>
<radialGradient id="paint4_radial_8296_24478" cx="0" cy="0" r="1" gradientUnits="userSpaceOnUse" gradientTransform="translate(282.916 182.828) rotate(90) scale(67.587 74.5454)">
<stop stop-color="white"/>
<stop offset="1" stop-color="white" stop-opacity="0"/>
</radialGradient>
<radialGradient id="paint5_radial_8296_24478" cx="0" cy="0" r="1" gradientUnits="userSpaceOnUse" gradientTransform="translate(291.97 218.147) rotate(90) scale(41.4273 80.5518)">
<stop stop-color="white"/>
<stop offset="1" stop-color="white" stop-opacity="0"/>
</radialGradient>
<radialGradient id="paint6_radial_8296_24478" cx="0" cy="0" r="1" gradientUnits="userSpaceOnUse" gradientTransform="translate(293.919 264.088) rotate(90) scale(20.0267 81.0807)">
<stop stop-color="white"/>
<stop offset="1" stop-color="white" stop-opacity="0"/>
</radialGradient>
<radialGradient id="paint7_radial_8296_24478" cx="0" cy="0" r="1" gradientUnits="userSpaceOnUse" gradientTransform="translate(291.474 310.306) rotate(90) scale(41.0899 80.5914)">
<stop stop-color="white"/>
<stop offset="1" stop-color="white" stop-opacity="0"/>
</radialGradient>
<radialGradient id="paint8_radial_8296_24478" cx="0" cy="0" r="1" gradientUnits="userSpaceOnUse" gradientTransform="translate(281.977 345.372) rotate(90) scale(67.2936 74.6486)">
<stop stop-color="white"/>
<stop offset="1" stop-color="white" stop-opacity="0"/>
</radialGradient>
<radialGradient id="paint9_radial_8296_24478" cx="0" cy="0" r="1" gradientUnits="userSpaceOnUse" gradientTransform="translate(266.055 374.832) rotate(90) scale(88.9217 63.629)">
<stop stop-color="white"/>
<stop offset="1" stop-color="white" stop-opacity="0"/>
</radialGradient>
<radialGradient id="paint10_radial_8296_24478" cx="0" cy="0" r="1" gradientUnits="userSpaceOnUse" gradientTransform="translate(244.793 396.684) rotate(90) scale(104.502 48.2817)">
<stop stop-color="white"/>
<stop offset="1" stop-color="white" stop-opacity="0"/>
</radialGradient>
<radialGradient id="paint11_radial_8296_24478" cx="0" cy="0" r="1" gradientUnits="userSpaceOnUse" gradientTransform="translate(219.636 409.441) rotate(90) scale(112.973 29.6516)">
<stop stop-color="white"/>
<stop offset="1" stop-color="white" stop-opacity="0"/>
</radialGradient>
<radialGradient id="paint12_radial_8296_24478" cx="0" cy="0" r="1" gradientUnits="userSpaceOnUse" gradientTransform="translate(187.022 412.237) rotate(90) scale(113.763 14.2757)">
<stop stop-color="white"/>
<stop offset="1" stop-color="white" stop-opacity="0"/>
</radialGradient>
<radialGradient id="paint13_radial_8296_24478" cx="0" cy="0" r="1" gradientUnits="userSpaceOnUse" gradientTransform="translate(153.939 408.844) rotate(90) scale(113.085 29.1697)">
<stop stop-color="white"/>
<stop offset="1" stop-color="white" stop-opacity="0"/>
</radialGradient>
<radialGradient id="paint14_radial_8296_24478" cx="0" cy="0" r="1" gradientUnits="userSpaceOnUse" gradientTransform="translate(128.923 395.577) rotate(90) scale(104.794 47.8643)">
<stop stop-color="white"/>
<stop offset="1" stop-color="white" stop-opacity="0"/>
</radialGradient>
<radialGradient id="paint15_radial_8296_24478" cx="0" cy="0" r="1" gradientUnits="userSpaceOnUse" gradientTransform="translate(107.895 373.293) rotate(90) scale(89.3754 63.3047)">
<stop stop-color="white"/>
<stop offset="1" stop-color="white" stop-opacity="0"/>
</radialGradient>
<radialGradient id="paint16_radial_8296_24478" cx="0" cy="0" r="1" gradientUnits="userSpaceOnUse" gradientTransform="translate(92.2802 343.504) rotate(90) scale(67.8779 74.4404)">
<stop stop-color="white"/>
<stop offset="1" stop-color="white" stop-opacity="0"/>
</radialGradient>
<radialGradient id="paint17_radial_8296_24478" cx="0" cy="0" r="1" gradientUnits="userSpaceOnUse" gradientTransform="translate(83.1441 308.239) rotate(90) scale(41.7659 80.5113)">
<stop stop-color="white"/>
<stop offset="1" stop-color="white" stop-opacity="0"/>
</radialGradient>
<radialGradient id="paint18_radial_8296_24478" cx="0" cy="0" r="1" gradientUnits="userSpaceOnUse" gradientTransform="translate(81.1074 262.68) rotate(90) scale(20.0254 81.1074)">
<stop stop-color="white"/>
<stop offset="1" stop-color="white" stop-opacity="0"/>
</radialGradient>
<radialGradient id="paint19_radial_8296_24478" cx="0" cy="0" r="1" gradientUnits="userSpaceOnUse" gradientTransform="translate(83.5002 216.077) rotate(90) scale(40.7513 80.6311)">
<stop stop-color="white"/>
<stop offset="1" stop-color="white" stop-opacity="0"/>
</radialGradient>
<radialGradient id="paint20_radial_8296_24478" cx="0" cy="0" r="1" gradientUnits="userSpaceOnUse" gradientTransform="translate(92.9148 180.958) rotate(90) scale(67.0015 74.7527)">
<stop stop-color="white"/>
<stop offset="1" stop-color="white" stop-opacity="0"/>
</radialGradient>
<radialGradient id="paint21_radial_8296_24478" cx="0" cy="0" r="1" gradientUnits="userSpaceOnUse" gradientTransform="translate(108.763 151.416) rotate(90) scale(88.6943 63.7902)">
<stop stop-color="white"/>
<stop offset="1" stop-color="white" stop-opacity="0"/>
</radialGradient>
<radialGradient id="paint22_radial_8296_24478" cx="0" cy="0" r="1" gradientUnits="userSpaceOnUse" gradientTransform="translate(129.97 129.463) rotate(90) scale(104.353 48.4899)">
<stop stop-color="white"/>
<stop offset="1" stop-color="white" stop-opacity="0"/>
</radialGradient>
<radialGradient id="paint23_radial_8296_24478" cx="0" cy="0" r="1" gradientUnits="userSpaceOnUse" gradientTransform="translate(155.091 116.587) rotate(90) scale(112.916 29.8921)">
<stop stop-color="white"/>
<stop offset="1" stop-color="white" stop-opacity="0"/>
</radialGradient>
<clipPath id="clip0_8296_24478">
<rect width="375" height="526" fill="white"/>
</clipPath>
</defs>
</svg>
