<svg width="237" height="59" viewBox="0 0 237 59" fill="none" xmlns="http://www.w3.org/2000/svg">
<path d="M89.2624 34.672C90.8678 34.672 92.6784 34.7467 94.6944 34.896L96.4864 35.008L97.4384 35.064L97.5504 36.24C97.5878 36.6507 97.6624 37.5467 97.7744 38.928C97.8864 40.272 97.9424 41.4293 97.9424 42.4C97.9424 44.304 97.7931 46.1893 97.4944 48.056C97.2331 49.736 96.5798 51.1547 95.5344 52.312C94.4891 53.4693 93.1638 54.3467 91.5584 54.944C88.8331 55.7653 86.3131 56.176 83.9984 56.176C82.2064 56.176 80.5824 55.896 79.1264 55.336C76.1771 54.0293 74.2544 51.752 73.3584 48.504C73.0971 47.496 72.8731 46.1893 72.6864 44.584C72.6864 44.9947 72.4811 41.6533 72.0704 34.56C72.0704 33.3653 72.0891 32.4133 72.1264 31.704C72.2011 28.344 72.3878 25.88 72.6864 24.312C73.2091 21.3253 74.4224 19.1227 76.3264 17.704C77.7451 16.6587 79.6864 15.9493 82.1504 15.576C83.0091 15.464 83.8864 15.408 84.7824 15.408C88.5158 15.408 91.5771 16.36 93.9664 18.264C96.3558 20.1307 97.5504 22.8 97.5504 26.272L97.4384 28.064V28.848C97.1771 28.8853 96.8598 28.904 96.4864 28.904C96.1131 28.904 95.7771 28.904 95.4784 28.904H92.7904C91.3718 28.904 90.0091 28.8293 88.7024 28.68C87.8064 25.6187 86.7984 24.088 85.6784 24.088C85.4918 24.088 85.2864 24.0693 85.0624 24.032C84.8384 23.9947 84.6331 23.976 84.4464 23.976C83.8491 23.976 83.3264 24.2 82.8784 24.648C82.8411 24.6853 82.7104 25.1333 82.4864 25.992C81.7771 28.344 81.4224 31.816 81.4224 36.408C81.4224 38.6853 81.4971 40.5707 81.6464 42.064C81.9078 44.5653 82.4118 46.152 83.1584 46.824C83.5318 47.048 83.8304 47.1973 84.0544 47.272C84.4651 47.3093 84.9504 47.2907 85.5104 47.216C86.1078 47.104 86.6304 46.9547 87.0784 46.768C87.7131 46.5067 88.1238 45.9093 88.3104 44.976C88.4224 44.528 88.5344 43.9493 88.6464 43.24C88.7584 42.5307 88.7958 42.1013 88.7584 41.952H87.4144C86.0331 42.0267 84.9691 41.9147 84.2224 41.616C84.1478 40.832 84.1104 39.8613 84.1104 38.704V38.088C84.1104 37.9387 84.1104 37.696 84.1104 37.36C84.1478 36.9867 84.1104 36.296 83.9984 35.288C84.2971 35.288 84.9318 35.2133 85.9024 35.064C87.3958 34.8027 88.5158 34.672 89.2624 34.672ZM125.239 50.016C125.239 51.92 125.034 53.6187 124.623 55.112C122.981 55.112 120.554 55.1493 117.343 55.224L110.007 55.28C106.685 55.28 103.362 55.168 100.039 54.944C100.077 53.7493 100.021 49.1013 99.8714 41C99.7594 36.408 99.7034 32.88 99.7034 30.416C99.7034 25.3013 99.834 20.5413 100.095 16.136L105.023 15.968C110.549 15.744 114.767 15.632 117.679 15.632C120.181 15.632 122.607 15.7253 124.959 15.912C125.109 16.696 125.183 17.6107 125.183 18.656C125.183 19.216 125.146 20.1307 125.071 21.4C124.997 22.5947 124.959 23.528 124.959 24.2C122.719 24.6853 120.218 24.928 117.455 24.928L110.175 24.984C109.989 26.7387 109.895 28.1947 109.895 29.352C109.895 30.248 110.007 31.032 110.231 31.704L113.927 31.256C114.45 31.256 115.234 31.2933 116.279 31.368L117.007 31.424C117.194 32.544 117.287 33.7573 117.287 35.064L117.175 39.544C115.981 39.88 114.375 40.048 112.359 40.048L110.903 39.992C110.642 39.992 110.474 40.0293 110.399 40.104L110.175 43.016C110.175 44.5467 110.25 45.816 110.399 46.824C112.341 46.824 114.226 46.88 116.055 46.992C116.69 47.0293 117.474 47.0667 118.407 47.104C119.341 47.1413 120.442 47.16 121.711 47.16L125.127 47.048C125.202 48.7653 125.239 49.7547 125.239 50.016ZM150.352 15.8C150.427 17.0693 150.464 18.264 150.464 19.384C150.464 21.5493 150.334 23.4907 150.072 25.208C148.84 24.984 147.87 24.872 147.16 24.872L144.528 24.816C143.558 24.816 143.072 24.872 143.072 24.984C142.998 25.5067 142.96 26.608 142.96 28.288C142.96 31.5733 143.091 40.4213 143.352 54.832C142.27 55.0187 141 55.112 139.544 55.112H137.92C136.054 55.112 134.336 55.2427 132.768 55.504C132.656 55.3173 132.563 54.944 132.488 54.384C132.451 53.7867 132.451 53.2453 132.488 52.76V50.016L132.544 44.976C132.544 38.1813 132.395 31.5547 132.096 25.096C131.686 24.9093 131.107 24.816 130.36 24.816L128.12 24.872C126.851 24.872 125.936 24.7787 125.376 24.592C125.264 24.368 125.171 23.752 125.096 22.744C125.022 21.736 124.984 20.5973 124.984 19.328C124.984 17.4613 125.003 16.1173 125.04 15.296H127.448L129.632 15.24H132.768L136.016 15.184C141.579 15.184 146.115 15.3893 149.624 15.8H150.352ZM185.371 16.416C184.213 22.576 182.907 28.568 181.451 34.392C179.995 40.216 178.165 47.16 175.963 55.224C175.141 55.224 174.581 55.2427 174.283 55.28L173.723 55.336C173.051 55.4107 172.36 55.448 171.651 55.448C169.299 55.448 167.469 55.224 166.163 54.776C162.915 43.3147 160.731 30.6773 159.611 16.864C159.947 16.4907 160.637 16.2107 161.683 16.024C162.728 15.8373 163.885 15.744 165.155 15.744C166.349 15.744 167.693 15.8747 169.187 16.136L169.523 21.12C169.747 24.816 169.989 28.0267 170.251 30.752C170.512 33.44 170.885 36.1093 171.371 38.76C171.819 36.7067 172.509 32.9733 173.443 27.56C174.563 20.952 175.309 17.0133 175.683 15.744C177.139 16.0427 178.8 16.192 180.667 16.192C182.533 16.192 183.859 16.2667 184.643 16.416H185.371ZM197.491 15.856C197.491 20.224 197.435 24.6293 197.323 29.072C197.173 34.9707 197.099 39.6187 197.099 43.016C197.099 46.936 197.211 50.8373 197.435 54.72C196.875 55.28 195.419 55.56 193.067 55.56C191.723 55.56 190.733 55.5413 190.099 55.504L189.427 55.448L188.419 55.392C187.672 55.392 186.72 55.5413 185.563 55.84C185.787 52.592 185.899 49.1387 185.899 45.48C185.899 44.024 185.861 41.8773 185.787 39.04L185.731 35.792C185.581 31.8347 185.507 28.624 185.507 26.16C185.507 22.464 185.675 18.824 186.011 15.24C186.496 15.1653 187.019 15.128 187.579 15.128C187.877 15.128 188.288 15.1653 188.811 15.24C189.333 15.2773 189.949 15.2773 190.659 15.24C192.6 15.352 194.149 15.3893 195.307 15.352H197.491V15.856ZM226.71 27.56C226.71 28.2693 226.691 28.7733 226.654 29.072C226.392 31.2 225.571 33.16 224.19 34.952C222.808 36.744 221.091 38.1627 219.038 39.208C216.984 40.216 214.819 40.72 212.542 40.72C212.43 40.72 212.28 40.7387 212.094 40.776C211.907 40.776 211.683 40.7573 211.422 40.72C211.459 41.168 211.459 41.616 211.422 42.064C211.422 42.512 211.422 42.9227 211.422 43.296V54.664L210.806 54.72C209.798 55.0187 208.043 55.168 205.542 55.168C203.675 55.168 201.958 55.0747 200.39 54.888C200.24 51.2667 200.166 44.976 200.166 36.016V29.24C200.166 23.1547 200.11 18.7307 199.998 15.968C202.872 15.1467 205.878 14.736 209.014 14.736C213.83 14.736 217.918 15.7627 221.278 17.816C224.675 19.832 226.486 23.0613 226.71 27.504V27.56ZM215.622 25.04C215.024 24.5173 214.371 24.1813 213.662 24.032C212.952 23.8827 212.224 23.808 211.478 23.808C210.768 23.7707 210.227 23.752 209.854 23.752C209.891 24.3493 209.91 25.3573 209.91 26.776V27.28C209.91 28.4 209.928 29.3333 209.966 30.08C210.04 30.7893 210.171 31.424 210.358 31.984H211.142C211.403 31.984 211.944 31.984 212.766 31.984C213.624 31.984 214.352 31.872 214.95 31.648C215.584 31.424 216.07 31.0507 216.406 30.528C216.779 29.8933 216.966 29.1653 216.966 28.344C216.966 27.336 216.667 26.4027 216.07 25.544L215.622 25.04Z" fill="#F03800"/>
<g style="mix-blend-mode:multiply" opacity="0.5">
<ellipse cx="30.3906" cy="56.4234" rx="27.9219" ry="1.85117" fill="#A5D68D"/>
</g>
<path d="M17.844 21.5111C17.515 21.0179 16.9614 20.7222 16.3699 20.7222C15.7785 20.7222 15.2248 21.0179 14.8959 21.5111L10.5254 27.8885L16.3699 36.3171L21.7088 27.3086L17.844 21.5111Z" fill="#FF641A"/>
<path d="M46.1904 21.5113C45.5329 20.5249 43.8997 20.5249 43.2422 21.5113L39.377 27.3088L44.7163 36.3173L50.5608 27.8887L46.1904 21.5113Z" fill="#F03800"/>
<path d="M57.2367 26.0377L51.7092 55.9631H9.37915L3.85156 26.0377L9.37915 23.7346L16.2295 28.5244L26.9298 10.2323H34.1585L44.8589 28.5244L51.7092 23.7346L57.2367 26.0377Z" fill="#FCCC11"/>
<path d="M30.6315 51.0602C31.7137 51.0602 32.5911 50.0506 32.5911 48.8052C32.5911 47.5599 31.7137 46.5503 30.6315 46.5503C29.5492 46.5503 28.6719 47.5599 28.6719 48.8052C28.6719 50.0506 29.5492 51.0602 30.6315 51.0602Z" fill="#F7B818"/>
<path d="M25.7658 48.8054C25.7648 49.1036 25.687 49.3948 25.5422 49.6422C25.3975 49.8897 25.1923 50.0822 24.9525 50.1955C24.7128 50.3088 24.4492 50.3378 24.1951 50.2789C23.941 50.22 23.7078 50.0758 23.5249 49.8645C23.342 49.6532 23.2176 49.3842 23.1674 49.0916C23.1172 48.799 23.1435 48.4958 23.2429 48.2204C23.3423 47.9449 23.5105 47.7096 23.726 47.544C23.9416 47.3784 24.195 47.29 24.4542 47.29C24.6269 47.29 24.7979 47.3293 24.9573 47.4055C25.1168 47.4817 25.2616 47.5934 25.3835 47.7342C25.5054 47.875 25.6019 48.0421 25.6675 48.2259C25.7331 48.4097 25.7665 48.6067 25.7658 48.8054Z" fill="#F7B818"/>
<path d="M21.5392 48.8051C21.5403 49.1041 21.4641 49.3967 21.3204 49.6459C21.1767 49.895 20.9719 50.0894 20.732 50.2043C20.4921 50.3193 20.2279 50.3497 19.973 50.2917C19.7181 50.2336 19.4839 50.0898 19.3002 49.8783C19.1164 49.6669 18.9914 49.3974 18.941 49.1041C18.8905 48.8107 18.9169 48.5067 19.0169 48.2307C19.1168 47.9547 19.2857 47.719 19.5022 47.5536C19.7187 47.3882 19.973 47.3006 20.2329 47.3018C20.5793 47.3018 20.9116 47.4602 21.1566 47.7421C21.4016 48.024 21.5392 48.4064 21.5392 48.8051Z" fill="#F7B818"/>
<path d="M17.3166 48.8051C17.3176 49.1041 17.2414 49.3967 17.0977 49.6459C16.954 49.895 16.7492 50.0894 16.5093 50.2043C16.2694 50.3193 16.0053 50.3497 15.7504 50.2917C15.4955 50.2336 15.2613 50.0898 15.0775 49.8783C14.8938 49.6669 14.7688 49.3974 14.7183 49.1041C14.6679 48.8107 14.6943 48.5067 14.7942 48.2307C14.8941 47.9547 15.063 47.719 15.2795 47.5536C15.496 47.3882 15.7503 47.3006 16.0102 47.3018C16.3567 47.3018 16.689 47.4602 16.934 47.7421C17.179 48.024 17.3166 48.4064 17.3166 48.8051Z" fill="#F7B818"/>
<path d="M13.0939 48.8054C13.0929 49.1036 13.0151 49.3948 12.8704 49.6422C12.7256 49.8897 12.5204 50.0822 12.2806 50.1955C12.0409 50.3088 11.7773 50.3378 11.5232 50.2789C11.2692 50.22 11.0359 50.0758 10.853 49.8645C10.6701 49.6532 10.5457 49.3842 10.4955 49.0916C10.4453 48.799 10.4716 48.4958 10.571 48.2204C10.6705 47.9449 10.8386 47.7096 11.0542 47.544C11.2697 47.3784 11.5231 47.29 11.7823 47.29C11.955 47.29 12.126 47.3293 12.2855 47.4055C12.4449 47.4817 12.5898 47.5934 12.7116 47.7342C12.8335 47.875 12.93 48.0421 12.9956 48.2259C13.0612 48.4097 13.0946 48.6067 13.0939 48.8054V48.8054Z" fill="#F7B818"/>
<path d="M50.7814 48.8051C50.7825 49.1041 50.7063 49.3967 50.5626 49.6459C50.4188 49.895 50.2141 50.0894 49.9742 50.2043C49.7343 50.3193 49.4701 50.3497 49.2152 50.2917C48.9603 50.2336 48.7261 50.0898 48.5424 49.8783C48.3586 49.6669 48.2336 49.3974 48.1832 49.1041C48.1327 48.8107 48.1591 48.5067 48.259 48.2307C48.359 47.9547 48.5279 47.719 48.7444 47.5536C48.9609 47.3882 49.2152 47.3006 49.475 47.3018C49.8215 47.3018 50.1538 47.4602 50.3988 47.7421C50.6438 48.024 50.7814 48.4064 50.7814 48.8051Z" fill="#F7B818"/>
<path d="M46.5588 48.8054C46.5577 49.1039 46.4798 49.3953 46.3348 49.6429C46.1898 49.8904 45.9843 50.0829 45.7443 50.1961C45.5042 50.3092 45.2404 50.3379 44.9862 50.2785C44.7319 50.2191 44.4987 50.0743 44.316 49.8623C44.1333 49.6504 44.0093 49.3809 43.9597 49.0879C43.9101 48.7949 43.9372 48.4916 44.0374 48.2162C44.1376 47.9409 44.3066 47.7059 44.5228 47.5411C44.7391 47.3762 44.993 47.2889 45.2524 47.2901C45.4248 47.29 45.5956 47.3293 45.7547 47.4056C45.9139 47.4819 46.0584 47.5937 46.1799 47.7346C46.3013 47.8755 46.3973 48.0426 46.4624 48.2264C46.5274 48.4102 46.5602 48.6069 46.5588 48.8054V48.8054Z" fill="#F7B818"/>
<path d="M42.3361 48.8054C42.3351 49.1036 42.2573 49.3948 42.1125 49.6422C41.9678 49.8897 41.7626 50.0822 41.5228 50.1955C41.2831 50.3088 41.0195 50.3378 40.7654 50.2789C40.5113 50.22 40.2781 50.0758 40.0952 49.8645C39.9123 49.6532 39.7879 49.3842 39.7377 49.0916C39.6875 48.799 39.7138 48.4958 39.8132 48.2204C39.9127 47.9449 40.0808 47.7096 40.2964 47.544C40.5119 47.3784 40.7653 47.29 41.0245 47.29C41.1972 47.29 41.3682 47.3293 41.5276 47.4055C41.6871 47.4817 41.8319 47.5934 41.9538 47.7342C42.0757 47.875 42.1722 48.0421 42.2378 48.2259C42.3034 48.4097 42.3368 48.6067 42.3361 48.8054V48.8054Z" fill="#F7B818"/>
<path d="M38.1135 48.8054C38.1124 49.1036 38.0346 49.3948 37.8899 49.6422C37.7451 49.8897 37.5399 50.0822 37.3002 50.1955C37.0604 50.3088 36.7969 50.3378 36.5428 50.2789C36.2887 50.22 36.0555 50.0758 35.8726 49.8645C35.6896 49.6532 35.5652 49.3842 35.5151 49.0916C35.4649 48.799 35.4911 48.4958 35.5906 48.2204C35.69 47.9449 35.8581 47.7096 36.0737 47.544C36.2893 47.3784 36.5427 47.29 36.8018 47.29C36.9745 47.29 37.1455 47.3293 37.305 47.4055C37.4645 47.4817 37.6093 47.5934 37.7312 47.7342C37.853 47.875 37.9495 48.0421 38.0151 48.2259C38.0807 48.4097 38.1142 48.6067 38.1135 48.8054Z" fill="#F7B818"/>
<path d="M5.62349 27.809C2.69292 27.809 0.308594 25.4247 0.308594 22.4941C0.308594 19.5635 2.69292 17.1792 5.62349 17.1792C8.55406 17.1792 10.9384 19.5635 10.9384 22.4941C10.9384 25.4247 8.55406 27.809 5.62349 27.809Z" fill="#FDBF00"/>
<path d="M55.4653 27.809C52.5347 27.809 50.1504 25.4247 50.1504 22.4941C50.1504 19.5635 52.5347 17.1792 55.4653 17.1792C58.3959 17.1792 60.7802 19.5635 60.7802 22.4941C60.7802 25.4247 58.3959 27.809 55.4653 27.809Z" fill="#FDBF00"/>
<path d="M30.5454 2.89941C27.6042 2.89941 25.2305 5.27312 25.2305 8.21431C25.2305 11.155 27.6042 13.5292 30.5454 13.5292C33.4866 13.5292 35.8603 11.155 35.8603 8.21431C35.8603 5.27312 33.4866 2.89941 30.5454 2.89941Z" fill="#FDBF00"/>
<path d="M53.4448 55.4202C53.4448 56.0648 52.8546 56.5714 52.103 56.5714H8.98444C8.23279 56.5714 7.64258 56.0648 7.64258 55.4202C7.64258 54.7754 8.23279 54.269 8.98444 54.269H52.103C52.8546 54.269 53.4448 54.7754 53.4448 55.4202Z" fill="#F7B818"/>
<path d="M57.2369 40.8304C57.2369 41.4749 56.5489 41.9816 55.6728 41.9816H5.41559C4.53949 41.9816 3.85156 41.4749 3.85156 40.8304C3.85156 40.1855 4.53949 39.6792 5.41559 39.6792H55.6728C56.5489 39.6792 57.2369 40.1855 57.2369 40.8304Z" fill="#F7B818"/>
<path d="M39.119 35.6044L31.9619 26.2503C31.6075 25.8249 31.1111 25.5771 30.5445 25.5771C29.9775 25.5771 29.4816 25.8249 29.1268 26.2858L22.0403 35.6044C21.5798 36.2065 21.5798 37.0217 21.9697 37.6593L29.0562 48.2891C29.4105 48.7851 29.942 49.0688 30.5441 49.0688C31.1466 49.0688 31.6781 48.7851 31.9969 48.2891L39.19 37.6593C39.6154 37.0217 39.5799 36.2069 39.119 35.6044Z" fill="#F03800"/>
<path d="M32.3167 36.6671C32.3167 37.6591 31.5375 38.4388 30.5451 38.4388C29.5527 38.4388 28.7734 37.6591 28.7734 36.6671C28.7734 35.6747 29.5527 34.8955 30.5451 34.8955C31.5375 34.8955 32.3167 35.6747 32.3167 36.6671Z" fill="#F03800"/>
<path fill-rule="evenodd" clip-rule="evenodd" d="M30.5841 39.0945C29.5917 39.0945 28.8125 38.3148 28.8125 37.3229C28.8125 36.3305 29.5917 35.5513 30.5841 35.5513C31.5765 35.5513 32.3558 36.3305 32.3558 37.3229C32.3558 38.3148 31.5765 39.0945 30.5841 39.0945Z" fill="#CD0000"/>
<path d="M8.17217 16.9205L7.64824 16.6339C7.61983 16.6184 7.59646 16.595 7.5809 16.5666L7.29434 16.0427C7.23009 15.9252 7.06141 15.9252 6.99716 16.0427L6.7106 16.5666C6.69507 16.595 6.6717 16.6184 6.64326 16.6339L6.11933 16.9205C6.00189 16.9848 6.00189 17.1534 6.11933 17.2177L6.64326 17.5042C6.67167 17.5198 6.69504 17.5431 6.7106 17.5716L6.99716 18.0955C7.06141 18.213 7.23009 18.213 7.29434 18.0955L7.5809 17.5716C7.59643 17.5432 7.6198 17.5198 7.64824 17.5042L8.17217 17.2177C8.28961 17.1534 8.28961 16.9847 8.17217 16.9205Z" fill="white"/>
<path d="M31.6919 2.49044L30.341 1.75159C30.2678 1.71155 30.2075 1.6513 30.1674 1.57798L29.4285 0.227101C29.2629 -0.0757005 28.828 -0.0757005 28.6623 0.227101L27.9235 1.57798C27.8834 1.65122 27.8232 1.71147 27.7499 1.75159L26.399 2.49044C26.0962 2.6561 26.0962 3.09101 26.399 3.25666L27.7499 3.99552C27.8231 4.03555 27.8833 4.09581 27.9235 4.16913L28.6623 5.52C28.828 5.82281 29.2629 5.82281 29.4285 5.52L30.1674 4.16913C30.2074 4.09589 30.2677 4.03563 30.341 3.99552L31.6919 3.25666C31.9947 3.09101 31.9947 2.65601 31.6919 2.49044Z" fill="white"/>
<path d="M60.7078 38.4778L58.9673 37.5258C58.8729 37.4742 58.7953 37.3966 58.7436 37.3021L57.7917 35.5616C57.5782 35.1715 57.0179 35.1715 56.8044 35.5616L55.8525 37.3021C55.8009 37.3965 55.7233 37.4741 55.6288 37.5258L53.8883 38.4778C53.4982 38.6912 53.4982 39.2516 53.8883 39.465L55.6288 40.417C55.7232 40.4685 55.8008 40.5462 55.8525 40.6406L56.8044 42.3811C57.0179 42.7713 57.5782 42.7713 57.7917 42.3811L58.7436 40.6406C58.7952 40.5463 58.8728 40.4686 58.9673 40.417L60.7078 39.465C61.0979 39.2516 61.0979 38.6911 60.7078 38.4778Z" fill="white"/>
<path d="M37.0061 31.2345L36.2331 30.8118C36.1912 30.7889 36.1568 30.7544 36.1338 30.7125L35.711 29.9395C35.6163 29.7663 35.3674 29.7663 35.2726 29.9395L34.8499 30.7125C34.827 30.7544 34.7925 30.7888 34.7505 30.8118L33.9776 31.2345C33.8043 31.3293 33.8043 31.5782 33.9776 31.673L34.7505 32.0957C34.7924 32.1186 34.8269 32.1531 34.8499 32.1951L35.2726 32.968C35.3674 33.1413 35.6163 33.1413 35.711 32.968L36.1338 32.1951C36.1567 32.1531 36.1912 32.1187 36.2331 32.0957L37.0061 31.673C37.1793 31.5782 37.1793 31.3293 37.0061 31.2345Z" fill="white"/>
<path d="M54.1429 17.2296L53.6189 16.943C53.5905 16.9275 53.5672 16.9041 53.5516 16.8757L53.265 16.3518C53.2008 16.2343 53.0321 16.2343 52.9679 16.3518L52.6813 16.8757C52.6658 16.9041 52.6424 16.9275 52.614 16.943L52.09 17.2296C51.9726 17.2938 51.9726 17.4625 52.09 17.5268L52.614 17.8133C52.6424 17.8289 52.6657 17.8522 52.6813 17.8807L52.9679 18.4046C53.0321 18.522 53.2008 18.522 53.265 18.4046L53.5516 17.8807C53.5671 17.8523 53.5905 17.8289 53.6189 17.8133L54.1429 17.5268C54.2603 17.4625 54.2603 17.2938 54.1429 17.2296Z" fill="white"/>
<path d="M2.14092 35.1339L1.61699 34.8473C1.58858 34.8318 1.56521 34.8084 1.54965 34.78L1.26309 34.256C1.19884 34.1386 1.03016 34.1386 0.965912 34.256L0.679349 34.78C0.663822 34.8084 0.640454 34.8318 0.612014 34.8473L0.0880808 35.1339C-0.0293603 35.1981 -0.0293603 35.3668 0.0880808 35.4311L0.612014 35.7176C0.640422 35.7331 0.663791 35.7565 0.679349 35.785L0.965912 36.3089C1.03016 36.4263 1.19884 36.4263 1.26309 36.3089L1.54965 35.785C1.56518 35.7565 1.58855 35.7332 1.61699 35.7176L2.14092 35.4311C2.25836 35.3668 2.25836 35.1981 2.14092 35.1339Z" fill="white"/>
<path d="M18.4944 55.3L17.7214 54.8772C17.6795 54.8543 17.645 54.8198 17.6221 54.7779L17.1993 54.0049C17.1045 53.8317 16.8557 53.8317 16.7609 54.0049L16.3382 54.7779C16.3153 54.8198 16.2808 54.8543 16.2388 54.8772L15.4659 55.3C15.2926 55.3948 15.2926 55.6436 15.4659 55.7384L16.2388 56.1611C16.2807 56.1841 16.3152 56.2185 16.3382 56.2605L16.7609 57.0334C16.8557 57.2067 17.1045 57.2067 17.1993 57.0334L17.6221 56.2605C17.645 56.2186 17.6795 56.1841 17.7214 56.1611L18.4944 55.7384C18.6676 55.6436 18.6676 55.3947 18.4944 55.3Z" fill="white"/>
</svg>
